ETBookOT-Roman.ufo
<glyph name="one.lining" format="1">
  <advance width="489"/>
  <unicode hex="0000"/>
  <outline>
    <contour>
      <point x="386" y="18" type="curve" smooth="yes"/>
      <point x="386" y="14"/>
      <point x="389" y="-6"/>
      <point x="367" y="-4" type="curve" smooth="yes"/>
      <point x="307" y="0"/>
      <point x="206" y="-1"/>
      <point x="143" y="-3" type="curve" smooth="yes"/>
      <point x="137" y="-4"/>
      <point x="128" y="-3"/>
      <point x="125" y="3" type="curve" smooth="yes"/>
      <point x="124" y="9"/>
      <point x="123" y="16"/>
      <point x="124" y="21" type="curve" smooth="yes"/>
      <point x="129" y="31"/>
      <point x="136" y="38"/>
      <point x="148" y="38" type="curve" smooth="yes"/>
      <point x="163" y="38"/>
      <point x="176" y="35"/>
      <point x="185" y="39" type="curve" smooth="yes"/>
      <point x="214" y="40"/>
      <point x="215" y="59"/>
      <point x="215" y="83" type="curve" smooth="yes"/>
      <point x="216" y="506" type="line" smooth="yes"/>
      <point x="214" y="517"/>
      <point x="203" y="526"/>
      <point x="196" y="521" type="curve" smooth="yes"/>
      <point x="169" y="501"/>
      <point x="137" y="483"/>
      <point x="108" y="469" type="curve" smooth="yes"/>
      <point x="104" y="467"/>
      <point x="97" y="468"/>
      <point x="92" y="473" type="curve" smooth="yes"/>
      <point x="87" y="482" type="line" smooth="yes"/>
      <point x="87" y="487"/>
      <point x="88" y="492"/>
      <point x="91" y="494" type="curve" smooth="yes"/>
      <point x="125" y="518"/>
      <point x="153" y="540"/>
      <point x="192" y="577" type="curve" smooth="yes"/>
      <point x="221" y="603"/>
      <point x="230" y="613"/>
      <point x="239" y="624" type="curve" smooth="yes"/>
      <point x="242" y="629"/>
      <point x="252" y="638"/>
      <point x="261" y="640" type="curve" smooth="yes"/>
      <point x="273" y="640" type="line" smooth="yes"/>
      <point x="284" y="640"/>
      <point x="293" y="629"/>
      <point x="294" y="620" type="curve" smooth="yes"/>
      <point x="295" y="87" type="line"/>
      <point x="295" y="75" type="line" smooth="yes"/>
      <point x="295" y="52"/>
      <point x="298" y="39"/>
      <point x="329" y="38" type="curve" smooth="yes"/>
      <point x="343" y="38"/>
      <point x="360" y="37"/>
      <point x="369" y="38" type="curve" smooth="yes"/>
      <point x="379" y="38"/>
      <point x="384" y="30"/>
    </contour>
  </outline>
</glyph>
<glyph name="quotedbl" format="1">
  <advance width="425"/>
  <unicode hex="0022"/>
  <outline>
    <contour>
      <point x="363" y="611" type="curve" smooth="yes"/>
      <point x="363" y="584"/>
      <point x="357" y="546"/>
      <point x="352" y="520" type="curve" smooth="yes"/>
      <point x="323" y="367" type="line" smooth="yes"/>
      <point x="322" y="364"/>
      <point x="319" y="359"/>
      <point x="312" y="358" type="curve" smooth="yes"/>
      <point x="303" y="356"/>
      <point x="289" y="361"/>
      <point x="289" y="367" type="curve" smooth="yes"/>
      <point x="262" y="519" type="line" smooth="yes"/>
      <point x="257" y="546"/>
      <point x="249" y="572"/>
      <point x="249" y="600" type="curve" smooth="yes"/>
      <point x="249" y="649"/>
      <point x="266" y="674"/>
      <point x="306" y="674" type="curve" smooth="yes"/>
      <point x="341" y="674"/>
      <point x="363" y="649"/>
    </contour>
    <contour>
      <point x="177" y="611" type="curve" smooth="yes"/>
      <point x="177" y="596"/>
      <point x="175" y="581"/>
      <point x="173" y="566" type="curve" smooth="yes"/>
      <point x="171" y="551"/>
      <point x="168" y="536"/>
      <point x="165" y="521" type="curve" smooth="yes"/>
      <point x="136" y="367" type="line" smooth="yes"/>
      <point x="134" y="364"/>
      <point x="129" y="360"/>
      <point x="120" y="361" type="curve" smooth="yes"/>
      <point x="113" y="361"/>
      <point x="104" y="368"/>
      <point x="102" y="379" type="curve" smooth="yes"/>
      <point x="77" y="522" type="line" smooth="yes"/>
      <point x="72" y="550"/>
      <point x="66" y="578"/>
      <point x="66" y="606" type="curve" smooth="yes"/>
      <point x="66" y="650"/>
      <point x="83" y="674"/>
      <point x="120" y="674" type="curve" smooth="yes"/>
      <point x="155" y="674"/>
      <point x="177" y="649"/>
    </contour>
  </outline>
</glyph>
<glyph name="quotesingle" format="1">
  <advance width="185"/>
  <unicode hex="0027"/>
  <outline>
    <contour>
      <point x="149" y="611" type="curve" smooth="yes"/>
      <point x="149" y="597"/>
      <point x="147" y="581"/>
      <point x="144" y="565" type="curve" smooth="yes"/>
      <point x="141" y="549"/>
      <point x="138" y="533"/>
      <point x="136" y="521" type="curve" smooth="yes"/>
      <point x="112" y="384" type="line" smooth="yes"/>
      <point x="110" y="373"/>
      <point x="105" y="362"/>
      <point x="92" y="363" type="curve" smooth="yes"/>
      <point x="74" y="365"/>
      <point x="77" y="366"/>
      <point x="74" y="382" type="curve" smooth="yes"/>
      <point x="50" y="521" type="line" smooth="yes"/>
      <point x="45" y="547"/>
      <point x="38" y="574"/>
      <point x="38" y="601" type="curve" smooth="yes"/>
      <point x="38" y="649"/>
      <point x="55" y="674"/>
      <point x="92" y="674" type="curve" smooth="yes"/>
      <point x="127" y="674"/>
      <point x="149" y="650"/>
    </contour>
  </outline>
</glyph>
<glyph name="plus" format="1">
  <advance width="698"/>
  <unicode hex="002B"/>
  <outline>
    <contour>
      <point x="630" y="323" type="line" smooth="yes"/>
      <point x="630" y="305"/>
      <point x="624" y="305"/>
      <point x="606" y="305" type="curve" smooth="yes"/>
      <point x="398" y="305" type="line" smooth="yes"/>
      <point x="386" y="305"/>
      <point x="383" y="308"/>
      <point x="383" y="294" type="curve" smooth="yes"/>
      <point x="383" y="78" type="line" smooth="yes"/>
      <point x="383" y="58"/>
      <point x="382" y="58"/>
      <point x="362" y="58" type="curve" smooth="yes"/>
      <point x="352" y="55"/>
      <point x="340" y="56"/>
      <point x="332" y="58" type="curve" smooth="yes"/>
      <point x="314" y="58"/>
      <point x="317" y="65"/>
      <point x="317" y="78" type="curve" smooth="yes"/>
      <point x="317" y="292" type="line" smooth="yes"/>
      <point x="317" y="302"/>
      <point x="314" y="305"/>
      <point x="303" y="305" type="curve" smooth="yes"/>
      <point x="92" y="305" type="line" smooth="yes"/>
      <point x="75" y="305"/>
      <point x="71" y="306"/>
      <point x="71" y="323" type="curve" smooth="yes"/>
      <point x="71" y="350" type="line" smooth="yes"/>
      <point x="71" y="368"/>
      <point x="68" y="371"/>
      <point x="88" y="371" type="curve" smooth="yes"/>
      <point x="302" y="371" type="line" smooth="yes"/>
      <point x="315" y="371"/>
      <point x="317" y="373"/>
      <point x="317" y="385" type="curve" smooth="yes"/>
      <point x="317" y="584" type="line" smooth="yes"/>
      <point x="317" y="589"/>
      <point x="316" y="593"/>
      <point x="316" y="597" type="curve" smooth="yes"/>
      <point x="316" y="607"/>
      <point x="317" y="620"/>
      <point x="330" y="620" type="curve" smooth="yes"/>
      <point x="369" y="620" type="line" smooth="yes"/>
      <point x="381" y="620"/>
      <point x="383" y="619"/>
      <point x="383" y="598" type="curve" smooth="yes"/>
      <point x="383" y="598"/>
      <point x="383" y="382"/>
      <point x="383" y="381" type="curve" smooth="yes"/>
      <point x="382" y="376"/>
      <point x="385" y="371"/>
      <point x="393" y="371" type="curve" smooth="yes"/>
      <point x="609" y="371" type="line" smooth="yes"/>
      <point x="628" y="371"/>
      <point x="630" y="366"/>
      <point x="630" y="354" type="curve" smooth="yes"/>
    </contour>
  </outline>
</glyph>
<glyph name="hyphen" format="1">
  <advance width="435"/>
  <unicode hex="002D"/>
  <outline>
    <contour>
      <point x="396" y="252" type="curve" smooth="yes"/>
      <point x="394" y="213" type="line" smooth="yes"/>
      <point x="392" y="204"/>
      <point x="383" y="200"/>
      <point x="377" y="199" type="curve" smooth="yes"/>
      <point x="221" y="203"/>
      <point x="176" y="197"/>
      <point x="54" y="199" type="curve" smooth="yes"/>
      <point x="47" y="199"/>
      <point x="45" y="207"/>
      <point x="44" y="211" type="curve" smooth="yes"/>
      <point x="44" y="251" type="line" smooth="yes"/>
      <point x="44" y="263"/>
      <point x="56" y="268"/>
      <point x="63" y="268" type="curve" smooth="yes"/>
      <point x="138" y="266"/>
      <point x="277" y="271"/>
      <point x="382" y="268" type="curve" smooth="yes"/>
      <point x="389" y="268"/>
      <point x="396" y="259"/>
    </contour>
  </outline>
</glyph>
<glyph name="period" format="1">
  <advance width="204"/>
  <unicode hex="002E"/>
  <outline>
    <contour>
      <point x="184" y="40" type="curve" smooth="yes"/>
      <point x="184" y="7"/>
      <point x="161" y="-18"/>
      <point x="126" y="-18" type="curve" smooth="yes"/>
      <point x="91" y="-18"/>
      <point x="65" y="6"/>
      <point x="65" y="39" type="curve" smooth="yes"/>
      <point x="65" y="74"/>
      <point x="90" y="97"/>
      <point x="126" y="97" type="curve" smooth="yes"/>
      <point x="161" y="97"/>
      <point x="184" y="74"/>
    </contour>
  </outline>
</glyph>
<glyph name="two" format="1">
  <advance width="489"/>
  <unicode hex="0032"/>
  <outline>
    <contour>
      <point x="439" y="150" type="curve" smooth="yes"/>
      <point x="405" y="10" type="line" smooth="yes"/>
      <point x="402" y="-2"/>
      <point x="388" y="-4"/>
      <point x="378" y="-4" type="curve" smooth="yes"/>
      <point x="375" y="-4"/>
      <point x="372" y="-4"/>
      <point x="369" y="-4" type="curve" smooth="yes"/>
      <point x="38" y="-4" type="line"/>
      <point x="30" y="0"/>
      <point x="32" y="19"/>
      <point x="36" y="24" type="curve" smooth="yes"/>
      <point x="120" y="82"/>
      <point x="168" y="119"/>
      <point x="219" y="164" type="curve" smooth="yes"/>
      <point x="281" y="219"/>
      <point x="304" y="257"/>
      <point x="304" y="299" type="curve" smooth="yes"/>
      <point x="304" y="356"/>
      <point x="263" y="396"/>
      <point x="206" y="396" type="curve" smooth="yes"/>
      <point x="167" y="396"/>
      <point x="134" y="381"/>
      <point x="90" y="341" type="curve" smooth="yes"/>
      <point x="86" y="337"/>
      <point x="60" y="342"/>
      <point x="68" y="359" type="curve"/>
      <point x="129" y="428"/>
      <point x="178" y="455"/>
      <point x="245" y="455" type="curve" smooth="yes"/>
      <point x="321" y="455"/>
      <point x="383" y="404"/>
      <point x="383" y="338" type="curve" smooth="yes"/>
      <point x="383" y="234"/>
      <point x="247" y="137"/>
      <point x="166" y="80" type="curve" smooth="yes"/>
      <point x="164" y="78"/>
      <point x="164" y="76"/>
      <point x="166" y="73" type="curve" smooth="yes"/>
      <point x="167" y="71"/>
      <point x="171" y="69"/>
      <point x="175" y="69" type="curve" smooth="yes"/>
      <point x="229" y="69"/>
      <point x="284" y="68"/>
      <point x="339" y="70" type="curve" smooth="yes"/>
      <point x="364" y="71"/>
      <point x="371" y="73"/>
      <point x="382" y="93" type="curve" smooth="yes"/>
      <point x="390" y="107"/>
      <point x="400" y="127"/>
      <point x="411" y="156" type="curve" smooth="yes"/>
      <point x="415" y="160"/>
      <point x="422" y="161"/>
      <point x="428" y="160" type="curve" smooth="yes"/>
      <point x="434" y="159"/>
      <point x="440" y="156"/>
    </contour>
  </outline>
</glyph>
<glyph name="three" format="1">
  <advance width="436"/>
  <unicode hex="0033"/>
  <outline>
    <contour>
      <point x="344" y="37" type="curve" smooth="yes"/>
      <point x="344" y="-85"/>
      <point x="262" y="-178"/>
      <point x="153" y="-178" type="curve" smooth="yes"/>
      <point x="96" y="-178"/>
      <point x="60" y="-160"/>
      <point x="60" y="-123" type="curve" smooth="yes"/>
      <point x="60" y="-92"/>
      <point x="94" y="-78"/>
      <point x="118" y="-92" type="curve" smooth="yes"/>
      <point x="124" y="-96"/>
      <point x="129" y="-101"/>
      <point x="135" y="-105" type="curve" smooth="yes"/>
      <point x="167" y="-129"/>
      <point x="183" y="-135"/>
      <point x="201" y="-135" type="curve" smooth="yes"/>
      <point x="238" y="-135"/>
      <point x="268" y="-89"/>
      <point x="268" y="-16" type="curve" smooth="yes"/>
      <point x="268" y="49"/>
      <point x="256" y="81"/>
      <point x="227" y="106" type="curve" smooth="yes"/>
      <point x="200" y="130"/>
      <point x="174" y="129"/>
      <point x="141" y="120" type="curve" smooth="yes"/>
      <point x="126" y="116"/>
      <point x="124" y="142"/>
      <point x="131" y="146" type="curve" smooth="yes"/>
      <point x="217" y="199"/>
      <point x="256" y="254"/>
      <point x="256" y="312" type="curve" smooth="yes"/>
      <point x="256" y="361"/>
      <point x="230" y="392"/>
      <point x="189" y="392" type="curve" smooth="yes"/>
      <point x="156" y="392"/>
      <point x="131" y="379"/>
      <point x="94" y="337" type="curve" smooth="yes"/>
      <point x="87" y="329"/>
      <point x="70" y="341"/>
      <point x="74" y="355" type="curve" smooth="yes"/>
      <point x="107" y="420"/>
      <point x="159" y="458"/>
      <point x="218" y="458" type="curve" smooth="yes"/>
      <point x="283" y="458"/>
      <point x="331" y="405"/>
      <point x="331" y="336" type="curve" smooth="yes"/>
      <point x="331" y="286"/>
      <point x="312" y="246"/>
      <point x="251" y="200" type="curve" smooth="yes"/>
      <point x="248" y="198"/>
      <point x="240" y="190"/>
      <point x="249" y="189" type="curve" smooth="yes"/>
      <point x="263" y="187"/>
      <point x="281" y="178"/>
      <point x="290" y="171" type="curve" smooth="yes"/>
      <point x="324" y="142"/>
      <point x="344" y="94"/>
    </contour>
  </outline>
</glyph>
<glyph name="six" format="1">
  <advance width="502"/>
  <unicode hex="0036"/>
  <outline>
    <contour>
      <point x="452" y="197" type="curve" smooth="yes"/>
      <point x="452" y="77"/>
      <point x="367" y="-14"/>
      <point x="255" y="-14" type="curve" smooth="yes"/>
      <point x="136" y="-14"/>
      <point x="48" y="86"/>
      <point x="48" y="220" type="curve" smooth="yes"/>
      <point x="48" y="430"/>
      <point x="243" y="559"/>
      <point x="417" y="614" type="curve" smooth="yes"/>
      <point x="441" y="621"/>
      <point x="456" y="609"/>
      <point x="442" y="590" type="curve"/>
      <point x="334" y="542"/>
      <point x="261" y="493"/>
      <point x="194" y="399" type="curve" smooth="yes"/>
      <point x="189" y="392"/>
      <point x="196" y="388"/>
      <point x="201" y="389" type="curve" smooth="yes"/>
      <point x="213" y="392"/>
      <point x="221" y="394"/>
      <point x="228" y="394" type="curve" smooth="yes"/>
      <point x="236" y="395"/>
      <point x="243" y="395"/>
      <point x="255" y="395" type="curve" smooth="yes"/>
      <point x="371" y="395"/>
      <point x="452" y="314"/>
    </contour>
    <contour>
      <point x="366" y="181" type="curve" smooth="yes"/>
      <point x="366" y="301"/>
      <point x="320" y="368"/>
      <point x="242" y="368" type="curve" smooth="yes"/>
      <point x="219" y="368"/>
      <point x="203" y="364"/>
      <point x="168" y="348" type="curve"/>
      <point x="141" y="282"/>
      <point x="135" y="252"/>
      <point x="135" y="197" type="curve" smooth="yes"/>
      <point x="135" y="82"/>
      <point x="181" y="15"/>
      <point x="252" y="15" type="curve" smooth="yes"/>
      <point x="279" y="15"/>
      <point x="305" y="25"/>
      <point x="324" y="44" type="curve" smooth="yes"/>
      <point x="352" y="72"/>
      <point x="366" y="116"/>
    </contour>
  </outline>
</glyph>
<glyph name="seven" format="1">
  <advance width="489"/>
  <unicode hex="0037"/>
  <outline>
    <contour>
      <point x="438" y="418" type="line"/>
      <point x="346" y="178"/>
      <point x="241" y="-65"/>
      <point x="192" y="-165" type="curve" smooth="yes"/>
      <point x="189" y="-173"/>
      <point x="184" y="-178"/>
      <point x="177" y="-177" type="curve" smooth="yes"/>
      <point x="146" y="-176" type="line" smooth="yes"/>
      <point x="138" y="-175"/>
      <point x="128" y="-167"/>
      <point x="133" y="-157" type="curve" smooth="yes"/>
      <point x="363" y="360" type="line" smooth="yes"/>
      <point x="366" y="368"/>
      <point x="348" y="369"/>
      <point x="343" y="369" type="curve" smooth="yes"/>
      <point x="294" y="366"/>
      <point x="196" y="368"/>
      <point x="136" y="369" type="curve" smooth="yes"/>
      <point x="111" y="370"/>
      <point x="95" y="364"/>
      <point x="83" y="317" type="curve" smooth="yes"/>
      <point x="70" y="267" type="line" smooth="yes"/>
      <point x="66" y="261"/>
      <point x="41" y="264"/>
      <point x="42" y="274" type="curve" smooth="yes"/>
      <point x="62" y="425" type="line"/>
      <point x="68" y="439"/>
      <point x="85" y="442"/>
      <point x="93" y="442" type="curve" smooth="yes"/>
      <point x="174" y="445"/>
      <point x="335" y="445"/>
      <point x="416" y="442" type="curve" smooth="yes"/>
      <point x="423" y="442"/>
      <point x="435" y="440"/>
      <point x="438" y="434" type="curve" smooth="yes"/>
    </contour>
  </outline>
</glyph>
<glyph name="nine" format="1">
  <advance width="510"/>
  <unicode hex="0039"/>
  <outline>
    <contour>
      <point x="452" y="218" type="curve" smooth="yes"/>
      <point x="452" y="-13"/>
      <point x="275" y="-128"/>
      <point x="76" y="-176" type="curve" smooth="yes"/>
      <point x="55" y="-181"/>
      <point x="45" y="-150"/>
      <point x="61" y="-144" type="curve" smooth="yes"/>
      <point x="158" y="-109"/>
      <point x="264" y="-56"/>
      <point x="318" y="38" type="curve" smooth="yes"/>
      <point x="323" y="49"/>
      <point x="325" y="60"/>
      <point x="309" y="56" type="curve" smooth="yes"/>
      <point x="277" y="48"/>
      <point x="270" y="46"/>
      <point x="242" y="46" type="curve" smooth="yes"/>
      <point x="132" y="46"/>
      <point x="48" y="133"/>
      <point x="48" y="245" type="curve" smooth="yes"/>
      <point x="48" y="365"/>
      <point x="133" y="456"/>
      <point x="246" y="456" type="curve" smooth="yes"/>
      <point x="368" y="456"/>
      <point x="452" y="355"/>
    </contour>
    <contour>
      <point x="366" y="247" type="curve" smooth="yes"/>
      <point x="366" y="362"/>
      <point x="320" y="430"/>
      <point x="250" y="430" type="curve" smooth="yes"/>
      <point x="227" y="430"/>
      <point x="200" y="421"/>
      <point x="182" y="406" type="curve" smooth="yes"/>
      <point x="150" y="381"/>
      <point x="135" y="332"/>
      <point x="135" y="260" type="curve" smooth="yes"/>
      <point x="135" y="141"/>
      <point x="181" y="73"/>
      <point x="258" y="73" type="curve" smooth="yes"/>
      <point x="282" y="73"/>
      <point x="301" y="77"/>
      <point x="330" y="91" type="curve" smooth="yes"/>
      <point x="344" y="98"/>
      <point x="345" y="102"/>
      <point x="350" y="117" type="curve" smooth="yes"/>
      <point x="363" y="167"/>
      <point x="366" y="199"/>
    </contour>
  </outline>
</glyph>
<glyph name="colon" format="1">
  <advance width="257"/>
  <unicode hex="003A"/>
  <outline>
    <contour>
      <point x="182" y="350" type="curve" smooth="yes"/>
      <point x="182" y="321"/>
      <point x="159" y="300"/>
      <point x="129" y="300" type="curve" smooth="yes"/>
      <point x="99" y="300"/>
      <point x="76" y="321"/>
      <point x="76" y="350" type="curve" smooth="yes"/>
      <point x="76" y="381"/>
      <point x="99" y="401"/>
      <point x="129" y="401" type="curve" smooth="yes"/>
      <point x="159" y="401"/>
      <point x="182" y="381"/>
    </contour>
    <contour>
      <point x="182" y="41" type="curve" smooth="yes"/>
      <point x="182" y="11"/>
      <point x="159" y="-10"/>
      <point x="129" y="-10" type="curve" smooth="yes"/>
      <point x="99" y="-10"/>
      <point x="76" y="12"/>
      <point x="76" y="41" type="curve" smooth="yes"/>
      <point x="76" y="71"/>
      <point x="99" y="91"/>
      <point x="129" y="91" type="curve" smooth="yes"/>
      <point x="159" y="91"/>
      <point x="182" y="71"/>
    </contour>
  </outline>
</glyph>
<glyph name="D" format="1">
  <advance width="773"/>
  <unicode hex="0044"/>
  <outline>
    <contour>
      <point x="721" y="346" type="curve" smooth="yes"/>
      <point x="721" y="196"/>
      <point x="620" y="60"/>
      <point x="475" y="18" type="curve" smooth="yes"/>
      <point x="402" y="-3"/>
      <point x="353" y="-3"/>
      <point x="278" y="-3" type="curve" smooth="yes"/>
      <point x="38" y="-4" type="line" smooth="yes"/>
      <point x="31" y="-4"/>
      <point x="19" y="-4"/>
      <point x="16" y="5" type="curve" smooth="yes"/>
      <point x="12" y="14"/>
      <point x="11" y="30"/>
      <point x="24" y="34" type="curve" smooth="yes"/>
      <point x="37" y="36"/>
      <point x="48" y="35"/>
      <point x="61" y="36" type="curve" smooth="yes"/>
      <point x="120" y="41"/>
      <point x="115" y="90"/>
      <point x="115" y="134" type="curve" smooth="yes"/>
      <point x="115" y="515" type="line" smooth="yes"/>
      <point x="115" y="599"/>
      <point x="114" y="618"/>
      <point x="29" y="618" type="curve" smooth="yes"/>
      <point x="20" y="618" type="line" smooth="yes"/>
      <point x="7" y="618"/>
      <point x="12" y="648"/>
      <point x="20" y="649" type="curve" smooth="yes"/>
      <point x="27" y="651" type="line"/>
      <point x="126" y="655"/>
      <point x="222" y="659"/>
      <point x="321" y="659" type="curve" smooth="yes"/>
      <point x="452" y="659"/>
      <point x="529" y="639"/>
      <point x="600" y="588" type="curve" smooth="yes"/>
      <point x="679" y="531"/>
      <point x="721" y="446"/>
    </contour>
    <contour>
      <point x="613" y="330" type="curve" smooth="yes"/>
      <point x="613" y="429"/>
      <point x="574" y="517"/>
      <point x="510" y="566" type="curve" smooth="yes"/>
      <point x="466" y="600"/>
      <point x="428" y="614"/>
      <point x="349" y="622" type="curve" smooth="yes"/>
      <point x="305" y="626"/>
      <point x="278" y="626"/>
      <point x="234" y="624" type="curve" smooth="yes"/>
      <point x="223" y="623"/>
      <point x="212" y="615"/>
      <point x="212" y="601" type="curve" smooth="yes"/>
      <point x="212" y="102" type="line" smooth="yes"/>
      <point x="212" y="55"/>
      <point x="223" y="30"/>
      <point x="290" y="30" type="curve" smooth="yes"/>
      <point x="478" y="30"/>
      <point x="613" y="117"/>
    </contour>
  </outline>
</glyph>
<glyph name="F" format="1">
  <advance width="543"/>
  <unicode hex="0046"/>
  <outline>
    <contour>
      <point x="499" y="633" type="curve" smooth="yes"/>
      <point x="496" y="523" type="line"/>
      <point x="487" y="517"/>
      <point x="474" y="520"/>
      <point x="466" y="523" type="curve"/>
      <point x="463" y="590"/>
      <point x="450" y="602"/>
      <point x="356" y="602" type="curve" smooth="yes"/>
      <point x="235" y="602" type="line" smooth="yes"/>
      <point x="228" y="602"/>
      <point x="220" y="595"/>
      <point x="218" y="586" type="curve" smooth="yes"/>
      <point x="217" y="390" type="line" smooth="yes"/>
      <point x="217" y="382"/>
      <point x="226" y="373"/>
      <point x="231" y="372" type="curve" smooth="yes"/>
      <point x="273" y="369"/>
      <point x="317" y="372"/>
      <point x="359" y="372" type="curve" smooth="yes"/>
      <point x="431" y="373"/>
      <point x="444" y="376"/>
      <point x="449" y="425" type="curve" smooth="yes"/>
      <point x="450" y="432"/>
      <point x="455" y="436"/>
      <point x="462" y="437" type="curve" smooth="yes"/>
      <point x="469" y="438"/>
      <point x="477" y="436"/>
      <point x="478" y="429" type="curve" smooth="yes"/>
      <point x="478" y="420"/>
      <point x="480" y="302"/>
      <point x="478" y="250" type="curve" smooth="yes"/>
      <point x="476" y="242"/>
      <point x="451" y="242"/>
      <point x="450" y="250" type="curve" smooth="yes"/>
      <point x="444" y="315"/>
      <point x="433" y="325"/>
      <point x="355" y="323" type="curve" smooth="yes"/>
      <point x="326" y="322"/>
      <point x="269" y="322"/>
      <point x="240" y="323" type="curve" smooth="yes"/>
      <point x="227" y="322"/>
      <point x="218" y="315"/>
      <point x="218" y="303" type="curve" smooth="yes"/>
      <point x="218" y="102"/>
      <point x="218" y="140"/>
      <point x="218" y="99" type="curve" smooth="yes"/>
      <point x="218" y="45"/>
      <point x="235" y="31"/>
      <point x="293" y="31" type="curve" smooth="yes"/>
      <point x="303" y="31" type="line" smooth="yes"/>
      <point x="308" y="30"/>
      <point x="311" y="21"/>
      <point x="311" y="13" type="curve" smooth="yes"/>
      <point x="311" y="4"/>
      <point x="308" y="-4"/>
      <point x="303" y="-3" type="curve" smooth="yes"/>
      <point x="228" y="-2"/>
      <point x="128" y="-1"/>
      <point x="51" y="-3" type="curve" smooth="yes"/>
      <point x="34" y="-3"/>
      <point x="39" y="28"/>
      <point x="49" y="30" type="curve" smooth="yes"/>
      <point x="106" y="33"/>
      <point x="120" y="46"/>
      <point x="120" y="99" type="curve" smooth="yes"/>
      <point x="120" y="549" type="line" smooth="yes"/>
      <point x="120" y="603"/>
      <point x="102" y="617"/>
      <point x="48" y="619" type="curve" smooth="yes"/>
      <point x="40" y="621"/>
      <point x="38" y="652"/>
      <point x="52" y="650" type="curve" smooth="yes"/>
      <point x="483" y="650" type="line" smooth="yes"/>
      <point x="491" y="650"/>
      <point x="500" y="639"/>
    </contour>
  </outline>
</glyph>
<glyph name="G" format="1">
  <advance width="763"/>
  <unicode hex="0047"/>
  <outline>
    <contour>
      <point x="730" y="270" type="curve" smooth="yes"/>
      <point x="729" y="262"/>
      <point x="724" y="253"/>
      <point x="720" y="254" type="curve" smooth="yes"/>
      <point x="672" y="252"/>
      <point x="658" y="236"/>
      <point x="657" y="185" type="curve" smooth="yes"/>
      <point x="656" y="158"/>
      <point x="656" y="101"/>
      <point x="657" y="71" type="curve" smooth="yes"/>
      <point x="657" y="62"/>
      <point x="657" y="48"/>
      <point x="648" y="44" type="curve" smooth="yes"/>
      <point x="580" y="9"/>
      <point x="471" y="-19"/>
      <point x="386" y="-19" type="curve" smooth="yes"/>
      <point x="191" y="-19"/>
      <point x="57" y="121"/>
      <point x="57" y="312" type="curve" smooth="yes"/>
      <point x="57" y="412"/>
      <point x="100" y="508"/>
      <point x="171" y="574" type="curve" smooth="yes"/>
      <point x="239" y="638"/>
      <point x="308" y="667"/>
      <point x="414" y="667" type="curve" smooth="yes"/>
      <point x="468" y="667"/>
      <point x="505" y="659"/>
      <point x="579" y="637" type="curve" smooth="yes"/>
      <point x="597" y="632"/>
      <point x="603" y="631"/>
      <point x="610" y="631" type="curve" smooth="yes"/>
      <point x="620" y="631"/>
      <point x="624" y="633"/>
      <point x="630" y="639" type="curve"/>
      <point x="638" y="641"/>
      <point x="645" y="640"/>
      <point x="653" y="639" type="curve" smooth="yes"/>
      <point x="660" y="637"/>
      <point x="655" y="517"/>
      <point x="653" y="466" type="curve" smooth="yes"/>
      <point x="652" y="454"/>
      <point x="623" y="453"/>
      <point x="621" y="464" type="curve" smooth="yes"/>
      <point x="599" y="574"/>
      <point x="538" y="631"/>
      <point x="430" y="631" type="curve" smooth="yes"/>
      <point x="263" y="631"/>
      <point x="166" y="511"/>
      <point x="166" y="319" type="curve" smooth="yes"/>
      <point x="166" y="142"/>
      <point x="265" y="19"/>
      <point x="418" y="19" type="curve" smooth="yes"/>
      <point x="462" y="19"/>
      <point x="506" y="31"/>
      <point x="548" y="50" type="curve" smooth="yes"/>
      <point x="559" y="55"/>
      <point x="560" y="72"/>
      <point x="560" y="83" type="curve" smooth="yes"/>
      <point x="560" y="108"/>
      <point x="557" y="159"/>
      <point x="560" y="184" type="curve" smooth="yes"/>
      <point x="560" y="238"/>
      <point x="542" y="249"/>
      <point x="483" y="251" type="curve" smooth="yes"/>
      <point x="444" y="252" type="line" smooth="yes"/>
      <point x="434" y="252"/>
      <point x="429" y="285"/>
      <point x="444" y="287" type="curve" smooth="yes"/>
      <point x="519" y="285"/>
      <point x="653" y="286"/>
      <point x="720" y="287" type="curve" smooth="yes"/>
      <point x="730" y="287"/>
      <point x="732" y="278"/>
    </contour>
  </outline>
</glyph>
<glyph name="I" format="1">
  <advance width="363"/>
  <unicode hex="0049"/>
  <outline>
    <contour>
      <point x="317" y="640" type="curve" smooth="yes"/>
      <point x="318" y="632"/>
      <point x="318" y="619"/>
      <point x="312" y="619" type="curve" smooth="yes"/>
      <point x="308" y="619"/>
      <point x="303" y="617"/>
      <point x="298" y="617" type="curve" smooth="yes"/>
      <point x="237" y="616"/>
      <point x="229" y="606"/>
      <point x="229" y="514" type="curve" smooth="yes"/>
      <point x="229" y="99" type="line" smooth="yes"/>
      <point x="229" y="47"/>
      <point x="244" y="34"/>
      <point x="298" y="33" type="curve" smooth="yes"/>
      <point x="304" y="33"/>
      <point x="309" y="33"/>
      <point x="313" y="32" type="curve" smooth="yes"/>
      <point x="326" y="24"/>
      <point x="320" y="-3"/>
      <point x="312" y="-3" type="curve" smooth="yes"/>
      <point x="249" y="-1"/>
      <point x="127" y="-1"/>
      <point x="64" y="-3" type="curve" smooth="yes"/>
      <point x="58" y="-3"/>
      <point x="52" y="2"/>
      <point x="52" y="12" type="curve" smooth="yes"/>
      <point x="52" y="20"/>
      <point x="56" y="31"/>
      <point x="61" y="31" type="curve" smooth="yes"/>
      <point x="124" y="37"/>
      <point x="129" y="45"/>
      <point x="131" y="99" type="curve" smooth="yes"/>
      <point x="132" y="134" type="line"/>
      <point x="132" y="514" type="line"/>
      <point x="131" y="549" type="line" smooth="yes"/>
      <point x="130" y="601"/>
      <point x="122" y="613"/>
      <point x="68" y="619" type="curve" smooth="yes"/>
      <point x="60" y="620"/>
      <point x="51" y="625"/>
      <point x="57" y="644" type="curve" smooth="yes"/>
      <point x="60" y="652"/>
      <point x="64" y="651"/>
      <point x="71" y="651" type="curve" smooth="yes"/>
      <point x="153" y="651"/>
      <point x="179" y="645"/>
      <point x="301" y="651" type="curve" smooth="yes"/>
      <point x="310" y="651"/>
      <point x="316" y="650"/>
    </contour>
  </outline>
</glyph>
<glyph name="L" format="1">
  <advance width="595"/>
  <unicode hex="004C"/>
  <outline>
    <contour>
      <point x="572" y="148" type="curve" smooth="yes"/>
      <point x="548" y="91"/>
      <point x="521" y="36"/>
      <point x="508" y="15" type="curve" smooth="yes"/>
      <point x="501" y="5"/>
      <point x="493" y="-4"/>
      <point x="477" y="-4" type="curve" smooth="yes"/>
      <point x="295" y="-1"/>
      <point x="67" y="-2"/>
      <point x="37" y="-3" type="curve" smooth="yes"/>
      <point x="30" y="-4"/>
      <point x="24" y="1"/>
      <point x="23" y="6" type="curve" smooth="yes"/>
      <point x="20" y="13"/>
      <point x="22" y="29"/>
      <point x="30" y="32" type="curve" smooth="yes"/>
      <point x="33" y="33"/>
      <point x="35" y="33"/>
      <point x="38" y="34" type="curve" smooth="yes"/>
      <point x="64" y="34"/>
      <point x="115" y="32"/>
      <point x="122" y="67" type="curve" smooth="yes"/>
      <point x="123" y="78"/>
      <point x="124" y="97"/>
      <point x="124" y="138" type="curve" smooth="yes"/>
      <point x="124" y="549" type="line" smooth="yes"/>
      <point x="124" y="603"/>
      <point x="106" y="618"/>
      <point x="47" y="618" type="curve" smooth="yes"/>
      <point x="35" y="618" type="line" smooth="yes"/>
      <point x="25" y="619"/>
      <point x="25" y="639"/>
      <point x="30" y="646" type="curve" smooth="yes"/>
      <point x="33" y="652"/>
      <point x="41" y="652"/>
      <point x="45" y="651" type="curve" smooth="yes"/>
      <point x="145" y="649"/>
      <point x="215" y="650"/>
      <point x="331" y="652" type="curve" smooth="yes"/>
      <point x="337" y="652"/>
      <point x="343" y="651"/>
      <point x="345" y="643" type="curve" smooth="yes"/>
      <point x="349" y="628"/>
      <point x="346" y="617"/>
      <point x="332" y="616" type="curve" smooth="yes"/>
      <point x="322" y="615"/>
      <point x="311" y="614"/>
      <point x="300" y="614" type="curve" smooth="yes"/>
      <point x="225" y="612"/>
      <point x="221" y="611"/>
      <point x="221" y="559" type="curve" smooth="yes"/>
      <point x="221" y="101" type="line" smooth="yes"/>
      <point x="221" y="59"/>
      <point x="237" y="47"/>
      <point x="278" y="47" type="curve" smooth="yes"/>
      <point x="372" y="47" type="line" smooth="yes"/>
      <point x="447" y="47"/>
      <point x="463" y="49"/>
      <point x="512" y="114" type="curve" smooth="yes"/>
      <point x="547" y="160" type="line"/>
      <point x="555" y="163"/>
      <point x="563" y="164"/>
      <point x="568" y="160" type="curve" smooth="yes"/>
      <point x="574" y="157"/>
      <point x="573" y="150"/>
    </contour>
  </outline>
</glyph>
<glyph name="N" format="1">
  <advance width="834"/>
  <unicode hex="004E"/>
  <outline>
    <contour>
      <point x="805" y="633" type="curve" smooth="yes"/>
      <point x="806" y="620"/>
      <point x="803" y="618"/>
      <point x="791" y="618" type="curve" smooth="yes"/>
      <point x="714" y="616"/>
      <point x="708" y="610"/>
      <point x="708" y="532" type="curve" smooth="yes"/>
      <point x="708" y="4" type="line" smooth="yes"/>
      <point x="708" y="-15"/>
      <point x="674" y="-14"/>
      <point x="670" y="-6" type="curve" smooth="yes"/>
      <point x="666" y="-1"/>
      <point x="547" y="133"/>
      <point x="431" y="265" type="curve" smooth="yes"/>
      <point x="314" y="398"/>
      <point x="199" y="529"/>
      <point x="199" y="529" type="curve" smooth="yes"/>
      <point x="193" y="532"/>
      <point x="188" y="524"/>
      <point x="188" y="508" type="curve" smooth="yes"/>
      <point x="188" y="139" type="line" smooth="yes"/>
      <point x="188" y="118"/>
      <point x="187" y="91"/>
      <point x="194" y="71" type="curve" smooth="yes"/>
      <point x="200" y="52"/>
      <point x="214" y="38"/>
      <point x="242" y="36" type="curve" smooth="yes"/>
      <point x="253" y="35"/>
      <point x="288" y="39"/>
      <point x="293" y="29" type="curve" smooth="yes"/>
      <point x="298" y="17"/>
      <point x="298" y="-3"/>
      <point x="281" y="-3" type="curve" smooth="yes"/>
      <point x="219" y="-2"/>
      <point x="105" y="-1"/>
      <point x="44" y="-4" type="curve" smooth="yes"/>
      <point x="32" y="-5"/>
      <point x="32" y="20"/>
      <point x="37" y="27" type="curve" smooth="yes"/>
      <point x="41" y="33"/>
      <point x="46" y="34"/>
      <point x="52" y="34" type="curve" smooth="yes"/>
      <point x="96" y="34"/>
      <point x="129" y="45"/>
      <point x="129" y="92" type="curve" smooth="yes"/>
      <point x="129" y="597" type="line"/>
      <point x="110" y="611"/>
      <point x="85" y="617"/>
      <point x="48" y="618" type="curve" smooth="yes"/>
      <point x="43" y="617"/>
      <point x="40" y="627"/>
      <point x="40" y="635" type="curve" smooth="yes"/>
      <point x="40" y="648"/>
      <point x="46" y="651"/>
      <point x="56" y="651" type="curve" smooth="yes"/>
      <point x="127" y="649"/>
      <point x="173" y="650"/>
      <point x="199" y="651" type="curve" smooth="yes"/>
      <point x="204" y="651"/>
      <point x="217" y="646"/>
      <point x="223" y="639" type="curve" smooth="yes"/>
      <point x="632" y="171" type="line" smooth="yes"/>
      <point x="638" y="162"/>
      <point x="649" y="177"/>
      <point x="649" y="185" type="curve" smooth="yes"/>
      <point x="649" y="515" type="line" smooth="yes"/>
      <point x="649" y="565"/>
      <point x="649" y="589"/>
      <point x="636" y="601" type="curve" smooth="yes"/>
      <point x="630" y="607"/>
      <point x="621" y="611"/>
      <point x="608" y="613" type="curve" smooth="yes"/>
      <point x="594" y="615"/>
      <point x="576" y="616"/>
      <point x="553" y="617" type="curve" smooth="yes"/>
      <point x="541" y="618"/>
      <point x="538" y="652"/>
      <point x="553" y="651" type="curve" smooth="yes"/>
      <point x="631" y="648"/>
      <point x="708" y="650"/>
      <point x="799" y="652" type="curve" smooth="yes"/>
      <point x="805" y="652"/>
      <point x="805" y="637"/>
    </contour>
  </outline>
</glyph>
<glyph name="T" format="1">
  <advance width="681"/>
  <unicode hex="0054"/>
  <outline>
    <contour>
      <point x="652" y="494" type="line" smooth="yes"/>
      <point x="653" y="486"/>
      <point x="645" y="484"/>
      <point x="639" y="484" type="curve" smooth="yes"/>
      <point x="622" y="484"/>
      <point x="622" y="490"/>
      <point x="620" y="499" type="curve" smooth="yes"/>
      <point x="603" y="584"/>
      <point x="587" y="602"/>
      <point x="552" y="602" type="curve" smooth="yes"/>
      <point x="406" y="602" type="line" smooth="yes"/>
      <point x="399" y="602"/>
      <point x="392" y="590"/>
      <point x="392" y="584" type="curve" smooth="yes"/>
      <point x="391" y="471"/>
      <point x="392" y="246"/>
      <point x="392" y="134" type="curve" smooth="yes"/>
      <point x="392" y="99" type="line" smooth="yes"/>
      <point x="392" y="45"/>
      <point x="410" y="37"/>
      <point x="468" y="37" type="curve" smooth="yes"/>
      <point x="497" y="37" type="line" smooth="yes"/>
      <point x="504" y="37"/>
      <point x="508" y="32"/>
      <point x="511" y="24" type="curve" smooth="yes"/>
      <point x="513" y="19"/>
      <point x="513" y="11"/>
      <point x="511" y="5" type="curve" smooth="yes"/>
      <point x="508" y="-3"/>
      <point x="503" y="-3"/>
      <point x="495" y="-3" type="curve" smooth="yes"/>
      <point x="415" y="0"/>
      <point x="264" y="-2"/>
      <point x="189" y="-4" type="curve" smooth="yes"/>
      <point x="180" y="-4"/>
      <point x="178" y="0"/>
      <point x="177" y="3" type="curve" smooth="yes"/>
      <point x="175" y="9"/>
      <point x="175" y="21"/>
      <point x="177" y="27" type="curve" smooth="yes"/>
      <point x="180" y="32"/>
      <point x="185" y="35"/>
      <point x="190" y="36" type="curve" smooth="yes"/>
      <point x="202" y="36"/>
      <point x="216" y="37"/>
      <point x="228" y="35" type="curve" smooth="yes"/>
      <point x="279" y="35"/>
      <point x="294" y="54"/>
      <point x="294" y="106" type="curve" smooth="yes"/>
      <point x="294" y="134" type="line" smooth="yes"/>
      <point x="294" y="258"/>
      <point x="293" y="462"/>
      <point x="294" y="586" type="curve" smooth="yes"/>
      <point x="294" y="592"/>
      <point x="281" y="602"/>
      <point x="271" y="602" type="curve" smooth="yes"/>
      <point x="156" y="602" type="line"/>
      <point x="135" y="602" type="line" smooth="yes"/>
      <point x="98" y="602"/>
      <point x="82" y="582"/>
      <point x="64" y="489" type="curve"/>
      <point x="55" y="483"/>
      <point x="33" y="484"/>
      <point x="34" y="495" type="curve" smooth="yes"/>
      <point x="36" y="536"/>
      <point x="44" y="622"/>
      <point x="50" y="667" type="curve"/>
      <point x="60" y="678"/>
      <point x="78" y="672"/>
      <point x="80" y="667" type="curve" smooth="yes"/>
      <point x="88" y="649"/>
      <point x="119" y="650"/>
      <point x="136" y="650" type="curve" smooth="yes"/>
      <point x="243" y="652"/>
      <point x="449" y="651"/>
      <point x="548" y="650" type="curve" smooth="yes"/>
      <point x="598" y="649"/>
      <point x="599" y="651"/>
      <point x="606" y="667" type="curve" smooth="yes"/>
      <point x="609" y="674"/>
      <point x="631" y="670"/>
      <point x="636" y="667" type="curve"/>
    </contour>
  </outline>
</glyph>
<glyph name="X" format="1">
  <advance width="785"/>
  <unicode hex="0058"/>
  <outline>
    <contour>
      <point x="768" y="12" type="curve" smooth="yes"/>
      <point x="768" y="5"/>
      <point x="764" y="-2"/>
      <point x="758" y="-2" type="curve" smooth="yes"/>
      <point x="713" y="0"/>
      <point x="575" y="-1"/>
      <point x="491" y="-3" type="curve" smooth="yes"/>
      <point x="485" y="-3"/>
      <point x="478" y="-5"/>
      <point x="474" y="2" type="curve" smooth="yes"/>
      <point x="470" y="11"/>
      <point x="471" y="29"/>
      <point x="480" y="29" type="curve" smooth="yes"/>
      <point x="490" y="29" type="line" smooth="yes"/>
      <point x="530" y="29"/>
      <point x="543" y="37"/>
      <point x="543" y="50" type="curve" smooth="yes"/>
      <point x="542" y="66"/>
      <point x="520" y="93"/>
      <point x="511" y="105" type="curve" smooth="yes"/>
      <point x="384" y="278" type="line" smooth="yes"/>
      <point x="381" y="280"/>
      <point x="370" y="278"/>
      <point x="364" y="271" type="curve" smooth="yes"/>
      <point x="364" y="270"/>
      <point x="224" y="96"/>
      <point x="224" y="96" type="curve" smooth="yes"/>
      <point x="208" y="75"/>
      <point x="200" y="58"/>
      <point x="200" y="50" type="curve" smooth="yes"/>
      <point x="200" y="38"/>
      <point x="209" y="29"/>
      <point x="261" y="29" type="curve" smooth="yes"/>
      <point x="270" y="29" type="line" smooth="yes"/>
      <point x="285" y="29"/>
      <point x="286" y="-3"/>
      <point x="272" y="-3" type="curve" smooth="yes"/>
      <point x="219" y="-2"/>
      <point x="107" y="1"/>
      <point x="36" y="-2" type="curve" smooth="yes"/>
      <point x="30" y="-2"/>
      <point x="27" y="8"/>
      <point x="27" y="15" type="curve" smooth="yes"/>
      <point x="27" y="22"/>
      <point x="30" y="32"/>
      <point x="37" y="32" type="curve" smooth="yes"/>
      <point x="89" y="36"/>
      <point x="121" y="44"/>
      <point x="152" y="85" type="curve" smooth="yes"/>
      <point x="162" y="98"/>
      <point x="174" y="114"/>
      <point x="192" y="137" type="curve" smooth="yes"/>
      <point x="337" y="321" type="line" smooth="yes"/>
      <point x="340" y="324"/>
      <point x="341" y="333"/>
      <point x="339" y="336" type="curve" smooth="yes"/>
      <point x="193" y="524" type="line" smooth="yes"/>
      <point x="131" y="604"/>
      <point x="122" y="611"/>
      <point x="42" y="613" type="curve" smooth="yes"/>
      <point x="38" y="613"/>
      <point x="28" y="617"/>
      <point x="27" y="622" type="curve" smooth="yes"/>
      <point x="24" y="633"/>
      <point x="27" y="652"/>
      <point x="44" y="651" type="curve" smooth="yes"/>
      <point x="114" y="648"/>
      <point x="250" y="648"/>
      <point x="325" y="652" type="curve" smooth="yes"/>
      <point x="332" y="652"/>
      <point x="339" y="652"/>
      <point x="342" y="644" type="curve" smooth="yes"/>
      <point x="347" y="633"/>
      <point x="342" y="618"/>
      <point x="326" y="618" type="curve" smooth="yes"/>
      <point x="268" y="616"/>
      <point x="258" y="612"/>
      <point x="258" y="599" type="curve" smooth="yes"/>
      <point x="258" y="585"/>
      <point x="282" y="559"/>
      <point x="290" y="548" type="curve" smooth="yes"/>
      <point x="393" y="410" type="line" smooth="yes"/>
      <point x="399" y="402"/>
      <point x="408" y="409"/>
      <point x="413" y="416" type="curve" smooth="yes"/>
      <point x="450" y="465"/>
      <point x="494" y="520"/>
      <point x="529" y="572" type="curve" smooth="yes"/>
      <point x="550" y="603"/>
      <point x="539" y="618"/>
      <point x="506" y="618" type="curve" smooth="yes"/>
      <point x="482" y="618" type="line" smooth="yes"/>
      <point x="460" y="618"/>
      <point x="461" y="636"/>
      <point x="466" y="644" type="curve" smooth="yes"/>
      <point x="471" y="651"/>
      <point x="477" y="650"/>
      <point x="483" y="650" type="curve" smooth="yes"/>
      <point x="539" y="648"/>
      <point x="654" y="648"/>
      <point x="715" y="651" type="curve" smooth="yes"/>
      <point x="732" y="649"/>
      <point x="730" y="617"/>
      <point x="716" y="618" type="curve" smooth="yes"/>
      <point x="628" y="613"/>
      <point x="585" y="561"/>
      <point x="535" y="494" type="curve" smooth="yes"/>
      <point x="438" y="365" type="line" smooth="yes"/>
      <point x="434" y="359"/>
      <point x="438" y="353"/>
      <point x="439" y="351" type="curve" smooth="yes"/>
      <point x="615" y="121" type="line" smooth="yes"/>
      <point x="632" y="99"/>
      <point x="650" y="71"/>
      <point x="672" y="55" type="curve" smooth="yes"/>
      <point x="691" y="41"/>
      <point x="714" y="34"/>
      <point x="759" y="29" type="curve" smooth="yes"/>
      <point x="765" y="28"/>
      <point x="768" y="20"/>
    </contour>
  </outline>
</glyph>
<glyph name="Z" format="1">
  <advance width="705"/>
  <unicode hex="005A"/>
  <outline>
    <contour>
      <point x="636" y="195" type="curve" smooth="yes"/>
      <point x="634" y="145"/>
      <point x="628" y="56"/>
      <point x="623" y="10" type="curve" smooth="yes"/>
      <point x="621" y="0"/>
      <point x="599" y="-2"/>
      <point x="593" y="-2" type="curve" smooth="yes"/>
      <point x="521" y="-2"/>
      <point x="389" y="-3"/>
      <point x="275" y="-3" type="curve" smooth="yes"/>
      <point x="160" y="-3"/>
      <point x="61" y="-3"/>
      <point x="56" y="-2" type="curve" smooth="yes"/>
      <point x="47" y="-2"/>
      <point x="34" y="1"/>
      <point x="36" y="15" type="curve" smooth="yes"/>
      <point x="36" y="19"/>
      <point x="39" y="27"/>
      <point x="41" y="30" type="curve" smooth="yes"/>
      <point x="469" y="588" type="line" smooth="yes"/>
      <point x="476" y="598"/>
      <point x="459" y="602"/>
      <point x="454" y="602" type="curve" smooth="yes"/>
      <point x="240" y="602" type="line" smooth="yes"/>
      <point x="141" y="602"/>
      <point x="127" y="595"/>
      <point x="115" y="495" type="curve" smooth="yes"/>
      <point x="115" y="490"/>
      <point x="92" y="488"/>
      <point x="87" y="500" type="curve"/>
      <point x="87" y="536"/>
      <point x="88" y="606"/>
      <point x="92" y="640" type="curve" smooth="yes"/>
      <point x="94" y="647"/>
      <point x="107" y="649"/>
      <point x="114" y="650" type="curve" smooth="yes"/>
      <point x="590" y="650" type="line" smooth="yes"/>
      <point x="610" y="650"/>
      <point x="624" y="640"/>
      <point x="611" y="619" type="curve" smooth="yes"/>
      <point x="187" y="71" type="line" smooth="yes"/>
      <point x="181" y="65"/>
      <point x="172" y="48"/>
      <point x="211" y="48" type="curve" smooth="yes"/>
      <point x="465" y="48" type="line" smooth="yes"/>
      <point x="569" y="48"/>
      <point x="594" y="83"/>
      <point x="604" y="183" type="curve" smooth="yes"/>
      <point x="605" y="193" type="line"/>
      <point x="610" y="199"/>
      <point x="636" y="202"/>
    </contour>
  </outline>
</glyph>
<glyph name="underscore" format="1">
  <advance width="523"/>
  <unicode hex="005F"/>
  <outline>
    <contour>
      <point x="536" y="-220" type="line" smooth="yes"/>
      <point x="536" y="-228"/>
      <point x="532" y="-231"/>
      <point x="526" y="-232" type="curve" smooth="yes"/>
      <point x="519" y="-233"/>
      <point x="512" y="-232"/>
      <point x="505" y="-232" type="curve" smooth="yes"/>
      <point x="28" y="-232" type="line" smooth="yes"/>
      <point x="8" y="-232"/>
      <point x="-10" y="-230"/>
      <point x="-10" y="-214" type="curve" smooth="yes"/>
      <point x="-10" y="-187" type="line" smooth="yes"/>
      <point x="-10" y="-173"/>
      <point x="21" y="-180"/>
      <point x="61" y="-180" type="curve" smooth="yes"/>
      <point x="454" y="-180" type="line" smooth="yes"/>
      <point x="461" y="-180"/>
      <point x="505" y="-178"/>
      <point x="516" y="-179" type="curve" smooth="yes"/>
      <point x="527" y="-179"/>
      <point x="536" y="-182"/>
      <point x="536" y="-191" type="curve" smooth="yes"/>
    </contour>
  </outline>
</glyph>
<glyph name="b" format="1">
  <advance width="491"/>
  <unicode hex="0062"/>
  <outline>
    <contour>
      <point x="455" y="226" type="curve" smooth="yes"/>
      <point x="455" y="89"/>
      <point x="362" y="-15"/>
      <point x="228" y="-15" type="curve" smooth="yes"/>
      <point x="199" y="-15"/>
      <point x="141" y="-7"/>
      <point x="91" y="4" type="curve" smooth="yes"/>
      <point x="88" y="5"/>
      <point x="82" y="13"/>
      <point x="81" y="22" type="curve" smooth="yes"/>
      <point x="83" y="220"/>
      <point x="82" y="464"/>
      <point x="81" y="593" type="curve" smooth="yes"/>
      <point x="81" y="610"/>
      <point x="80" y="622"/>
      <point x="80" y="629" type="curve" smooth="yes"/>
      <point x="79" y="643"/>
      <point x="70" y="646"/>
      <point x="58" y="648" type="curve" smooth="yes"/>
      <point x="44" y="651"/>
      <point x="29" y="653"/>
      <point x="15" y="656" type="curve" smooth="yes"/>
      <point x="6" y="659"/>
      <point x="6" y="680"/>
      <point x="15" y="683" type="curve" smooth="yes"/>
      <point x="137" y="724" type="line" smooth="yes"/>
      <point x="153" y="729"/>
      <point x="157" y="724"/>
      <point x="156" y="707" type="curve" smooth="yes"/>
      <point x="154" y="626"/>
      <point x="155" y="470"/>
      <point x="156" y="385" type="curve" smooth="yes"/>
      <point x="157" y="377"/>
      <point x="159" y="357"/>
      <point x="166" y="362" type="curve" smooth="yes"/>
      <point x="200" y="386"/>
      <point x="252" y="426"/>
      <point x="295" y="426" type="curve" smooth="yes"/>
      <point x="385" y="426"/>
      <point x="455" y="335"/>
    </contour>
    <contour>
      <point x="380" y="197" type="curve" smooth="yes"/>
      <point x="380" y="299"/>
      <point x="327" y="369"/>
      <point x="257" y="369" type="curve" smooth="yes"/>
      <point x="228" y="369"/>
      <point x="200" y="351"/>
      <point x="156" y="319" type="curve"/>
      <point x="156" y="307"/>
      <point x="155" y="263"/>
      <point x="155" y="217" type="curve" smooth="yes"/>
      <point x="155" y="170"/>
      <point x="157" y="121"/>
      <point x="163" y="96" type="curve" smooth="yes"/>
      <point x="173" y="56"/>
      <point x="207" y="27"/>
      <point x="254" y="27" type="curve" smooth="yes"/>
      <point x="329" y="27"/>
      <point x="380" y="96"/>
    </contour>
  </outline>
</glyph>
<glyph name="c" format="1">
  <advance width="422"/>
  <unicode hex="0063"/>
  <outline>
    <contour>
      <point x="386" y="112" type="curve" smooth="yes"/>
      <point x="393" y="107"/>
      <point x="387" y="96"/>
      <point x="385" y="93" type="curve" smooth="yes"/>
      <point x="341" y="24"/>
      <point x="280" y="-12"/>
      <point x="208" y="-12" type="curve" smooth="yes"/>
      <point x="102" y="-12"/>
      <point x="25" y="75"/>
      <point x="25" y="193" type="curve" smooth="yes"/>
      <point x="25" y="326"/>
      <point x="133" y="432"/>
      <point x="267" y="432" type="curve" smooth="yes"/>
      <point x="330" y="432"/>
      <point x="386" y="407"/>
      <point x="386" y="368" type="curve" smooth="yes"/>
      <point x="386" y="347"/>
      <point x="370" y="331"/>
      <point x="350" y="331" type="curve" smooth="yes"/>
      <point x="329" y="331"/>
      <point x="314" y="341"/>
      <point x="288" y="366" type="curve" smooth="yes"/>
      <point x="266" y="388"/>
      <point x="251" y="394"/>
      <point x="231" y="394" type="curve" smooth="yes"/>
      <point x="165" y="394"/>
      <point x="105" y="313"/>
      <point x="105" y="216" type="curve" smooth="yes"/>
      <point x="105" y="113"/>
      <point x="164" y="42"/>
      <point x="243" y="42" type="curve" smooth="yes"/>
      <point x="294" y="42"/>
      <point x="333" y="68"/>
      <point x="361" y="109" type="curve" smooth="yes"/>
      <point x="363" y="115"/>
      <point x="371" y="123"/>
      <point x="378" y="121" type="curve" smooth="yes"/>
      <point x="384" y="118"/>
      <point x="382" y="117"/>
    </contour>
  </outline>
</glyph>
<glyph name="d" format="1">
  <advance width="513"/>
  <unicode hex="0064"/>
  <outline>
    <contour>
      <point x="498" y="62" type="curve" smooth="yes"/>
      <point x="501" y="53"/>
      <point x="500" y="41"/>
      <point x="495" y="39" type="curve" smooth="yes"/>
      <point x="462" y="23"/>
      <point x="395" y="-2"/>
      <point x="360" y="-11" type="curve" smooth="yes"/>
      <point x="335" y="-20"/>
      <point x="342" y="25"/>
      <point x="342" y="32" type="curve" smooth="yes"/>
      <point x="342" y="39"/>
      <point x="338" y="52"/>
      <point x="331" y="47" type="curve" smooth="yes"/>
      <point x="270" y="5"/>
      <point x="229" y="-15"/>
      <point x="190" y="-15" type="curve" smooth="yes"/>
      <point x="96" y="-15"/>
      <point x="23" y="78"/>
      <point x="23" y="191" type="curve" smooth="yes"/>
      <point x="23" y="324"/>
      <point x="120" y="427"/>
      <point x="248" y="427" type="curve" smooth="yes"/>
      <point x="273" y="427"/>
      <point x="304" y="420"/>
      <point x="331" y="411" type="curve" smooth="yes"/>
      <point x="336" y="410"/>
      <point x="342" y="422"/>
      <point x="342" y="436" type="curve" smooth="yes"/>
      <point x="345" y="510"/>
      <point x="343" y="586"/>
      <point x="342" y="637" type="curve" smooth="yes"/>
      <point x="340" y="643"/>
      <point x="341" y="649"/>
      <point x="334" y="653" type="curve" smooth="yes"/>
      <point x="321" y="661"/>
      <point x="296" y="659"/>
      <point x="280" y="661" type="curve" smooth="yes"/>
      <point x="274" y="662"/>
      <point x="270" y="661"/>
      <point x="269" y="668" type="curve" smooth="yes"/>
      <point x="268" y="673"/>
      <point x="267" y="677"/>
      <point x="268" y="682" type="curve" smooth="yes"/>
      <point x="269" y="687"/>
      <point x="272" y="690"/>
      <point x="278" y="691" type="curve" smooth="yes"/>
      <point x="313" y="702"/>
      <point x="364" y="719"/>
      <point x="404" y="734" type="curve" smooth="yes"/>
      <point x="416" y="739"/>
      <point x="421" y="730"/>
      <point x="421" y="716" type="curve" smooth="yes"/>
      <point x="421" y="117" type="line" smooth="yes"/>
      <point x="421" y="61"/>
      <point x="427" y="60"/>
      <point x="448" y="60" type="curve" smooth="yes"/>
      <point x="454" y="60"/>
      <point x="464" y="64"/>
      <point x="470" y="66" type="curve" smooth="yes"/>
      <point x="479" y="68"/>
      <point x="494" y="75"/>
    </contour>
    <contour>
      <point x="341" y="106" type="curve" smooth="yes"/>
      <point x="341" y="311" type="line"/>
      <point x="304" y="364"/>
      <point x="271" y="387"/>
      <point x="226" y="387" type="curve" smooth="yes"/>
      <point x="152" y="387"/>
      <point x="103" y="320"/>
      <point x="103" y="222" type="curve" smooth="yes"/>
      <point x="103" y="119"/>
      <point x="157" y="42"/>
      <point x="227" y="42" type="curve" smooth="yes"/>
      <point x="254" y="42"/>
      <point x="291" y="56"/>
      <point x="331" y="83" type="curve" smooth="yes"/>
      <point x="335" y="85"/>
      <point x="340" y="95"/>
    </contour>
  </outline>
</glyph>
<glyph name="i" format="1">
  <advance width="266"/>
  <unicode hex="0069"/>
  <outline>
    <contour>
      <point x="180" y="613" type="curve" smooth="yes"/>
      <point x="180" y="584"/>
      <point x="156" y="562"/>
      <point x="125" y="562" type="curve" smooth="yes"/>
      <point x="93" y="562"/>
      <point x="74" y="584"/>
      <point x="74" y="613" type="curve" smooth="yes"/>
      <point x="74" y="642"/>
      <point x="96" y="665"/>
      <point x="126" y="665" type="curve" smooth="yes"/>
      <point x="158" y="665"/>
      <point x="180" y="644"/>
    </contour>
    <contour>
      <point x="247" y="23" type="curve" smooth="yes"/>
      <point x="247" y="20"/>
      <point x="246" y="16"/>
      <point x="246" y="13" type="curve" smooth="yes"/>
      <point x="246" y="3"/>
      <point x="243" y="-3"/>
      <point x="232" y="-3" type="curve" smooth="yes"/>
      <point x="181" y="-2"/>
      <point x="83" y="-1"/>
      <point x="32" y="-3" type="curve" smooth="yes"/>
      <point x="25" y="-3"/>
      <point x="22" y="0"/>
      <point x="21" y="5" type="curve"/>
      <point x="20" y="4"/>
      <point x="20" y="16"/>
      <point x="20" y="18" type="curve" smooth="yes"/>
      <point x="19" y="26"/>
      <point x="28" y="32"/>
      <point x="35" y="33" type="curve" smooth="yes"/>
      <point x="44" y="34"/>
      <point x="47" y="32"/>
      <point x="56" y="33" type="curve" smooth="yes"/>
      <point x="99" y="38"/>
      <point x="100" y="48"/>
      <point x="100" y="125" type="curve" smooth="yes"/>
      <point x="100" y="304" type="line" smooth="yes"/>
      <point x="100" y="354"/>
      <point x="98" y="354"/>
      <point x="73" y="359" type="curve" smooth="yes"/>
      <point x="58" y="362"/>
      <point x="46" y="365"/>
      <point x="32" y="370" type="curve" smooth="yes"/>
      <point x="25" y="372"/>
      <point x="25" y="391"/>
      <point x="31" y="395" type="curve" smooth="yes"/>
      <point x="61" y="406"/>
      <point x="124" y="433"/>
      <point x="153" y="439" type="curve" smooth="yes"/>
      <point x="176" y="447"/>
      <point x="178" y="429"/>
      <point x="178" y="413" type="curve" smooth="yes"/>
      <point x="178" y="125" type="line" smooth="yes"/>
      <point x="178" y="104"/>
      <point x="178" y="87"/>
      <point x="179" y="73" type="curve" smooth="yes"/>
      <point x="181" y="35"/>
      <point x="188" y="34"/>
      <point x="229" y="34" type="curve" smooth="yes"/>
      <point x="236" y="37"/>
      <point x="246" y="30"/>
    </contour>
  </outline>
</glyph>
<glyph name="j" format="1">
  <advance width="247"/>
  <unicode hex="006A"/>
  <outline>
    <contour>
      <point x="171" y="603" type="curve" smooth="yes"/>
      <point x="171" y="574"/>
      <point x="148" y="551"/>
      <point x="117" y="551" type="curve" smooth="yes"/>
      <point x="85" y="551"/>
      <point x="62" y="574"/>
      <point x="62" y="603" type="curve" smooth="yes"/>
      <point x="62" y="632"/>
      <point x="86" y="654"/>
      <point x="117" y="654" type="curve" smooth="yes"/>
      <point x="149" y="654"/>
      <point x="171" y="632"/>
    </contour>
    <contour>
      <point x="170" y="25" type="line" smooth="yes"/>
      <point x="170" y="-62"/>
      <point x="167" y="-91"/>
      <point x="150" y="-133" type="curve" smooth="yes"/>
      <point x="140" y="-157"/>
      <point x="126" y="-178"/>
      <point x="109" y="-196" type="curve" smooth="yes"/>
      <point x="78" y="-230"/>
      <point x="39" y="-244"/>
      <point x="-9" y="-244" type="curve" smooth="yes"/>
      <point x="-66" y="-244"/>
      <point x="-107" y="-220"/>
      <point x="-107" y="-186" type="curve" smooth="yes"/>
      <point x="-107" y="-159"/>
      <point x="-92" y="-133"/>
      <point x="-71" y="-133" type="curve" smooth="yes"/>
      <point x="-55" y="-133"/>
      <point x="-40" y="-151"/>
      <point x="-30" y="-163" type="curve" smooth="yes"/>
      <point x="-16" y="-179"/>
      <point x="6" y="-195"/>
      <point x="29" y="-195" type="curve" smooth="yes"/>
      <point x="72" y="-195"/>
      <point x="93" y="-162"/>
      <point x="93" y="-75" type="curve" smooth="yes"/>
      <point x="93" y="-13" type="line"/>
      <point x="93" y="308" type="line" smooth="yes"/>
      <point x="93" y="353"/>
      <point x="91" y="354"/>
      <point x="83" y="359" type="curve" smooth="yes"/>
      <point x="77" y="362"/>
      <point x="66" y="365"/>
      <point x="55" y="367" type="curve" smooth="yes"/>
      <point x="44" y="370"/>
      <point x="32" y="372"/>
      <point x="24" y="374" type="curve" smooth="yes"/>
      <point x="18" y="376"/>
      <point x="18" y="396"/>
      <point x="24" y="399" type="curve" smooth="yes"/>
      <point x="31" y="402"/>
      <point x="80" y="423"/>
      <point x="148" y="445" type="curve" smooth="yes"/>
      <point x="165" y="451"/>
      <point x="170" y="435"/>
      <point x="170" y="425" type="curve" smooth="yes"/>
    </contour>
  </outline>
</glyph>
<glyph name="l" format="1">
  <advance width="262"/>
  <unicode hex="006C"/>
  <outline>
    <contour>
      <point x="247" y="13" type="curve" smooth="yes"/>
      <point x="247" y="4"/>
      <point x="244" y="-3"/>
      <point x="235" y="-3" type="curve" smooth="yes"/>
      <point x="133" y="-6"/>
      <point x="101" y="0"/>
      <point x="30" y="-2" type="curve" smooth="yes"/>
      <point x="28" y="-2"/>
      <point x="19" y="2"/>
      <point x="18" y="6" type="curve" smooth="yes"/>
      <point x="16" y="13"/>
      <point x="16" y="27"/>
      <point x="24" y="31" type="curve"/>
      <point x="35" y="31" type="line" smooth="yes"/>
      <point x="88" y="31"/>
      <point x="96" y="44"/>
      <point x="96" y="97" type="curve" smooth="yes"/>
      <point x="96" y="623" type="line" smooth="yes"/>
      <point x="96" y="635"/>
      <point x="90" y="639"/>
      <point x="80" y="641" type="curve" smooth="yes"/>
      <point x="63" y="644"/>
      <point x="47" y="647"/>
      <point x="30" y="650" type="curve" smooth="yes"/>
      <point x="22" y="652"/>
      <point x="19" y="674"/>
      <point x="30" y="678" type="curve" smooth="yes"/>
      <point x="57" y="685"/>
      <point x="104" y="698"/>
      <point x="162" y="720" type="curve" smooth="yes"/>
      <point x="171" y="721"/>
      <point x="176" y="707"/>
      <point x="176" y="699" type="curve" smooth="yes"/>
      <point x="176" y="98" type="line" smooth="yes"/>
      <point x="176" y="39"/>
      <point x="179" y="31"/>
      <point x="228" y="31" type="curve" smooth="yes"/>
      <point x="233" y="31"/>
      <point x="246" y="33"/>
      <point x="247" y="25" type="curve" smooth="yes"/>
      <point x="248" y="22"/>
      <point x="247" y="16"/>
    </contour>
  </outline>
</glyph>
<glyph name="n" format="1">
  <advance width="516"/>
  <unicode hex="006E"/>
  <outline>
    <contour>
      <point x="501" y="7" type="curve" smooth="yes"/>
      <point x="499" y="-3"/>
      <point x="497" y="-2"/>
      <point x="486" y="-2" type="curve" smooth="yes"/>
      <point x="436" y="-3"/>
      <point x="348" y="0"/>
      <point x="296" y="-2" type="curve" smooth="yes"/>
      <point x="283" y="-2"/>
      <point x="281" y="1"/>
      <point x="280" y="14" type="curve" smooth="yes"/>
      <point x="280" y="21"/>
      <point x="282" y="31"/>
      <point x="288" y="31" type="curve" smooth="yes"/>
      <point x="295" y="31" type="line"/>
      <point x="339" y="35"/>
      <point x="352" y="46"/>
      <point x="356" y="87" type="curve" smooth="yes"/>
      <point x="362" y="145"/>
      <point x="362" y="204"/>
      <point x="362" y="263" type="curve" smooth="yes"/>
      <point x="362" y="340"/>
      <point x="337" y="374"/>
      <point x="289" y="374" type="curve" smooth="yes"/>
      <point x="261" y="374"/>
      <point x="210" y="349"/>
      <point x="166" y="315" type="curve"/>
      <point x="166" y="89" type="line" smooth="yes"/>
      <point x="166" y="37"/>
      <point x="177" y="31"/>
      <point x="227" y="31" type="curve" smooth="yes"/>
      <point x="232" y="31"/>
      <point x="235" y="21"/>
      <point x="236" y="14" type="curve" smooth="yes"/>
      <point x="236" y="2"/>
      <point x="233" y="-2"/>
      <point x="222" y="-3" type="curve" smooth="yes"/>
      <point x="171" y="-1"/>
      <point x="84" y="-5"/>
      <point x="31" y="-2" type="curve" smooth="yes"/>
      <point x="27" y="-2"/>
      <point x="19" y="-2"/>
      <point x="17" y="3" type="curve" smooth="yes"/>
      <point x="14" y="12"/>
      <point x="15" y="29"/>
      <point x="25" y="29" type="curve" smooth="yes"/>
      <point x="31" y="29" type="line" smooth="yes"/>
      <point x="77" y="29"/>
      <point x="88" y="43"/>
      <point x="88" y="133" type="curve" smooth="yes"/>
      <point x="88" y="270" type="line" smooth="yes"/>
      <point x="88" y="328"/>
      <point x="87" y="345"/>
      <point x="84" y="351" type="curve" smooth="yes"/>
      <point x="81" y="358"/>
      <point x="76" y="361"/>
      <point x="45" y="367" type="curve" smooth="yes"/>
      <point x="25" y="371" type="line" smooth="yes"/>
      <point x="18" y="372"/>
      <point x="18" y="395"/>
      <point x="25" y="398" type="curve" smooth="yes"/>
      <point x="57" y="403"/>
      <point x="106" y="433"/>
      <point x="143" y="441" type="curve" smooth="yes"/>
      <point x="159" y="445"/>
      <point x="166" y="436"/>
      <point x="166" y="424" type="curve" smooth="yes"/>
      <point x="166" y="369" type="line" smooth="yes"/>
      <point x="166" y="367"/>
      <point x="171" y="353"/>
      <point x="177" y="357" type="curve" smooth="yes"/>
      <point x="207" y="378"/>
      <point x="228" y="392"/>
      <point x="260" y="408" type="curve" smooth="yes"/>
      <point x="287" y="421"/>
      <point x="309" y="428"/>
      <point x="330" y="428" type="curve" smooth="yes"/>
      <point x="430" y="428"/>
      <point x="441" y="321"/>
      <point x="441" y="248" type="curve" smooth="yes"/>
      <point x="441" y="188"/>
      <point x="433" y="128"/>
      <point x="433" y="67" type="curve" smooth="yes"/>
      <point x="433" y="38"/>
      <point x="436" y="31"/>
      <point x="483" y="31" type="curve" smooth="yes"/>
      <point x="488" y="34"/>
      <point x="495" y="33"/>
      <point x="499" y="28" type="curve" smooth="yes"/>
      <point x="502" y="23"/>
      <point x="503" y="14"/>
    </contour>
  </outline>
</glyph>
<glyph name="w" format="1">
  <advance width="753"/>
  <unicode hex="0077"/>
  <outline>
    <contour>
      <point x="740" y="386" type="curve" smooth="yes"/>
      <point x="713" y="383"/>
      <point x="700" y="381"/>
      <point x="689" y="366" type="curve" smooth="yes"/>
      <point x="684" y="358"/>
      <point x="676" y="339"/>
      <point x="668" y="320" type="curve" smooth="yes"/>
      <point x="625" y="214"/>
      <point x="583" y="109"/>
      <point x="540" y="2" type="curve" smooth="yes"/>
      <point x="536" y="-9"/>
      <point x="536" y="-9"/>
      <point x="523" y="-11" type="curve" smooth="yes"/>
      <point x="518" y="-12"/>
      <point x="510" y="-15"/>
      <point x="504" y="-13" type="curve" smooth="yes"/>
      <point x="498" y="-12"/>
      <point x="496" y="-10"/>
      <point x="494" y="-5" type="curve" smooth="yes"/>
      <point x="492" y="0" type="line"/>
      <point x="384" y="261" type="line" smooth="yes"/>
      <point x="380" y="268"/>
      <point x="376" y="258"/>
      <point x="374" y="254" type="curve" smooth="yes"/>
      <point x="267" y="2" type="line" smooth="yes"/>
      <point x="265" y="-5"/>
      <point x="261" y="-10"/>
      <point x="254" y="-11" type="curve" smooth="yes"/>
      <point x="252" y="-12"/>
      <point x="250" y="-12"/>
      <point x="248" y="-12" type="curve" smooth="yes"/>
      <point x="245" y="-12"/>
      <point x="241" y="-12"/>
      <point x="237" y="-12" type="curve" smooth="yes"/>
      <point x="234" y="-12"/>
      <point x="230" y="-12"/>
      <point x="228" y="-11" type="curve" smooth="yes"/>
      <point x="223" y="-10"/>
      <point x="221" y="-8"/>
      <point x="219" y="-4" type="curve" smooth="yes"/>
      <point x="217" y="1" type="line"/>
      <point x="95" y="302" type="line" smooth="yes"/>
      <point x="65" y="377"/>
      <point x="58" y="383"/>
      <point x="8" y="386" type="curve" smooth="yes"/>
      <point x="0" y="387"/>
      <point x="1" y="405"/>
      <point x="3" y="411" type="curve" smooth="yes"/>
      <point x="5" y="419"/>
      <point x="11" y="417"/>
      <point x="17" y="416" type="curve" smooth="yes"/>
      <point x="54" y="416"/>
      <point x="95" y="411"/>
      <point x="198" y="416" type="curve" smooth="yes"/>
      <point x="207" y="416"/>
      <point x="212" y="420"/>
      <point x="215" y="408" type="curve" smooth="yes"/>
      <point x="218" y="400"/>
      <point x="217" y="387"/>
      <point x="209" y="387" type="curve" smooth="yes"/>
      <point x="166" y="385"/>
      <point x="158" y="375"/>
      <point x="158" y="364" type="curve" smooth="yes"/>
      <point x="158" y="353"/>
      <point x="179" y="299"/>
      <point x="201" y="243" type="curve" smooth="yes"/>
      <point x="223" y="187"/>
      <point x="247" y="130"/>
      <point x="255" y="111" type="curve" smooth="yes"/>
      <point x="257" y="106"/>
      <point x="266" y="94"/>
      <point x="270" y="103" type="curve" smooth="yes"/>
      <point x="360" y="314" type="line"/>
      <point x="360" y="313" type="line"/>
      <point x="351" y="331"/>
      <point x="342" y="353"/>
      <point x="328" y="367" type="curve" smooth="yes"/>
      <point x="314" y="381"/>
      <point x="302" y="384"/>
      <point x="284" y="385" type="curve" smooth="yes"/>
      <point x="278" y="385"/>
      <point x="272" y="386"/>
      <point x="265" y="386" type="curve" smooth="yes"/>
      <point x="261" y="386"/>
      <point x="258" y="394"/>
      <point x="258" y="401" type="curve" smooth="yes"/>
      <point x="257" y="409"/>
      <point x="259" y="417"/>
      <point x="263" y="417" type="curve" smooth="yes"/>
      <point x="309" y="416"/>
      <point x="391" y="410"/>
      <point x="466" y="416" type="curve" smooth="yes"/>
      <point x="475" y="417"/>
      <point x="482" y="419"/>
      <point x="485" y="409" type="curve" smooth="yes"/>
      <point x="488" y="401"/>
      <point x="486" y="388"/>
      <point x="483" y="386" type="curve" smooth="yes"/>
      <point x="440" y="385"/>
      <point x="430" y="376"/>
      <point x="430" y="360" type="curve" smooth="yes"/>
      <point x="430" y="351"/>
      <point x="433" y="340"/>
      <point x="445" y="311" type="curve" smooth="yes"/>
      <point x="529" y="108" type="line" smooth="yes"/>
      <point x="532" y="100"/>
      <point x="542" y="111"/>
      <point x="544" y="116" type="curve" smooth="yes"/>
      <point x="547" y="123"/>
      <point x="626" y="311"/>
      <point x="631" y="338" type="curve" smooth="yes"/>
      <point x="638" y="374"/>
      <point x="617" y="383"/>
      <point x="588" y="385" type="curve" smooth="yes"/>
      <point x="579" y="385"/>
      <point x="569" y="385"/>
      <point x="559" y="386" type="curve" smooth="yes"/>
      <point x="553" y="388"/>
      <point x="548" y="417"/>
      <point x="561" y="417" type="curve" smooth="yes"/>
      <point x="604" y="416"/>
      <point x="676" y="416"/>
      <point x="735" y="417" type="curve" smooth="yes"/>
      <point x="750" y="420"/>
      <point x="747" y="387"/>
    </contour>
  </outline>
</glyph>
<glyph name="braceright" format="1">
  <advance width="501"/>
  <unicode hex="007D"/>
  <outline>
    <contour>
      <point x="399" y="233" type="curve" smooth="yes"/>
      <point x="399" y="222"/>
      <point x="398" y="216"/>
      <point x="387" y="214" type="curve" smooth="yes"/>
      <point x="322" y="199"/>
      <point x="285" y="160"/>
      <point x="285" y="114" type="curve" smooth="yes"/>
      <point x="285" y="87"/>
      <point x="291" y="61"/>
      <point x="297" y="35" type="curve" smooth="yes"/>
      <point x="303" y="9"/>
      <point x="309" y="-17"/>
      <point x="309" y="-44" type="curve" smooth="yes"/>
      <point x="309" y="-144"/>
      <point x="233" y="-227"/>
      <point x="125" y="-247" type="curve" smooth="yes"/>
      <point x="116" y="-249"/>
      <point x="104" y="-245"/>
      <point x="106" y="-237" type="curve" smooth="yes"/>
      <point x="106" y="-234"/>
      <point x="107" y="-229"/>
      <point x="107" y="-226" type="curve" smooth="yes"/>
      <point x="108" y="-222"/>
      <point x="110" y="-219"/>
      <point x="114" y="-218" type="curve" smooth="yes"/>
      <point x="186" y="-203"/>
      <point x="224" y="-160"/>
      <point x="224" y="-103" type="curve" smooth="yes"/>
      <point x="224" y="-48"/>
      <point x="203" y="4"/>
      <point x="203" y="59" type="curve" smooth="yes"/>
      <point x="203" y="104"/>
      <point x="223" y="146"/>
      <point x="259" y="181" type="curve" smooth="yes"/>
      <point x="280" y="202"/>
      <point x="295" y="213"/>
      <point x="321" y="224" type="curve" smooth="yes"/>
      <point x="329" y="228"/>
      <point x="328" y="235"/>
      <point x="320" y="239" type="curve" smooth="yes"/>
      <point x="245" y="277"/>
      <point x="203" y="334"/>
      <point x="203" y="402" type="curve" smooth="yes"/>
      <point x="203" y="454"/>
      <point x="223" y="508"/>
      <point x="223" y="562" type="curve" smooth="yes"/>
      <point x="223" y="618"/>
      <point x="189" y="660"/>
      <point x="118" y="680" type="curve" smooth="yes"/>
      <point x="114" y="681"/>
      <point x="104" y="688"/>
      <point x="106" y="697" type="curve" smooth="yes"/>
      <point x="106" y="702"/>
      <point x="107" y="712"/>
      <point x="114" y="711" type="curve" smooth="yes"/>
      <point x="229" y="693"/>
      <point x="308" y="609"/>
      <point x="308" y="507" type="curve" smooth="yes"/>
      <point x="308" y="454"/>
      <point x="284" y="404"/>
      <point x="284" y="351" type="curve" smooth="yes"/>
      <point x="284" y="303"/>
      <point x="319" y="265"/>
      <point x="385" y="249" type="curve" smooth="yes"/>
      <point x="392" y="247"/>
      <point x="399" y="240"/>
    </contour>
  </outline>
</glyph>
<glyph name="exclamdown" format="1">
  <advance width="272"/>
  <unicode hex="00A1"/>
  <outline>
    <contour>
      <point x="195" y="379" type="curve" smooth="yes"/>
      <point x="195" y="346"/>
      <point x="170" y="322"/>
      <point x="137" y="322" type="curve" smooth="yes"/>
      <point x="104" y="322"/>
      <point x="79" y="346"/>
      <point x="79" y="379" type="curve" smooth="yes"/>
      <point x="79" y="410"/>
      <point x="104" y="434"/>
      <point x="137" y="434" type="curve" smooth="yes"/>
      <point x="170" y="434"/>
      <point x="195" y="411"/>
    </contour>
    <contour>
      <point x="190" y="-209" type="line" smooth="yes"/>
      <point x="192" y="-237"/>
      <point x="190" y="-249"/>
      <point x="155" y="-249" type="curve" smooth="yes"/>
      <point x="123" y="-249" type="line" smooth="yes"/>
      <point x="85" y="-249"/>
      <point x="84" y="-236"/>
      <point x="86" y="-208" type="curve" smooth="yes"/>
      <point x="123" y="255" type="line" smooth="yes"/>
      <point x="126" y="262"/>
      <point x="147" y="262"/>
      <point x="150" y="255" type="curve" smooth="yes"/>
    </contour>
  </outline>
</glyph>
<glyph name="sterling" format="1">
  <advance width="796"/>
  <unicode hex="00A3"/>
  <outline>
    <contour>
      <point x="776" y="618" type="curve" smooth="yes"/>
      <point x="776" y="596"/>
      <point x="758" y="580"/>
      <point x="736" y="580" type="curve" smooth="yes"/>
      <point x="717" y="580"/>
      <point x="704" y="591"/>
      <point x="692" y="603" type="curve" smooth="yes"/>
      <point x="687" y="607"/>
      <point x="683" y="611"/>
      <point x="679" y="616" type="curve" smooth="yes"/>
      <point x="661" y="634"/>
      <point x="641" y="651"/>
      <point x="607" y="651" type="curve" smooth="yes"/>
      <point x="580" y="651"/>
      <point x="548" y="633"/>
      <point x="525" y="602" type="curve" smooth="yes"/>
      <point x="499" y="568"/>
      <point x="477" y="528"/>
      <point x="443" y="442" type="curve" smooth="yes"/>
      <point x="399" y="333"/>
      <point x="356" y="224"/>
      <point x="307" y="118" type="curve" smooth="yes"/>
      <point x="303" y="109"/>
      <point x="302" y="100"/>
      <point x="312" y="99" type="curve" smooth="yes"/>
      <point x="314" y="99"/>
      <point x="316" y="99"/>
      <point x="316" y="99" type="curve"/>
      <point x="448" y="100" type="line" smooth="yes"/>
      <point x="454" y="100"/>
      <point x="458" y="100"/>
      <point x="461" y="100" type="curve" smooth="yes"/>
      <point x="471" y="100"/>
      <point x="472" y="97"/>
      <point x="470" y="87" type="curve" smooth="yes"/>
      <point x="467" y="74" type="line" smooth="yes"/>
      <point x="466" y="68"/>
      <point x="461" y="60"/>
      <point x="444" y="60" type="curve" smooth="yes"/>
      <point x="279" y="62" type="line"/>
      <point x="253" y="10"/>
      <point x="233" y="-24"/>
      <point x="204" y="-62" type="curve"/>
      <point x="234" y="-48"/>
      <point x="268" y="-42"/>
      <point x="302" y="-42" type="curve" smooth="yes"/>
      <point x="369" y="-42"/>
      <point x="418" y="-74"/>
      <point x="463" y="-107" type="curve" smooth="yes"/>
      <point x="484" y="-123"/>
      <point x="506" y="-139"/>
      <point x="529" y="-152" type="curve" smooth="yes"/>
      <point x="551" y="-165"/>
      <point x="573" y="-173"/>
      <point x="598" y="-173" type="curve" smooth="yes"/>
      <point x="647" y="-173"/>
      <point x="685" y="-140"/>
      <point x="685" y="-101" type="curve" smooth="yes"/>
      <point x="685" y="-91"/>
      <point x="681" y="-78"/>
      <point x="669" y="-57" type="curve" smooth="yes"/>
      <point x="660" y="-42"/>
      <point x="656" y="-34"/>
      <point x="656" y="-22" type="curve" smooth="yes"/>
      <point x="656" y="2"/>
      <point x="674" y="20"/>
      <point x="697" y="20" type="curve" smooth="yes"/>
      <point x="729" y="20"/>
      <point x="750" y="-14"/>
      <point x="750" y="-55" type="curve" smooth="yes"/>
      <point x="750" y="-149"/>
      <point x="652" y="-235"/>
      <point x="550" y="-235" type="curve" smooth="yes"/>
      <point x="515" y="-235"/>
      <point x="475" y="-224"/>
      <point x="444" y="-204" type="curve" smooth="yes"/>
      <point x="430" y="-195"/>
      <point x="415" y="-183"/>
      <point x="399" y="-170" type="curve" smooth="yes"/>
      <point x="384" y="-158"/>
      <point x="368" y="-144"/>
      <point x="352" y="-132" type="curve" smooth="yes"/>
      <point x="320" y="-108"/>
      <point x="287" y="-88"/>
      <point x="251" y="-88" type="curve" smooth="yes"/>
      <point x="226" y="-88"/>
      <point x="207" y="-94"/>
      <point x="175" y="-109" type="curve"/>
      <point x="172" y="-111" type="line"/>
      <point x="136" y="-183"/>
      <point x="87" y="-234"/>
      <point x="49" y="-234" type="curve" smooth="yes"/>
      <point x="31" y="-234"/>
      <point x="15" y="-221"/>
      <point x="15" y="-203" type="curve" smooth="yes"/>
      <point x="15" y="-165"/>
      <point x="75" y="-111"/>
      <point x="138" y="-85" type="curve"/>
      <point x="162" y="-42"/>
      <point x="171" y="-23"/>
      <point x="192" y="32" type="curve" smooth="yes"/>
      <point x="198" y="48" type="line" smooth="yes"/>
      <point x="200" y="52"/>
      <point x="197" y="62"/>
      <point x="188" y="62" type="curve" smooth="yes"/>
      <point x="72" y="62" type="line" smooth="yes"/>
      <point x="68" y="62"/>
      <point x="60" y="61"/>
      <point x="57" y="63" type="curve" smooth="yes"/>
      <point x="54" y="64"/>
      <point x="52" y="67"/>
      <point x="54" y="75" type="curve" smooth="yes"/>
      <point x="57" y="90"/>
      <point x="56" y="99"/>
      <point x="75" y="99" type="curve" smooth="yes"/>
      <point x="217" y="99" type="line"/>
      <point x="242" y="165"/>
      <point x="265" y="234"/>
      <point x="292" y="302" type="curve" smooth="yes"/>
      <point x="318" y="369"/>
      <point x="347" y="436"/>
      <point x="383" y="497" type="curve" smooth="yes"/>
      <point x="439" y="593"/>
      <point x="525" y="699"/>
      <point x="647" y="699" type="curve" smooth="yes"/>
      <point x="713" y="699"/>
      <point x="776" y="665"/>
    </contour>
  </outline>
</glyph>
<glyph name="currency" format="1">
  <advance width="698"/>
  <unicode hex="00A4"/>
  <outline>
    <contour>
      <point x="600" y="133" type="line"/>
      <point x="554" y="87" type="line"/>
      <point x="491" y="152" type="line"/>
      <point x="438" y="113"/>
      <point x="411" y="104"/>
      <point x="349" y="104" type="curve" smooth="yes"/>
      <point x="287" y="104"/>
      <point x="260" y="113"/>
      <point x="212" y="152" type="curve"/>
      <point x="146" y="87" type="line"/>
      <point x="101" y="133" type="line"/>
      <point x="166" y="198" type="line"/>
      <point x="128" y="256"/>
      <point x="120" y="283"/>
      <point x="120" y="342" type="curve" smooth="yes"/>
      <point x="120" y="400"/>
      <point x="129" y="428"/>
      <point x="166" y="479" type="curve"/>
      <point x="101" y="544" type="line"/>
      <point x="146" y="591" type="line"/>
      <point x="212" y="525" type="line"/>
      <point x="261" y="564"/>
      <point x="289" y="573"/>
      <point x="350" y="573" type="curve" smooth="yes"/>
      <point x="412" y="573"/>
      <point x="439" y="564"/>
      <point x="491" y="525" type="curve"/>
      <point x="554" y="591" type="line"/>
      <point x="600" y="544" type="line"/>
      <point x="536" y="479" type="line"/>
      <point x="573" y="426"/>
      <point x="583" y="398"/>
      <point x="583" y="336" type="curve" smooth="yes"/>
      <point x="583" y="273"/>
      <point x="574" y="246"/>
      <point x="536" y="198" type="curve"/>
    </contour>
    <contour>
      <point x="517" y="338" type="curve" smooth="yes"/>
      <point x="517" y="432"/>
      <point x="443" y="507"/>
      <point x="352" y="507" type="curve" smooth="yes"/>
      <point x="260" y="507"/>
      <point x="185" y="432"/>
      <point x="185" y="339" type="curve" smooth="yes"/>
      <point x="185" y="245"/>
      <point x="258" y="170"/>
      <point x="349" y="170" type="curve" smooth="yes"/>
      <point x="442" y="170"/>
      <point x="517" y="245"/>
    </contour>
  </outline>
</glyph>
<glyph name="yen" format="1">
  <advance width="523"/>
  <unicode hex="00A5"/>
  <outline>
    <contour>
      <point x="528" y="674" type="curve" smooth="yes"/>
      <point x="528" y="670"/>
      <point x="522" y="669"/>
      <point x="519" y="669" type="curve" smooth="yes"/>
      <point x="483" y="669"/>
      <point x="466" y="657"/>
      <point x="439" y="594" type="curve" smooth="yes"/>
      <point x="421" y="552" type="line" smooth="yes"/>
      <point x="419" y="548"/>
      <point x="419" y="542"/>
      <point x="437" y="542" type="curve" smooth="yes"/>
      <point x="512" y="542" type="line" smooth="yes"/>
      <point x="523" y="542"/>
      <point x="527" y="534"/>
      <point x="527" y="528" type="curve" smooth="yes"/>
      <point x="527" y="508" type="line" smooth="yes"/>
      <point x="527" y="497"/>
      <point x="523" y="492"/>
      <point x="512" y="492" type="curve" smooth="yes"/>
      <point x="409" y="492" type="line" smooth="yes"/>
      <point x="401" y="492"/>
      <point x="395" y="489"/>
      <point x="392" y="482" type="curve" smooth="yes"/>
      <point x="361" y="414" type="line" smooth="yes"/>
      <point x="357" y="405"/>
      <point x="367" y="399"/>
      <point x="377" y="399" type="curve" smooth="yes"/>
      <point x="514" y="401" type="line" smooth="yes"/>
      <point x="521" y="399"/>
      <point x="527" y="397"/>
      <point x="527" y="388" type="curve" smooth="yes"/>
      <point x="527" y="363" type="line" smooth="yes"/>
      <point x="527" y="354"/>
      <point x="520" y="349"/>
      <point x="507" y="349" type="curve" smooth="yes"/>
      <point x="359" y="350" type="line" smooth="yes"/>
      <point x="351" y="350"/>
      <point x="345" y="350"/>
      <point x="339" y="349" type="curve" smooth="yes"/>
      <point x="334" y="349"/>
      <point x="331" y="347"/>
      <point x="329" y="343" type="curve" smooth="yes"/>
      <point x="311" y="302" type="line"/>
      <point x="311" y="126" type="line" smooth="yes"/>
      <point x="311" y="42"/>
      <point x="322" y="31"/>
      <point x="372" y="31" type="curve" smooth="yes"/>
      <point x="383" y="31" type="line" smooth="yes"/>
      <point x="393" y="31"/>
      <point x="398" y="26"/>
      <point x="398" y="18" type="curve" smooth="yes"/>
      <point x="398" y="6" type="line" smooth="yes"/>
      <point x="398" y="-5"/>
      <point x="397" y="-5"/>
      <point x="382" y="-4" type="curve" smooth="yes"/>
      <point x="308" y="0"/>
      <point x="190" y="-1"/>
      <point x="138" y="-4" type="curve" smooth="yes"/>
      <point x="130" y="-4"/>
      <point x="124" y="0"/>
      <point x="125" y="6" type="curve" smooth="yes"/>
      <point x="126" y="19" type="line" smooth="yes"/>
      <point x="127" y="27"/>
      <point x="130" y="30"/>
      <point x="139" y="30" type="curve" smooth="yes"/>
      <point x="148" y="30" type="line" smooth="yes"/>
      <point x="205" y="30"/>
      <point x="214" y="37"/>
      <point x="214" y="126" type="curve" smooth="yes"/>
      <point x="214" y="291" type="line"/>
      <point x="192" y="340" type="line" smooth="yes"/>
      <point x="189" y="347"/>
      <point x="185" y="350"/>
      <point x="178" y="350" type="curve" smooth="yes"/>
      <point x="176" y="350"/>
      <point x="173" y="350"/>
      <point x="171" y="350" type="curve" smooth="yes"/>
      <point x="17" y="350" type="line" smooth="yes"/>
      <point x="8" y="350"/>
      <point x="-1" y="353"/>
      <point x="-1" y="366" type="curve" smooth="yes"/>
      <point x="-1" y="390" type="line" smooth="yes"/>
      <point x="-1" y="400"/>
      <point x="6" y="401"/>
      <point x="19" y="401" type="curve" smooth="yes"/>
      <point x="142" y="399" type="line" smooth="yes"/>
      <point x="151" y="399"/>
      <point x="166" y="401"/>
      <point x="161" y="414" type="curve" smooth="yes"/>
      <point x="134" y="478" type="line" smooth="yes"/>
      <point x="130" y="487"/>
      <point x="126" y="492"/>
      <point x="118" y="492" type="curve" smooth="yes"/>
      <point x="14" y="492" type="line" smooth="yes"/>
      <point x="5" y="492"/>
      <point x="-1" y="495"/>
      <point x="-1" y="506" type="curve" smooth="yes"/>
      <point x="-1" y="529" type="line" smooth="yes"/>
      <point x="-1" y="541"/>
      <point x="7" y="542"/>
      <point x="16" y="542" type="curve" smooth="yes"/>
      <point x="88" y="542" type="line" smooth="yes"/>
      <point x="93" y="542"/>
      <point x="105" y="548"/>
      <point x="102" y="554" type="curve" smooth="yes"/>
      <point x="83" y="599" type="line" smooth="yes"/>
      <point x="61" y="652"/>
      <point x="44" y="667"/>
      <point x="7" y="669" type="curve" smooth="yes"/>
      <point x="1" y="669"/>
      <point x="0" y="672"/>
      <point x="-1" y="679" type="curve" smooth="yes"/>
      <point x="-3" y="681"/>
      <point x="-3" y="685"/>
      <point x="-3" y="688" type="curve" smooth="yes"/>
      <point x="-3" y="692"/>
      <point x="-2" y="694"/>
      <point x="-2" y="695" type="curve" smooth="yes"/>
      <point x="-3" y="702"/>
      <point x="2" y="704"/>
      <point x="7" y="704" type="curve" smooth="yes"/>
      <point x="61" y="702"/>
      <point x="167" y="702"/>
      <point x="224" y="705" type="curve" smooth="yes"/>
      <point x="232" y="705"/>
      <point x="235" y="698"/>
      <point x="235" y="691" type="curve" smooth="yes"/>
      <point x="236" y="688"/>
      <point x="238" y="683"/>
      <point x="235" y="679" type="curve" smooth="yes"/>
      <point x="235" y="675"/>
      <point x="234" y="670"/>
      <point x="230" y="669" type="curve" smooth="yes"/>
      <point x="229" y="669"/>
      <point x="228" y="669"/>
      <point x="227" y="669" type="curve" smooth="yes"/>
      <point x="184" y="666"/>
      <point x="172" y="656"/>
      <point x="172" y="643" type="curve" smooth="yes"/>
      <point x="172" y="640"/>
      <point x="175" y="631"/>
      <point x="181" y="616" type="curve" smooth="yes"/>
      <point x="207" y="552" type="line" smooth="yes"/>
      <point x="210" y="545"/>
      <point x="224" y="542"/>
      <point x="233" y="542" type="curve" smooth="yes"/>
      <point x="346" y="542" type="line" smooth="yes"/>
      <point x="353" y="542"/>
      <point x="362" y="546"/>
      <point x="365" y="554" type="curve" smooth="yes"/>
      <point x="387" y="608" type="line" smooth="yes"/>
      <point x="394" y="626"/>
      <point x="397" y="637"/>
      <point x="397" y="644" type="curve" smooth="yes"/>
      <point x="397" y="658"/>
      <point x="389" y="666"/>
      <point x="360" y="668" type="curve" smooth="yes"/>
      <point x="354" y="669"/>
      <point x="339" y="671"/>
      <point x="339" y="681" type="curve" smooth="yes"/>
      <point x="339" y="692" type="line" smooth="yes"/>
      <point x="339" y="698"/>
      <point x="344" y="701"/>
      <point x="350" y="701" type="curve" smooth="yes"/>
      <point x="351" y="701"/>
      <point x="353" y="701"/>
      <point x="354" y="701" type="curve" smooth="yes"/>
      <point x="397" y="699"/>
      <point x="477" y="699"/>
      <point x="518" y="702" type="curve" smooth="yes"/>
      <point x="525" y="703"/>
      <point x="528" y="693"/>
      <point x="528" y="690" type="curve" smooth="yes"/>
      <point x="528" y="678" type="line" smooth="yes"/>
      <point x="528" y="676"/>
      <point x="528" y="675"/>
    </contour>
    <contour>
      <point x="332" y="480" type="line" smooth="yes"/>
      <point x="335" y="488"/>
      <point x="334" y="492"/>
      <point x="326" y="492" type="curve" smooth="yes"/>
      <point x="245" y="492" type="line" smooth="yes"/>
      <point x="237" y="492"/>
      <point x="233" y="490"/>
      <point x="237" y="481" type="curve" smooth="yes"/>
      <point x="278" y="381" type="line" smooth="yes"/>
      <point x="281" y="374"/>
      <point x="288" y="372"/>
      <point x="293" y="383" type="curve" smooth="yes"/>
    </contour>
  </outline>
</glyph>
<glyph name="brokenbar" format="1">
  <advance width="534"/>
  <unicode hex="00A6"/>
  <outline>
    <contour>
      <point x="301" y="479" type="line"/>
      <point x="236" y="479" type="line"/>
      <point x="236" y="860" type="line"/>
      <point x="301" y="860" type="line"/>
    </contour>
    <contour>
      <point x="301" y="-22" type="line"/>
      <point x="236" y="-22" type="line"/>
      <point x="236" y="358" type="line"/>
      <point x="301" y="358" type="line"/>
    </contour>
  </outline>
</glyph>
<glyph name="section" format="1">
  <advance width="491"/>
  <unicode hex="00A7"/>
  <outline>
    <contour>
      <point x="441" y="19" type="curve" smooth="yes"/>
      <point x="441" y="-118"/>
      <point x="329" y="-237"/>
      <point x="200" y="-237" type="curve" smooth="yes"/>
      <point x="135" y="-237"/>
      <point x="67" y="-206"/>
      <point x="67" y="-165" type="curve" smooth="yes"/>
      <point x="67" y="-144"/>
      <point x="85" y="-121"/>
      <point x="107" y="-121" type="curve" smooth="yes"/>
      <point x="130" y="-121"/>
      <point x="144" y="-142"/>
      <point x="157" y="-157" type="curve" smooth="yes"/>
      <point x="180" y="-182"/>
      <point x="209" y="-196"/>
      <point x="234" y="-196" type="curve" smooth="yes"/>
      <point x="280" y="-196"/>
      <point x="323" y="-158"/>
      <point x="323" y="-120" type="curve" smooth="yes"/>
      <point x="323" y="-91"/>
      <point x="309" y="-58"/>
      <point x="265" y="3" type="curve" smooth="yes"/>
      <point x="211" y="78"/>
      <point x="158" y="154"/>
      <point x="112" y="235" type="curve" smooth="yes"/>
      <point x="73" y="304"/>
      <point x="53" y="368"/>
      <point x="53" y="430" type="curve" smooth="yes"/>
      <point x="53" y="576"/>
      <point x="162" y="699"/>
      <point x="292" y="699" type="curve" smooth="yes"/>
      <point x="329" y="699"/>
      <point x="430" y="676"/>
      <point x="430" y="625" type="curve" smooth="yes"/>
      <point x="430" y="602"/>
      <point x="409" y="581"/>
      <point x="386" y="581" type="curve" smooth="yes"/>
      <point x="367" y="581"/>
      <point x="354" y="593"/>
      <point x="342" y="605" type="curve" smooth="yes"/>
      <point x="337" y="609"/>
      <point x="333" y="614"/>
      <point x="329" y="618" type="curve" smooth="yes"/>
      <point x="311" y="637"/>
      <point x="292" y="656"/>
      <point x="261" y="656" type="curve" smooth="yes"/>
      <point x="212" y="656"/>
      <point x="172" y="620"/>
      <point x="172" y="576" type="curve" smooth="yes"/>
      <point x="172" y="530"/>
      <point x="242" y="439"/>
      <point x="269" y="401" type="curve" smooth="yes"/>
      <point x="379" y="245"/>
      <point x="410" y="191"/>
      <point x="430" y="117" type="curve" smooth="yes"/>
      <point x="438" y="86"/>
      <point x="441" y="48"/>
    </contour>
    <contour>
      <point x="389" y="9" type="curve" smooth="yes"/>
      <point x="389" y="72"/>
      <point x="375" y="123"/>
      <point x="353" y="170" type="curve" smooth="yes"/>
      <point x="341" y="194"/>
      <point x="328" y="217"/>
      <point x="313" y="240" type="curve" smooth="yes"/>
      <point x="298" y="263"/>
      <point x="282" y="287"/>
      <point x="265" y="312" type="curve" smooth="yes"/>
      <point x="247" y="338"/>
      <point x="220" y="378"/>
      <point x="194" y="419" type="curve" smooth="yes"/>
      <point x="168" y="459"/>
      <point x="144" y="501"/>
      <point x="134" y="532" type="curve" smooth="yes"/>
      <point x="131" y="543"/>
      <point x="128" y="545"/>
      <point x="126" y="543" type="curve" smooth="yes"/>
      <point x="123" y="541"/>
      <point x="121" y="535"/>
      <point x="120" y="532" type="curve" smooth="yes"/>
      <point x="88" y="448"/>
      <point x="105" y="363"/>
      <point x="145" y="284" type="curve" smooth="yes"/>
      <point x="197" y="183"/>
      <point x="271" y="95"/>
      <point x="327" y="-5" type="curve" smooth="yes"/>
      <point x="345" y="-37"/>
      <point x="354" y="-54"/>
      <point x="360" y="-72" type="curve" smooth="yes"/>
      <point x="362" y="-78"/>
      <point x="365" y="-79"/>
      <point x="368" y="-77" type="curve" smooth="yes"/>
      <point x="372" y="-75"/>
      <point x="375" y="-71"/>
      <point x="377" y="-66" type="curve" smooth="yes"/>
      <point x="386" y="-43"/>
      <point x="389" y="-19"/>
    </contour>
  </outline>
</glyph>
<glyph name="ordfeminine" format="1">
  <advance width="272"/>
  <unicode hex="00AA"/>
  <outline>
    <contour>
      <point x="272" y="441" type="line"/>
      <point x="244" y="418"/>
      <point x="216" y="402"/>
      <point x="200" y="402" type="curve" smooth="yes"/>
      <point x="180" y="402"/>
      <point x="168" y="415"/>
      <point x="164" y="436" type="curve"/>
      <point x="161" y="434"/>
      <point x="159" y="432"/>
      <point x="156" y="430" type="curve" smooth="yes"/>
      <point x="129" y="409"/>
      <point x="114" y="402"/>
      <point x="89" y="402" type="curve" smooth="yes"/>
      <point x="51" y="402"/>
      <point x="23" y="425"/>
      <point x="23" y="460" type="curve" smooth="yes"/>
      <point x="23" y="492"/>
      <point x="49" y="512"/>
      <point x="94" y="522" type="curve" smooth="yes"/>
      <point x="119" y="528"/>
      <point x="139" y="535"/>
      <point x="162" y="547" type="curve"/>
      <point x="162" y="594" type="line" smooth="yes"/>
      <point x="162" y="628"/>
      <point x="146" y="645"/>
      <point x="118" y="645" type="curve" smooth="yes"/>
      <point x="109" y="645"/>
      <point x="100" y="642"/>
      <point x="91" y="635" type="curve" smooth="yes"/>
      <point x="85" y="628"/>
      <point x="83" y="625"/>
      <point x="83" y="621" type="curve" smooth="yes"/>
      <point x="83" y="619"/>
      <point x="84" y="617"/>
      <point x="87" y="605" type="curve"/>
      <point x="32" y="580" type="line"/>
      <point x="28" y="591"/>
      <point x="27" y="594"/>
      <point x="27" y="597" type="curve" smooth="yes"/>
      <point x="27" y="613"/>
      <point x="45" y="632"/>
      <point x="70" y="650" type="curve" smooth="yes"/>
      <point x="94" y="668"/>
      <point x="111" y="674"/>
      <point x="132" y="674" type="curve" smooth="yes"/>
      <point x="193" y="674"/>
      <point x="218" y="648"/>
      <point x="218" y="582" type="curve" smooth="yes"/>
      <point x="218" y="499" type="line"/>
      <point x="218" y="471" type="line" smooth="yes"/>
      <point x="218" y="447"/>
      <point x="223" y="444"/>
      <point x="231" y="444" type="curve" smooth="yes"/>
      <point x="238" y="444"/>
      <point x="244" y="446"/>
      <point x="265" y="460" type="curve"/>
    </contour>
    <contour>
      <point x="162" y="473" type="curve" smooth="yes"/>
      <point x="162" y="522" type="line"/>
      <point x="155" y="519"/>
      <point x="146" y="515"/>
      <point x="130" y="509" type="curve" smooth="yes"/>
      <point x="82" y="490"/>
      <point x="78" y="484"/>
      <point x="78" y="467" type="curve" smooth="yes"/>
      <point x="78" y="449"/>
      <point x="92" y="435"/>
      <point x="111" y="435" type="curve" smooth="yes"/>
      <point x="127" y="435"/>
      <point x="162" y="457"/>
    </contour>
  </outline>
</glyph>
<glyph name="registered" format="1">
  <advance width="796"/>
  <unicode hex="00AE"/>
  <outline>
    <contour>
      <point x="761" y="348" type="curve" smooth="yes"/>
      <point x="761" y="145"/>
      <point x="597" y="-20"/>
      <point x="396" y="-20" type="curve" smooth="yes"/>
      <point x="194" y="-20"/>
      <point x="31" y="145"/>
      <point x="31" y="348" type="curve" smooth="yes"/>
      <point x="31" y="552"/>
      <point x="194" y="717"/>
      <point x="396" y="717" type="curve" smooth="yes"/>
      <point x="597" y="717"/>
      <point x="761" y="552"/>
    </contour>
    <contour>
      <point x="719" y="348" type="curve" smooth="yes"/>
      <point x="719" y="528"/>
      <point x="574" y="673"/>
      <point x="396" y="673" type="curve" smooth="yes"/>
      <point x="217" y="673"/>
      <point x="74" y="528"/>
      <point x="74" y="348" type="curve" smooth="yes"/>
      <point x="74" y="168"/>
      <point x="217" y="23"/>
      <point x="396" y="23" type="curve" smooth="yes"/>
      <point x="574" y="23"/>
      <point x="719" y="168"/>
    </contour>
    <contour>
      <point x="610" y="131" type="line" smooth="yes"/>
      <point x="610" y="122"/>
      <point x="606" y="122"/>
      <point x="598" y="122" type="curve" smooth="yes"/>
      <point x="572" y="123"/>
      <point x="538" y="123"/>
      <point x="517" y="122" type="curve" smooth="yes"/>
      <point x="510" y="122"/>
      <point x="506" y="125"/>
      <point x="503" y="129" type="curve" smooth="yes"/>
      <point x="358" y="330" type="line"/>
      <point x="339" y="330" type="line" smooth="yes"/>
      <point x="332" y="330"/>
      <point x="329" y="322"/>
      <point x="329" y="312" type="curve" smooth="yes"/>
      <point x="329" y="215" type="line"/>
      <point x="329" y="177" type="line" smooth="yes"/>
      <point x="329" y="162"/>
      <point x="339" y="153"/>
      <point x="382" y="152" type="curve" smooth="yes"/>
      <point x="388" y="152"/>
      <point x="389" y="151"/>
      <point x="389" y="142" type="curve" smooth="yes"/>
      <point x="389" y="131" type="line" smooth="yes"/>
      <point x="389" y="128"/>
      <point x="389" y="127"/>
      <point x="389" y="125" type="curve" smooth="yes"/>
      <point x="389" y="122"/>
      <point x="387" y="122"/>
      <point x="385" y="122" type="curve" smooth="yes"/>
      <point x="383" y="122"/>
      <point x="380" y="122"/>
      <point x="377" y="122" type="curve" smooth="yes"/>
      <point x="325" y="125"/>
      <point x="247" y="125"/>
      <point x="204" y="122" type="curve" smooth="yes"/>
      <point x="202" y="122"/>
      <point x="192" y="122"/>
      <point x="192" y="130" type="curve" smooth="yes"/>
      <point x="192" y="144" type="line" smooth="yes"/>
      <point x="192" y="149"/>
      <point x="197" y="152"/>
      <point x="204" y="152" type="curve" smooth="yes"/>
      <point x="241" y="153"/>
      <point x="245" y="161"/>
      <point x="245" y="216" type="curve" smooth="yes"/>
      <point x="245" y="484" type="line" smooth="yes"/>
      <point x="245" y="540"/>
      <point x="241" y="546"/>
      <point x="208" y="548" type="curve" smooth="yes"/>
      <point x="202" y="548"/>
      <point x="198" y="550"/>
      <point x="198" y="557" type="curve" smooth="yes"/>
      <point x="198" y="566" type="line" smooth="yes"/>
      <point x="198" y="569"/>
      <point x="197" y="573"/>
      <point x="199" y="575" type="curve" smooth="yes"/>
      <point x="201" y="577"/>
      <point x="204" y="577"/>
      <point x="212" y="577" type="curve" smooth="yes"/>
      <point x="256" y="574"/>
      <point x="351" y="577"/>
      <point x="399" y="577" type="curve" smooth="yes"/>
      <point x="490" y="578"/>
      <point x="555" y="530"/>
      <point x="555" y="457" type="curve" smooth="yes"/>
      <point x="555" y="401"/>
      <point x="521" y="364"/>
      <point x="456" y="342" type="curve" smooth="yes"/>
      <point x="450" y="341"/>
      <point x="449" y="336"/>
      <point x="453" y="330" type="curve" smooth="yes"/>
      <point x="548" y="194" type="line" smooth="yes"/>
      <point x="570" y="163"/>
      <point x="581" y="154"/>
      <point x="604" y="152" type="curve" smooth="yes"/>
      <point x="608" y="152"/>
      <point x="610" y="151"/>
      <point x="610" y="150" type="curve" smooth="yes"/>
      <point x="610" y="149"/>
      <point x="610" y="148"/>
      <point x="610" y="146" type="curve" smooth="yes"/>
      <point x="610" y="145"/>
      <point x="610" y="143"/>
      <point x="610" y="141" type="curve" smooth="yes"/>
    </contour>
    <contour>
      <point x="462" y="451" type="curve" smooth="yes"/>
      <point x="462" y="504"/>
      <point x="422" y="543"/>
      <point x="366" y="543" type="curve" smooth="yes"/>
      <point x="352" y="543"/>
      <point x="345" y="542"/>
      <point x="329" y="537" type="curve"/>
      <point x="329" y="373" type="line" smooth="yes"/>
      <point x="329" y="365"/>
      <point x="330" y="363"/>
      <point x="339" y="363" type="curve" smooth="yes"/>
      <point x="419" y="363"/>
      <point x="462" y="397"/>
    </contour>
  </outline>
</glyph>
<glyph name="degree" format="1">
  <advance width="415"/>
  <unicode hex="00B0"/>
  <outline>
    <contour>
      <point x="369" y="514" type="curve" smooth="yes"/>
      <point x="369" y="425"/>
      <point x="297" y="352"/>
      <point x="208" y="352" type="curve" smooth="yes"/>
      <point x="119" y="352"/>
      <point x="48" y="425"/>
      <point x="48" y="514" type="curve" smooth="yes"/>
      <point x="48" y="604"/>
      <point x="119" y="677"/>
      <point x="208" y="677" type="curve" smooth="yes"/>
      <point x="297" y="677"/>
      <point x="369" y="604"/>
    </contour>
    <contour>
      <point x="315" y="514" type="curve" smooth="yes"/>
      <point x="315" y="574"/>
      <point x="267" y="622"/>
      <point x="208" y="622" type="curve" smooth="yes"/>
      <point x="150" y="622"/>
      <point x="102" y="574"/>
      <point x="102" y="514" type="curve" smooth="yes"/>
      <point x="102" y="455"/>
      <point x="150" y="407"/>
      <point x="208" y="407" type="curve" smooth="yes"/>
      <point x="267" y="407"/>
      <point x="315" y="455"/>
    </contour>
  </outline>
</glyph>
<glyph name="twosuperior" format="1">
  <advance width="300"/>
  <unicode hex="00B2"/>
  <outline>
    <contour>
      <point x="280" y="389" type="curve" smooth="yes"/>
      <point x="280" y="389"/>
      <point x="267" y="308"/>
      <point x="266" y="308" type="curve" smooth="yes"/>
      <point x="267" y="308" type="line"/>
      <point x="265" y="303"/>
      <point x="256" y="301"/>
      <point x="251" y="301" type="curve" smooth="yes"/>
      <point x="19" y="301" type="line" smooth="yes"/>
      <point x="14" y="301"/>
      <point x="9" y="302"/>
      <point x="9" y="309" type="curve" smooth="yes"/>
      <point x="9" y="324" type="line"/>
      <point x="25" y="343"/>
      <point x="49" y="367"/>
      <point x="91" y="403" type="curve" smooth="yes"/>
      <point x="130" y="436"/>
      <point x="193" y="484"/>
      <point x="193" y="539" type="curve" smooth="yes"/>
      <point x="193" y="570"/>
      <point x="166" y="595"/>
      <point x="130" y="595" type="curve" smooth="yes"/>
      <point x="95" y="595"/>
      <point x="64" y="571"/>
      <point x="50" y="529" type="curve" smooth="yes"/>
      <point x="47" y="523"/>
      <point x="15" y="522"/>
      <point x="15" y="531" type="curve" smooth="yes"/>
      <point x="22" y="603"/>
      <point x="76" y="646"/>
      <point x="146" y="646" type="curve" smooth="yes"/>
      <point x="213" y="646"/>
      <point x="268" y="605"/>
      <point x="268" y="546" type="curve" smooth="yes"/>
      <point x="268" y="482"/>
      <point x="214" y="450"/>
      <point x="169" y="419" type="curve" smooth="yes"/>
      <point x="145" y="403"/>
      <point x="124" y="387"/>
      <point x="95" y="361" type="curve" smooth="yes"/>
      <point x="92" y="359"/>
      <point x="94" y="358"/>
      <point x="97" y="357" type="curve" smooth="yes"/>
      <point x="100" y="356"/>
      <point x="105" y="355"/>
      <point x="108" y="355" type="curve" smooth="yes"/>
      <point x="194" y="355" type="line" smooth="yes"/>
      <point x="203" y="355"/>
      <point x="225" y="354"/>
      <point x="232" y="359" type="curve" smooth="yes"/>
      <point x="234" y="361"/>
      <point x="236" y="364"/>
      <point x="238" y="368" type="curve" smooth="yes"/>
      <point x="239" y="373"/>
      <point x="241" y="380"/>
      <point x="243" y="390" type="curve" smooth="yes"/>
      <point x="244" y="396"/>
      <point x="251" y="395"/>
      <point x="255" y="395" type="curve" smooth="yes"/>
      <point x="257" y="395"/>
      <point x="259" y="395"/>
      <point x="262" y="395" type="curve" smooth="yes"/>
      <point x="271" y="395"/>
      <point x="280" y="393"/>
    </contour>
  </outline>
</glyph>
<glyph name="acute" format="1">
  <advance width="349"/>
  <unicode hex="00B4"/>
  <outline>
    <contour>
      <point x="288" y="652" type="curve" smooth="yes"/>
      <point x="288" y="650"/>
      <point x="287" y="648"/>
      <point x="287" y="647" type="curve" smooth="yes"/>
      <point x="144" y="475" type="line" smooth="yes"/>
      <point x="138" y="468"/>
      <point x="113" y="468"/>
      <point x="118" y="484" type="curve" smooth="yes"/>
      <point x="167" y="648" type="line" smooth="yes"/>
      <point x="171" y="656"/>
      <point x="179" y="661"/>
      <point x="186" y="661" type="curve" smooth="yes"/>
      <point x="274" y="661" type="line" smooth="yes"/>
      <point x="281" y="662"/>
      <point x="290" y="660"/>
    </contour>
  </outline>
</glyph>
<glyph name="mu" format="1">
  <advance width="524"/>
  <unicode hex="00B5"/>
  <outline>
    <contour>
      <point x="524" y="110" type="line"/>
      <point x="518" y="25"/>
      <point x="483" y="-20"/>
      <point x="417" y="-20" type="curve" smooth="yes"/>
      <point x="373" y="-20"/>
      <point x="347" y="5"/>
      <point x="336" y="54" type="curve" smooth="yes"/>
      <point x="335" y="62"/>
      <point x="331" y="68"/>
      <point x="323" y="58" type="curve" smooth="yes"/>
      <point x="290" y="21"/>
      <point x="270" y="6"/>
      <point x="232" y="-9" type="curve" smooth="yes"/>
      <point x="195" y="-24"/>
      <point x="142" y="-28"/>
      <point x="113" y="8" type="curve"/>
      <point x="111" y="10" type="line" smooth="yes"/>
      <point x="110" y="11"/>
      <point x="108" y="14"/>
      <point x="107" y="13" type="curve" smooth="yes"/>
      <point x="107" y="12"/>
      <point x="106" y="10"/>
      <point x="106" y="7" type="curve" smooth="yes"/>
      <point x="106" y="-26"/>
      <point x="109" y="-47"/>
      <point x="123" y="-115" type="curve" smooth="yes"/>
      <point x="127" y="-136"/>
      <point x="130" y="-154"/>
      <point x="130" y="-168" type="curve" smooth="yes"/>
      <point x="130" y="-203"/>
      <point x="108" y="-232"/>
      <point x="77" y="-232" type="curve" smooth="yes"/>
      <point x="46" y="-232"/>
      <point x="27" y="-205"/>
      <point x="27" y="-169" type="curve" smooth="yes"/>
      <point x="27" y="-153"/>
      <point x="29" y="-135"/>
      <point x="34" y="-115" type="curve" smooth="yes"/>
      <point x="50" y="-52" type="line" smooth="yes"/>
      <point x="55" y="-33"/>
      <point x="58" y="24"/>
      <point x="59" y="64" type="curve" smooth="yes"/>
      <point x="60" y="159"/>
      <point x="61" y="355"/>
      <point x="59" y="439" type="curve" smooth="yes"/>
      <point x="58" y="471"/>
      <point x="63" y="475"/>
      <point x="88" y="475" type="curve" smooth="yes"/>
      <point x="114" y="475" type="line" smooth="yes"/>
      <point x="122" y="475"/>
      <point x="129" y="475"/>
      <point x="134" y="476" type="curve" smooth="yes"/>
      <point x="139" y="476"/>
      <point x="142" y="476"/>
      <point x="145" y="475" type="curve" smooth="yes"/>
      <point x="151" y="471"/>
      <point x="152" y="460"/>
      <point x="153" y="432" type="curve" smooth="yes"/>
      <point x="155" y="373"/>
      <point x="153" y="255"/>
      <point x="153" y="196" type="curve" smooth="yes"/>
      <point x="153" y="163" type="line" smooth="yes"/>
      <point x="153" y="86"/>
      <point x="176" y="55"/>
      <point x="220" y="55" type="curve" smooth="yes"/>
      <point x="256" y="55"/>
      <point x="293" y="76"/>
      <point x="332" y="120" type="curve"/>
      <point x="335" y="199"/>
      <point x="335" y="354"/>
      <point x="332" y="436" type="curve" smooth="yes"/>
      <point x="331" y="468"/>
      <point x="333" y="474"/>
      <point x="359" y="475" type="curve" smooth="yes"/>
      <point x="406" y="476" type="line" smooth="yes"/>
      <point x="418" y="476"/>
      <point x="424" y="474"/>
      <point x="426" y="468" type="curve" smooth="yes"/>
      <point x="427" y="465"/>
      <point x="427" y="461"/>
      <point x="427" y="456" type="curve" smooth="yes"/>
      <point x="428" y="452"/>
      <point x="427" y="446"/>
      <point x="427" y="440" type="curve" smooth="yes"/>
      <point x="427" y="134" type="line"/>
      <point x="426" y="110" type="line"/>
      <point x="426" y="106" type="line" smooth="yes"/>
      <point x="426" y="66"/>
      <point x="440" y="47"/>
      <point x="457" y="47" type="curve" smooth="yes"/>
      <point x="472" y="47"/>
      <point x="485" y="64"/>
      <point x="492" y="110" type="curve"/>
    </contour>
  </outline>
</glyph>
<glyph name="paragraph" format="1">
  <advance width="469"/>
  <unicode hex="00B6"/>
  <outline>
    <contour>
      <point x="481" y="629" type="line" smooth="yes"/>
      <point x="481" y="618"/>
      <point x="473" y="617"/>
      <point x="464" y="617" type="curve" smooth="yes"/>
      <point x="426" y="617" type="line" smooth="yes"/>
      <point x="414" y="617"/>
      <point x="413" y="608"/>
      <point x="413" y="599" type="curve" smooth="yes"/>
      <point x="413" y="-233" type="line" smooth="yes"/>
      <point x="413" y="-248"/>
      <point x="412" y="-249"/>
      <point x="396" y="-249" type="curve" smooth="yes"/>
      <point x="380" y="-249" type="line" smooth="yes"/>
      <point x="372" y="-249"/>
      <point x="363" y="-247"/>
      <point x="363" y="-234" type="curve" smooth="yes"/>
      <point x="364" y="599" type="line" smooth="yes"/>
      <point x="364" y="609"/>
      <point x="360" y="615"/>
      <point x="346" y="615" type="curve" smooth="yes"/>
      <point x="295" y="615" type="line" smooth="yes"/>
      <point x="284" y="615"/>
      <point x="282" y="609"/>
      <point x="282" y="601" type="curve" smooth="yes"/>
      <point x="283" y="-237" type="line" smooth="yes"/>
      <point x="283" y="-247"/>
      <point x="278" y="-249"/>
      <point x="267" y="-249" type="curve" smooth="yes"/>
      <point x="246" y="-249" type="line" smooth="yes"/>
      <point x="232" y="-249"/>
      <point x="231" y="-245"/>
      <point x="231" y="-233" type="curve" smooth="yes"/>
      <point x="231" y="245" type="line" smooth="yes"/>
      <point x="231" y="256"/>
      <point x="227" y="260"/>
      <point x="213" y="260" type="curve" smooth="yes"/>
      <point x="106" y="262"/>
      <point x="48" y="296"/>
      <point x="14" y="360" type="curve" smooth="yes"/>
      <point x="-2" y="390"/>
      <point x="-9" y="423"/>
      <point x="-9" y="459" type="curve" smooth="yes"/>
      <point x="-9" y="585"/>
      <point x="79" y="659"/>
      <point x="224" y="660" type="curve" smooth="yes"/>
      <point x="286" y="660"/>
      <point x="409" y="658"/>
      <point x="463" y="661" type="curve" smooth="yes"/>
      <point x="475" y="662"/>
      <point x="481" y="655"/>
      <point x="481" y="647" type="curve" smooth="yes"/>
    </contour>
  </outline>
</glyph>
<glyph name="periodcentered" format="1">
  <advance width="257"/>
  <unicode hex="00B7"/>
  <outline>
    <contour>
      <point x="182" y="281" type="curve" smooth="yes"/>
      <point x="182" y="252"/>
      <point x="159" y="227"/>
      <point x="129" y="227" type="curve" smooth="yes"/>
      <point x="100" y="227"/>
      <point x="76" y="252"/>
      <point x="76" y="281" type="curve" smooth="yes"/>
      <point x="76" y="311"/>
      <point x="100" y="335"/>
      <point x="129" y="335" type="curve" smooth="yes"/>
      <point x="159" y="335"/>
      <point x="182" y="311"/>
    </contour>
  </outline>
</glyph>
<glyph name="cedilla" format="1">
  <advance width="349"/>
  <unicode hex="00B8"/>
  <outline>
    <contour>
      <point x="257" y="-130" type="curve" smooth="yes"/>
      <point x="257" y="-182"/>
      <point x="215" y="-224"/>
      <point x="163" y="-224" type="curve" smooth="yes"/>
      <point x="150" y="-224"/>
      <point x="137" y="-223"/>
      <point x="121" y="-217" type="curve" smooth="yes"/>
      <point x="111" y="-213"/>
      <point x="113" y="-208"/>
      <point x="117" y="-202" type="curve" smooth="yes"/>
      <point x="118" y="-200"/>
      <point x="119" y="-197"/>
      <point x="121" y="-195" type="curve" smooth="yes"/>
      <point x="122" y="-192"/>
      <point x="127" y="-190"/>
      <point x="130" y="-191" type="curve" smooth="yes"/>
      <point x="140" y="-193"/>
      <point x="147" y="-194"/>
      <point x="152" y="-194" type="curve" smooth="yes"/>
      <point x="180" y="-194"/>
      <point x="202" y="-172"/>
      <point x="202" y="-147" type="curve" smooth="yes"/>
      <point x="202" y="-125"/>
      <point x="192" y="-111"/>
      <point x="174" y="-111" type="curve" smooth="yes"/>
      <point x="161" y="-111"/>
      <point x="148" y="-117"/>
      <point x="111" y="-136" type="curve" smooth="yes"/>
      <point x="106" y="-138"/>
      <point x="98" y="-138"/>
      <point x="103" y="-130" type="curve" smooth="yes"/>
      <point x="186" y="10" type="line"/>
      <point x="214" y="10" type="line"/>
      <point x="186" y="-42" type="line" smooth="yes"/>
      <point x="184" y="-46"/>
      <point x="184" y="-47"/>
      <point x="184" y="-48" type="curve" smooth="yes"/>
      <point x="185" y="-49"/>
      <point x="188" y="-49"/>
      <point x="190" y="-50" type="curve" smooth="yes"/>
      <point x="228" y="-55"/>
      <point x="257" y="-88"/>
    </contour>
  </outline>
</glyph>
<glyph name="onesuperior" format="1">
  <advance width="300"/>
  <unicode hex="00B9"/>
  <outline>
    <contour>
      <point x="248" y="315" type="curve" smooth="yes"/>
      <point x="248" y="307"/>
      <point x="245" y="299"/>
      <point x="241" y="299" type="curve" smooth="yes"/>
      <point x="189" y="301"/>
      <point x="131" y="301"/>
      <point x="80" y="299" type="curve" smooth="yes"/>
      <point x="75" y="299"/>
      <point x="72" y="308"/>
      <point x="72" y="315" type="curve" smooth="yes"/>
      <point x="72" y="322"/>
      <point x="75" y="331"/>
      <point x="80" y="331" type="curve" smooth="yes"/>
      <point x="109" y="334" type="line" smooth="yes"/>
      <point x="124" y="336"/>
      <point x="128" y="338"/>
      <point x="128" y="352" type="curve" smooth="yes"/>
      <point x="127" y="560" type="line" smooth="yes"/>
      <point x="127" y="561"/>
      <point x="127" y="568"/>
      <point x="125" y="567" type="curve" smooth="yes"/>
      <point x="114" y="560"/>
      <point x="104" y="555"/>
      <point x="94" y="550" type="curve" smooth="yes"/>
      <point x="85" y="546"/>
      <point x="75" y="542"/>
      <point x="64" y="538" type="curve" smooth="yes"/>
      <point x="50" y="537"/>
      <point x="43" y="554"/>
      <point x="49" y="561" type="curve" smooth="yes"/>
      <point x="89" y="585"/>
      <point x="131" y="618"/>
      <point x="151" y="642" type="curve" smooth="yes"/>
      <point x="154" y="646"/>
      <point x="193" y="647"/>
      <point x="193" y="639" type="curve" smooth="yes"/>
      <point x="193" y="353" type="line" smooth="yes"/>
      <point x="193" y="349"/>
      <point x="193" y="342"/>
      <point x="195" y="339" type="curve" smooth="yes"/>
      <point x="197" y="336"/>
      <point x="200" y="335"/>
      <point x="207" y="334" type="curve" smooth="yes"/>
      <point x="212" y="334"/>
      <point x="218" y="334"/>
      <point x="223" y="335" type="curve" smooth="yes"/>
      <point x="237" y="335"/>
      <point x="247" y="335"/>
    </contour>
  </outline>
</glyph>
<glyph name="Igrave" format="1">
  <advance width="363"/>
  <unicode hex="00CC"/>
  <outline>
    <contour>
      <point x="229" y="710" type="curve" smooth="yes"/>
      <point x="230" y="697"/>
      <point x="212" y="696"/>
      <point x="204" y="703" type="curve" smooth="yes"/>
      <point x="172" y="745"/>
      <point x="113" y="814"/>
      <point x="70" y="861" type="curve" smooth="yes"/>
      <point x="64" y="867"/>
      <point x="72" y="880"/>
      <point x="84" y="880" type="curve" smooth="yes"/>
      <point x="161" y="881" type="line" smooth="yes"/>
      <point x="170" y="881"/>
      <point x="175" y="881"/>
      <point x="180" y="873" type="curve" smooth="yes"/>
      <point x="197" y="828"/>
      <point x="219" y="753"/>
    </contour>
    <contour>
      <point x="317" y="640" type="curve" smooth="yes"/>
      <point x="318" y="632"/>
      <point x="318" y="619"/>
      <point x="312" y="618" type="curve" smooth="yes"/>
      <point x="308" y="618"/>
      <point x="303" y="617"/>
      <point x="298" y="617" type="curve" smooth="yes"/>
      <point x="237" y="616"/>
      <point x="229" y="606"/>
      <point x="229" y="514" type="curve" smooth="yes"/>
      <point x="229" y="99" type="line" smooth="yes"/>
      <point x="229" y="47"/>
      <point x="244" y="34"/>
      <point x="298" y="33" type="curve" smooth="yes"/>
      <point x="304" y="33"/>
      <point x="309" y="33"/>
      <point x="313" y="32" type="curve" smooth="yes"/>
      <point x="326" y="24"/>
      <point x="320" y="-3"/>
      <point x="312" y="-3" type="curve" smooth="yes"/>
      <point x="249" y="-1"/>
      <point x="127" y="-1"/>
      <point x="64" y="-3" type="curve" smooth="yes"/>
      <point x="58" y="-3"/>
      <point x="52" y="2"/>
      <point x="52" y="12" type="curve" smooth="yes"/>
      <point x="52" y="20"/>
      <point x="56" y="31"/>
      <point x="61" y="31" type="curve" smooth="yes"/>
      <point x="124" y="37"/>
      <point x="129" y="45"/>
      <point x="131" y="99" type="curve" smooth="yes"/>
      <point x="132" y="134" type="line"/>
      <point x="132" y="514" type="line"/>
      <point x="131" y="549" type="line" smooth="yes"/>
      <point x="130" y="601"/>
      <point x="122" y="613"/>
      <point x="68" y="619" type="curve" smooth="yes"/>
      <point x="60" y="620"/>
      <point x="51" y="625"/>
      <point x="57" y="644" type="curve" smooth="yes"/>
      <point x="60" y="652"/>
      <point x="64" y="651"/>
      <point x="71" y="651" type="curve" smooth="yes"/>
      <point x="153" y="651"/>
      <point x="179" y="645"/>
      <point x="301" y="651" type="curve" smooth="yes"/>
      <point x="310" y="651"/>
      <point x="316" y="650"/>
    </contour>
  </outline>
</glyph>
<glyph name="Icircumflex" format="1">
  <advance width="362"/>
  <unicode hex="00CE"/>
  <outline>
    <contour>
      <point x="314" y="709" type="line" smooth="yes"/>
      <point x="317" y="704"/>
      <point x="319" y="697"/>
      <point x="313" y="696" type="curve" smooth="yes"/>
      <point x="306" y="694"/>
      <point x="296" y="695"/>
      <point x="293" y="698" type="curve" smooth="yes"/>
      <point x="171" y="802" type="line"/>
      <point x="56" y="698" type="line" smooth="yes"/>
      <point x="48" y="691"/>
      <point x="28" y="696"/>
      <point x="33" y="704" type="curve" smooth="yes"/>
      <point x="121" y="860" type="line" smooth="yes"/>
      <point x="124" y="865"/>
      <point x="129" y="868"/>
      <point x="134" y="870" type="curve" smooth="yes"/>
      <point x="142" y="871"/>
      <point x="196" y="872"/>
      <point x="209" y="871" type="curve" smooth="yes"/>
      <point x="219" y="870"/>
      <point x="222" y="869"/>
      <point x="226" y="861" type="curve" smooth="yes"/>
    </contour>
    <contour>
      <point x="317" y="640" type="curve" smooth="yes"/>
      <point x="318" y="632"/>
      <point x="317" y="619"/>
      <point x="312" y="618" type="curve" smooth="yes"/>
      <point x="307" y="618"/>
      <point x="302" y="617"/>
      <point x="298" y="617" type="curve" smooth="yes"/>
      <point x="237" y="616"/>
      <point x="228" y="606"/>
      <point x="228" y="514" type="curve" smooth="yes"/>
      <point x="228" y="99" type="line" smooth="yes"/>
      <point x="228" y="47"/>
      <point x="244" y="34"/>
      <point x="297" y="33" type="curve" smooth="yes"/>
      <point x="303" y="33"/>
      <point x="308" y="33"/>
      <point x="312" y="32" type="curve" smooth="yes"/>
      <point x="326" y="24"/>
      <point x="319" y="-3"/>
      <point x="312" y="-3" type="curve" smooth="yes"/>
      <point x="249" y="-1"/>
      <point x="126" y="-1"/>
      <point x="64" y="-3" type="curve" smooth="yes"/>
      <point x="57" y="-3"/>
      <point x="51" y="2"/>
      <point x="51" y="12" type="curve" smooth="yes"/>
      <point x="51" y="20"/>
      <point x="56" y="31"/>
      <point x="60" y="31" type="curve" smooth="yes"/>
      <point x="123" y="37"/>
      <point x="129" y="45"/>
      <point x="131" y="99" type="curve" smooth="yes"/>
      <point x="132" y="134" type="line"/>
      <point x="132" y="514" type="line"/>
      <point x="131" y="549" type="line" smooth="yes"/>
      <point x="130" y="601"/>
      <point x="122" y="613"/>
      <point x="67" y="619" type="curve" smooth="yes"/>
      <point x="59" y="620"/>
      <point x="50" y="625"/>
      <point x="56" y="644" type="curve" smooth="yes"/>
      <point x="59" y="652"/>
      <point x="63" y="651"/>
      <point x="70" y="651" type="curve" smooth="yes"/>
      <point x="153" y="651"/>
      <point x="178" y="645"/>
      <point x="301" y="651" type="curve" smooth="yes"/>
      <point x="309" y="651"/>
      <point x="316" y="650"/>
    </contour>
  </outline>
</glyph>
<glyph name="Ocircumflex" format="1">
  <advance width="827"/>
  <unicode hex="00D4"/>
  <outline>
    <contour>
      <point x="569" y="696" type="curve" smooth="yes"/>
      <point x="562" y="694"/>
      <point x="551" y="695"/>
      <point x="549" y="698" type="curve" smooth="yes"/>
      <point x="427" y="802" type="line"/>
      <point x="312" y="698" type="line" smooth="yes"/>
      <point x="304" y="691"/>
      <point x="284" y="696"/>
      <point x="288" y="704" type="curve" smooth="yes"/>
      <point x="377" y="860" type="line" smooth="yes"/>
      <point x="380" y="865"/>
      <point x="385" y="868"/>
      <point x="390" y="870" type="curve" smooth="yes"/>
      <point x="397" y="871"/>
      <point x="452" y="872"/>
      <point x="465" y="871" type="curve" smooth="yes"/>
      <point x="475" y="870"/>
      <point x="477" y="869"/>
      <point x="482" y="861" type="curve" smooth="yes"/>
      <point x="569" y="709" type="line" smooth="yes"/>
      <point x="572" y="704"/>
      <point x="575" y="697"/>
    </contour>
    <contour>
      <point x="769" y="339" type="curve" smooth="yes"/>
      <point x="769" y="138"/>
      <point x="619" y="-19"/>
      <point x="412" y="-19" type="curve" smooth="yes"/>
      <point x="203" y="-19"/>
      <point x="53" y="125"/>
      <point x="53" y="312" type="curve" smooth="yes"/>
      <point x="53" y="515"/>
      <point x="202" y="667"/>
      <point x="414" y="667" type="curve" smooth="yes"/>
      <point x="623" y="667"/>
      <point x="769" y="527"/>
    </contour>
    <contour>
      <point x="661" y="309" type="curve" smooth="yes"/>
      <point x="661" y="496"/>
      <point x="552" y="631"/>
      <point x="387" y="631" type="curve" smooth="yes"/>
      <point x="249" y="631"/>
      <point x="161" y="510"/>
      <point x="161" y="338" type="curve" smooth="yes"/>
      <point x="161" y="157"/>
      <point x="272" y="18"/>
      <point x="430" y="18" type="curve" smooth="yes"/>
      <point x="606" y="18"/>
      <point x="661" y="157"/>
    </contour>
  </outline>
</glyph>
<glyph name="Odieresis" format="1">
  <advance width="827"/>
  <unicode hex="00D6"/>
  <outline>
    <contour>
      <point x="564" y="764" type="curve" smooth="yes"/>
      <point x="564" y="731"/>
      <point x="537" y="704"/>
      <point x="503" y="704" type="curve" smooth="yes"/>
      <point x="470" y="704"/>
      <point x="443" y="731"/>
      <point x="443" y="764" type="curve" smooth="yes"/>
      <point x="443" y="797"/>
      <point x="470" y="824"/>
      <point x="503" y="824" type="curve" smooth="yes"/>
      <point x="537" y="824"/>
      <point x="564" y="797"/>
    </contour>
    <contour>
      <point x="386" y="764" type="curve" smooth="yes"/>
      <point x="386" y="730"/>
      <point x="359" y="704"/>
      <point x="326" y="704" type="curve" smooth="yes"/>
      <point x="293" y="704"/>
      <point x="265" y="730"/>
      <point x="265" y="764" type="curve" smooth="yes"/>
      <point x="265" y="797"/>
      <point x="293" y="824"/>
      <point x="326" y="824" type="curve" smooth="yes"/>
      <point x="359" y="824"/>
      <point x="386" y="797"/>
    </contour>
    <contour>
      <point x="769" y="339" type="curve" smooth="yes"/>
      <point x="769" y="138"/>
      <point x="619" y="-19"/>
      <point x="413" y="-19" type="curve" smooth="yes"/>
      <point x="204" y="-19"/>
      <point x="53" y="125"/>
      <point x="53" y="312" type="curve" smooth="yes"/>
      <point x="53" y="515"/>
      <point x="202" y="667"/>
      <point x="415" y="667" type="curve" smooth="yes"/>
      <point x="624" y="667"/>
      <point x="769" y="527"/>
    </contour>
    <contour>
      <point x="661" y="309" type="curve" smooth="yes"/>
      <point x="661" y="496"/>
      <point x="552" y="631"/>
      <point x="387" y="631" type="curve" smooth="yes"/>
      <point x="249" y="631"/>
      <point x="161" y="510"/>
      <point x="161" y="338" type="curve" smooth="yes"/>
      <point x="161" y="157"/>
      <point x="272" y="18"/>
      <point x="430" y="18" type="curve" smooth="yes"/>
      <point x="606" y="18"/>
      <point x="661" y="157"/>
    </contour>
  </outline>
</glyph>
<glyph name="multiply" format="1">
  <advance width="699"/>
  <unicode hex="00D7"/>
  <outline>
    <contour>
      <point x="599" y="563" type="line" smooth="yes"/>
      <point x="606" y="556"/>
      <point x="610" y="547"/>
      <point x="598" y="535" type="curve" smooth="yes"/>
      <point x="548" y="486"/>
      <point x="453" y="386"/>
      <point x="413" y="350" type="curve" smooth="yes"/>
      <point x="405" y="344"/>
      <point x="400" y="335"/>
      <point x="411" y="324" type="curve" smooth="yes"/>
      <point x="593" y="143" type="line" smooth="yes"/>
      <point x="606" y="130"/>
      <point x="608" y="121"/>
      <point x="597" y="112" type="curve" smooth="yes"/>
      <point x="575" y="94" type="line" smooth="yes"/>
      <point x="561" y="82"/>
      <point x="553" y="85"/>
      <point x="546" y="92" type="curve" smooth="yes"/>
      <point x="374" y="267" type="line" smooth="yes"/>
      <point x="356" y="286"/>
      <point x="342" y="278"/>
      <point x="329" y="264" type="curve" smooth="yes"/>
      <point x="269" y="198"/>
      <point x="222" y="154"/>
      <point x="162" y="96" type="curve" smooth="yes"/>
      <point x="152" y="86"/>
      <point x="140" y="82"/>
      <point x="126" y="95" type="curve" smooth="yes"/>
      <point x="109" y="111" type="line" smooth="yes"/>
      <point x="102" y="117"/>
      <point x="98" y="130"/>
      <point x="109" y="140" type="curve" smooth="yes"/>
      <point x="148" y="177"/>
      <point x="244" y="275"/>
      <point x="290" y="321" type="curve" smooth="yes"/>
      <point x="303" y="334"/>
      <point x="300" y="341"/>
      <point x="291" y="351" type="curve" smooth="yes"/>
      <point x="115" y="529" type="line" smooth="yes"/>
      <point x="105" y="539"/>
      <point x="97" y="552"/>
      <point x="109" y="564" type="curve" smooth="yes"/>
      <point x="130" y="585" type="line" smooth="yes"/>
      <point x="131" y="586"/>
      <point x="145" y="596"/>
      <point x="156" y="585" type="curve" smooth="yes"/>
      <point x="205" y="538"/>
      <point x="279" y="462"/>
      <point x="337" y="400" type="curve" smooth="yes"/>
      <point x="351" y="386"/>
      <point x="357" y="387"/>
      <point x="374" y="402" type="curve" smooth="yes"/>
      <point x="421" y="445"/>
      <point x="494" y="523"/>
      <point x="541" y="576" type="curve" smooth="yes"/>
      <point x="549" y="586"/>
      <point x="569" y="589"/>
      <point x="573" y="586" type="curve" smooth="yes"/>
    </contour>
  </outline>
</glyph>
<glyph name="Oslash" format="1">
  <advance width="851"/>
  <unicode hex="00D8"/>
  <outline>
    <contour>
      <point x="805" y="342" type="curve" smooth="yes"/>
      <point x="805" y="137"/>
      <point x="641" y="-21"/>
      <point x="429" y="-21" type="curve" smooth="yes"/>
      <point x="356" y="-21"/>
      <point x="283" y="-2"/>
      <point x="221" y="32" type="curve" smooth="yes"/>
      <point x="212" y="37"/>
      <point x="202" y="39"/>
      <point x="192" y="27" type="curve" smooth="yes"/>
      <point x="117" y="-62" type="line" smooth="yes"/>
      <point x="111" y="-69"/>
      <point x="106" y="-75"/>
      <point x="98" y="-68" type="curve" smooth="yes"/>
      <point x="89" y="-61"/>
      <point x="78" y="-55"/>
      <point x="88" y="-43" type="curve" smooth="yes"/>
      <point x="166" y="44" type="line" smooth="yes"/>
      <point x="174" y="53"/>
      <point x="172" y="64"/>
      <point x="168" y="67" type="curve" smooth="yes"/>
      <point x="93" y="129"/>
      <point x="50" y="217"/>
      <point x="50" y="317" type="curve" smooth="yes"/>
      <point x="50" y="520"/>
      <point x="216" y="675"/>
      <point x="432" y="675" type="curve" smooth="yes"/>
      <point x="509" y="675"/>
      <point x="580" y="658"/>
      <point x="646" y="618" type="curve" smooth="yes"/>
      <point x="654" y="613"/>
      <point x="659" y="615"/>
      <point x="667" y="624" type="curve" smooth="yes"/>
      <point x="728" y="698" type="line" smooth="yes"/>
      <point x="731" y="701"/>
      <point x="738" y="705"/>
      <point x="746" y="699" type="curve" smooth="yes"/>
      <point x="754" y="693" type="line" smooth="yes"/>
      <point x="763" y="687"/>
      <point x="757" y="678"/>
      <point x="750" y="670" type="curve" smooth="yes"/>
      <point x="691" y="603" type="line" smooth="yes"/>
      <point x="683" y="594"/>
      <point x="688" y="589"/>
      <point x="695" y="583" type="curve" smooth="yes"/>
      <point x="770" y="518"/>
      <point x="805" y="441"/>
    </contour>
    <contour>
      <point x="594" y="566" type="curve" smooth="yes"/>
      <point x="543" y="613"/>
      <point x="477" y="639"/>
      <point x="403" y="639" type="curve" smooth="yes"/>
      <point x="262" y="639"/>
      <point x="159" y="516"/>
      <point x="159" y="342" type="curve" smooth="yes"/>
      <point x="159" y="264"/>
      <point x="180" y="195"/>
      <point x="219" y="139" type="curve" smooth="yes"/>
      <point x="229" y="125"/>
      <point x="238" y="128"/>
      <point x="245" y="136" type="curve" smooth="yes"/>
      <point x="332" y="242"/>
      <point x="504" y="445"/>
      <point x="592" y="542" type="curve" smooth="yes"/>
      <point x="599" y="548"/>
      <point x="605" y="556"/>
    </contour>
    <contour>
      <point x="696" y="310" type="curve" smooth="yes"/>
      <point x="696" y="390"/>
      <point x="676" y="461"/>
      <point x="636" y="519" type="curve" smooth="yes"/>
      <point x="633" y="523"/>
      <point x="624" y="525"/>
      <point x="616" y="516" type="curve" smooth="yes"/>
      <point x="528" y="414"/>
      <point x="354" y="211"/>
      <point x="267" y="110" type="curve" smooth="yes"/>
      <point x="257" y="98"/>
      <point x="266" y="86"/>
      <point x="270" y="82" type="curve" smooth="yes"/>
      <point x="323" y="37"/>
      <point x="381" y="15"/>
      <point x="447" y="15" type="curve" smooth="yes"/>
      <point x="531" y="15"/>
      <point x="591" y="46"/>
      <point x="638" y="114" type="curve" smooth="yes"/>
      <point x="676" y="168"/>
      <point x="696" y="235"/>
    </contour>
  </outline>
</glyph>
<glyph name="Ugrave" format="1">
  <advance width="815"/>
  <unicode hex="00D9"/>
  <outline>
    <contour>
      <point x="469" y="710" type="curve" smooth="yes"/>
      <point x="469" y="697"/>
      <point x="451" y="696"/>
      <point x="444" y="703" type="curve" smooth="yes"/>
      <point x="412" y="745"/>
      <point x="353" y="814"/>
      <point x="309" y="861" type="curve" smooth="yes"/>
      <point x="304" y="867"/>
      <point x="311" y="880"/>
      <point x="324" y="880" type="curve" smooth="yes"/>
      <point x="401" y="881" type="line" smooth="yes"/>
      <point x="409" y="881"/>
      <point x="415" y="881"/>
      <point x="420" y="873" type="curve" smooth="yes"/>
      <point x="437" y="828"/>
      <point x="459" y="753"/>
    </contour>
    <contour>
      <point x="793" y="635" type="curve" smooth="yes"/>
      <point x="793" y="628"/>
      <point x="790" y="620"/>
      <point x="784" y="619" type="curve" smooth="yes"/>
      <point x="707" y="616"/>
      <point x="692" y="597"/>
      <point x="692" y="489" type="curve" smooth="yes"/>
      <point x="692" y="305" type="line" smooth="yes"/>
      <point x="692" y="201"/>
      <point x="691" y="128"/>
      <point x="608" y="55" type="curve" smooth="yes"/>
      <point x="551" y="4"/>
      <point x="500" y="-19"/>
      <point x="402" y="-19" type="curve" smooth="yes"/>
      <point x="266" y="-19"/>
      <point x="185" y="35"/>
      <point x="141" y="131" type="curve" smooth="yes"/>
      <point x="121" y="176"/>
      <point x="118" y="198"/>
      <point x="118" y="295" type="curve" smooth="yes"/>
      <point x="118" y="555" type="line" smooth="yes"/>
      <point x="118" y="610"/>
      <point x="107" y="617"/>
      <point x="32" y="618" type="curve" smooth="yes"/>
      <point x="22" y="618"/>
      <point x="18" y="649"/>
      <point x="32" y="650" type="curve" smooth="yes"/>
      <point x="60" y="652"/>
      <point x="219" y="652"/>
      <point x="302" y="650" type="curve" smooth="yes"/>
      <point x="316" y="650"/>
      <point x="312" y="616"/>
      <point x="302" y="618" type="curve" smooth="yes"/>
      <point x="292" y="618" type="line" smooth="yes"/>
      <point x="233" y="618"/>
      <point x="218" y="603"/>
      <point x="216" y="549" type="curve" smooth="yes"/>
      <point x="216" y="534"/>
      <point x="215" y="520"/>
      <point x="215" y="505" type="curve" smooth="yes"/>
      <point x="215" y="481"/>
      <point x="215" y="431"/>
      <point x="215" y="310" type="curve" smooth="yes"/>
      <point x="215" y="164"/>
      <point x="259" y="47"/>
      <point x="425" y="47" type="curve" smooth="yes"/>
      <point x="532" y="47"/>
      <point x="590" y="91"/>
      <point x="618" y="166" type="curve" smooth="yes"/>
      <point x="635" y="211"/>
      <point x="634" y="256"/>
      <point x="634" y="304" type="curve" smooth="yes"/>
      <point x="634" y="485" type="line" smooth="yes"/>
      <point x="634" y="596"/>
      <point x="622" y="615"/>
      <point x="544" y="617" type="curve"/>
      <point x="537" y="619" type="line" smooth="yes"/>
      <point x="527" y="619"/>
      <point x="522" y="650"/>
      <point x="537" y="650" type="curve" smooth="yes"/>
      <point x="588" y="651"/>
      <point x="722" y="651"/>
      <point x="784" y="650" type="curve" smooth="yes"/>
      <point x="790" y="650"/>
      <point x="793" y="642"/>
    </contour>
  </outline>
</glyph>
<glyph name="atilde" format="1">
  <advance width="414"/>
  <unicode hex="00E3"/>
  <outline>
    <contour>
      <point x="397" y="46" type="curve"/>
      <point x="356" y="10"/>
      <point x="316" y="-12"/>
      <point x="291" y="-12" type="curve" smooth="yes"/>
      <point x="262" y="-12"/>
      <point x="245" y="5"/>
      <point x="239" y="40" type="curve" smooth="yes"/>
      <point x="237" y="49"/>
      <point x="227" y="37"/>
      <point x="224" y="35" type="curve" smooth="yes"/>
      <point x="181" y="-2"/>
      <point x="160" y="-12"/>
      <point x="122" y="-12" type="curve" smooth="yes"/>
      <point x="65" y="-12"/>
      <point x="25" y="25"/>
      <point x="25" y="78" type="curve" smooth="yes"/>
      <point x="25" y="129"/>
      <point x="62" y="162"/>
      <point x="131" y="180" type="curve" smooth="yes"/>
      <point x="167" y="190"/>
      <point x="192" y="201"/>
      <point x="226" y="217" type="curve" smooth="yes"/>
      <point x="229" y="219"/>
      <point x="237" y="225"/>
      <point x="237" y="235" type="curve" smooth="yes"/>
      <point x="236" y="299" type="line" smooth="yes"/>
      <point x="235" y="357"/>
      <point x="210" y="389"/>
      <point x="168" y="389" type="curve" smooth="yes"/>
      <point x="147" y="389"/>
      <point x="111" y="367"/>
      <point x="111" y="344" type="curve" smooth="yes"/>
      <point x="111" y="335"/>
      <point x="110" y="329"/>
      <point x="114" y="320" type="curve"/>
      <point x="107" y="312"/>
      <point x="61" y="292"/>
      <point x="54" y="290" type="curve" smooth="yes"/>
      <point x="37" y="284"/>
      <point x="31" y="286"/>
      <point x="31" y="305" type="curve" smooth="yes"/>
      <point x="31" y="330"/>
      <point x="55" y="360"/>
      <point x="94" y="390" type="curve" smooth="yes"/>
      <point x="131" y="420"/>
      <point x="156" y="431"/>
      <point x="188" y="431" type="curve" smooth="yes"/>
      <point x="231" y="431"/>
      <point x="277" y="407"/>
      <point x="300" y="374" type="curve" smooth="yes"/>
      <point x="316" y="352"/>
      <point x="317" y="344"/>
      <point x="317" y="281" type="curve" smooth="yes"/>
      <point x="317" y="99" type="line" smooth="yes"/>
      <point x="317" y="57"/>
      <point x="325" y="50"/>
      <point x="339" y="50" type="curve" smooth="yes"/>
      <point x="346" y="50"/>
      <point x="351" y="50"/>
      <point x="357" y="53" type="curve" smooth="yes"/>
      <point x="363" y="55"/>
      <point x="371" y="59"/>
      <point x="381" y="68" type="curve" smooth="yes"/>
      <point x="384" y="70"/>
      <point x="385" y="71"/>
      <point x="390" y="71" type="curve" smooth="yes"/>
      <point x="401" y="69"/>
      <point x="400" y="54"/>
    </contour>
    <contour>
      <point x="236" y="89" type="curve"/>
      <point x="236" y="172" type="line" smooth="yes"/>
      <point x="236" y="176"/>
      <point x="236" y="187"/>
      <point x="227" y="183" type="curve" smooth="yes"/>
      <point x="204" y="172"/>
      <point x="180" y="162"/>
      <point x="156" y="152" type="curve" smooth="yes"/>
      <point x="116" y="136"/>
      <point x="102" y="118"/>
      <point x="102" y="91" type="curve" smooth="yes"/>
      <point x="102" y="60"/>
      <point x="126" y="36"/>
      <point x="157" y="36" type="curve" smooth="yes"/>
      <point x="177" y="36"/>
      <point x="228" y="66"/>
    </contour>
    <contour>
      <point x="358" y="593" type="curve" smooth="yes"/>
      <point x="358" y="522"/>
      <point x="317" y="469"/>
      <point x="259" y="469" type="curve" smooth="yes"/>
      <point x="232" y="469"/>
      <point x="200" y="482"/>
      <point x="162" y="508" type="curve" smooth="yes"/>
      <point x="125" y="534"/>
      <point x="116" y="537"/>
      <point x="103" y="537" type="curve" smooth="yes"/>
      <point x="84" y="537"/>
      <point x="74" y="526"/>
      <point x="66" y="490" type="curve" smooth="yes"/>
      <point x="66" y="486"/>
      <point x="64" y="482"/>
      <point x="63" y="472" type="curve" smooth="yes"/>
      <point x="59" y="464"/>
      <point x="38" y="459"/>
      <point x="36" y="472" type="curve" smooth="yes"/>
      <point x="40" y="558"/>
      <point x="73" y="607"/>
      <point x="134" y="607" type="curve" smooth="yes"/>
      <point x="164" y="607"/>
      <point x="187" y="598"/>
      <point x="232" y="567" type="curve" smooth="yes"/>
      <point x="263" y="546"/>
      <point x="279" y="540"/>
      <point x="291" y="540" type="curve" smooth="yes"/>
      <point x="312" y="540"/>
      <point x="323" y="552"/>
      <point x="331" y="606" type="curve" smooth="yes"/>
      <point x="331" y="610"/>
      <point x="338" y="612"/>
      <point x="344" y="612" type="curve" smooth="yes"/>
      <point x="350" y="613"/>
      <point x="356" y="610"/>
      <point x="356" y="606" type="curve" smooth="yes"/>
      <point x="358" y="600"/>
      <point x="358" y="596"/>
    </contour>
  </outline>
</glyph>
<glyph name="ccedilla" format="1">
  <advance width="422"/>
  <unicode hex="00E7"/>
  <outline>
    <contour>
      <point x="386" y="112" type="curve" smooth="yes"/>
      <point x="393" y="107"/>
      <point x="387" y="96"/>
      <point x="385" y="93" type="curve" smooth="yes"/>
      <point x="347" y="35"/>
      <point x="298" y="-1"/>
      <point x="240" y="-10" type="curve"/>
      <point x="222" y="-43" type="line" smooth="yes"/>
      <point x="218" y="-50"/>
      <point x="214" y="-59"/>
      <point x="220" y="-60" type="curve" smooth="yes"/>
      <point x="258" y="-65"/>
      <point x="288" y="-98"/>
      <point x="288" y="-140" type="curve" smooth="yes"/>
      <point x="288" y="-192"/>
      <point x="245" y="-234"/>
      <point x="194" y="-234" type="curve" smooth="yes"/>
      <point x="180" y="-234"/>
      <point x="168" y="-233"/>
      <point x="151" y="-227" type="curve" smooth="yes"/>
      <point x="148" y="-226"/>
      <point x="144" y="-218"/>
      <point x="147" y="-212" type="curve" smooth="yes"/>
      <point x="149" y="-210"/>
      <point x="150" y="-207"/>
      <point x="151" y="-205" type="curve" smooth="yes"/>
      <point x="156" y="-196"/>
      <point x="175" y="-204"/>
      <point x="183" y="-204" type="curve" smooth="yes"/>
      <point x="211" y="-204"/>
      <point x="232" y="-183"/>
      <point x="232" y="-158" type="curve" smooth="yes"/>
      <point x="232" y="-110"/>
      <point x="184" y="-115"/>
      <point x="150" y="-143" type="curve" smooth="yes"/>
      <point x="146" y="-147"/>
      <point x="133" y="-140"/>
      <point x="138" y="-132" type="curve" smooth="yes"/>
      <point x="202" y="-26" type="line" smooth="yes"/>
      <point x="205" y="-20"/>
      <point x="204" y="-12"/>
      <point x="197" y="-12" type="curve" smooth="yes"/>
      <point x="96" y="-7"/>
      <point x="25" y="79"/>
      <point x="25" y="193" type="curve" smooth="yes"/>
      <point x="25" y="326"/>
      <point x="133" y="432"/>
      <point x="267" y="432" type="curve" smooth="yes"/>
      <point x="330" y="432"/>
      <point x="386" y="407"/>
      <point x="386" y="368" type="curve" smooth="yes"/>
      <point x="386" y="347"/>
      <point x="370" y="331"/>
      <point x="350" y="331" type="curve" smooth="yes"/>
      <point x="329" y="331"/>
      <point x="314" y="341"/>
      <point x="288" y="366" type="curve" smooth="yes"/>
      <point x="266" y="388"/>
      <point x="251" y="394"/>
      <point x="231" y="394" type="curve" smooth="yes"/>
      <point x="165" y="394"/>
      <point x="105" y="313"/>
      <point x="105" y="216" type="curve" smooth="yes"/>
      <point x="105" y="113"/>
      <point x="164" y="42"/>
      <point x="243" y="42" type="curve" smooth="yes"/>
      <point x="294" y="42"/>
      <point x="333" y="68"/>
      <point x="361" y="109" type="curve" smooth="yes"/>
      <point x="363" y="114"/>
      <point x="371" y="123"/>
      <point x="378" y="121" type="curve" smooth="yes"/>
      <point x="384" y="118"/>
      <point x="382" y="117"/>
    </contour>
  </outline>
</glyph>
<glyph name="igrave" format="1">
  <advance width="262"/>
  <unicode hex="00EC"/>
  <outline>
    <contour>
      <point x="246" y="13" type="curve" smooth="yes"/>
      <point x="246" y="6"/>
      <point x="242" y="-2"/>
      <point x="240" y="-2" type="curve" smooth="yes"/>
      <point x="189" y="-1"/>
      <point x="96" y="-1"/>
      <point x="29" y="-2" type="curve" smooth="yes"/>
      <point x="25" y="-3"/>
      <point x="21" y="5"/>
      <point x="20" y="13" type="curve" smooth="yes"/>
      <point x="19" y="21"/>
      <point x="21" y="30"/>
      <point x="27" y="30" type="curve" smooth="yes"/>
      <point x="40" y="30" type="line" smooth="yes"/>
      <point x="99" y="30"/>
      <point x="100" y="40"/>
      <point x="100" y="125" type="curve" smooth="yes"/>
      <point x="100" y="304" type="line" smooth="yes"/>
      <point x="100" y="354"/>
      <point x="98" y="354"/>
      <point x="73" y="359" type="curve" smooth="yes"/>
      <point x="58" y="362"/>
      <point x="46" y="365"/>
      <point x="32" y="370" type="curve" smooth="yes"/>
      <point x="25" y="372"/>
      <point x="25" y="391"/>
      <point x="31" y="395" type="curve" smooth="yes"/>
      <point x="158" y="439" type="line" smooth="yes"/>
      <point x="172" y="444"/>
      <point x="178" y="440"/>
      <point x="178" y="425" type="curve" smooth="yes"/>
      <point x="178" y="125" type="line" smooth="yes"/>
      <point x="178" y="104"/>
      <point x="178" y="87"/>
      <point x="179" y="73" type="curve" smooth="yes"/>
      <point x="181" y="35"/>
      <point x="188" y="30"/>
      <point x="229" y="30" type="curve" smooth="yes"/>
      <point x="240" y="30" type="line" smooth="yes"/>
      <point x="244" y="29"/>
      <point x="247" y="21"/>
    </contour>
    <contour>
      <point x="152" y="487" type="curve" smooth="yes"/>
      <point x="153" y="474"/>
      <point x="135" y="473"/>
      <point x="127" y="480" type="curve" smooth="yes"/>
      <point x="95" y="522"/>
      <point x="36" y="591"/>
      <point x="-7" y="638" type="curve" smooth="yes"/>
      <point x="-13" y="644"/>
      <point x="-5" y="657"/>
      <point x="7" y="657" type="curve" smooth="yes"/>
      <point x="84" y="658" type="line" smooth="yes"/>
      <point x="93" y="658"/>
      <point x="98" y="658"/>
      <point x="103" y="650" type="curve" smooth="yes"/>
      <point x="120" y="605"/>
      <point x="142" y="530"/>
    </contour>
  </outline>
</glyph>
<glyph name="oacute" format="1">
  <advance width="495"/>
  <unicode hex="00F3"/>
  <outline>
    <contour>
      <point x="386" y="652" type="curve" smooth="yes"/>
      <point x="386" y="650"/>
      <point x="385" y="648"/>
      <point x="385" y="647" type="curve" smooth="yes"/>
      <point x="242" y="475" type="line" smooth="yes"/>
      <point x="235" y="468"/>
      <point x="211" y="468"/>
      <point x="216" y="484" type="curve" smooth="yes"/>
      <point x="265" y="648" type="line" smooth="yes"/>
      <point x="269" y="656"/>
      <point x="277" y="661"/>
      <point x="283" y="661" type="curve" smooth="yes"/>
      <point x="372" y="661" type="line" smooth="yes"/>
      <point x="379" y="661"/>
      <point x="388" y="660"/>
    </contour>
    <contour>
      <point x="476" y="206" type="curve" smooth="yes"/>
      <point x="476" y="82"/>
      <point x="377" y="-15"/>
      <point x="251" y="-15" type="curve" smooth="yes"/>
      <point x="121" y="-15"/>
      <point x="23" y="81"/>
      <point x="23" y="207" type="curve" smooth="yes"/>
      <point x="23" y="335"/>
      <point x="120" y="430"/>
      <point x="248" y="430" type="curve" smooth="yes"/>
      <point x="377" y="430"/>
      <point x="477" y="333"/>
    </contour>
    <contour>
      <point x="387" y="182" type="curve" smooth="yes"/>
      <point x="387" y="298"/>
      <point x="316" y="394"/>
      <point x="234" y="394" type="curve" smooth="yes"/>
      <point x="164" y="394"/>
      <point x="110" y="329"/>
      <point x="110" y="239" type="curve" smooth="yes"/>
      <point x="110" y="117"/>
      <point x="180" y="22"/>
      <point x="263" y="22" type="curve" smooth="yes"/>
      <point x="333" y="22"/>
      <point x="387" y="88"/>
    </contour>
  </outline>
</glyph>
<glyph name="yacute" format="1">
  <advance width="491"/>
  <unicode hex="00FD"/>
  <outline>
    <contour>
      <point x="359" y="652" type="curve" smooth="yes"/>
      <point x="359" y="650"/>
      <point x="358" y="648"/>
      <point x="358" y="647" type="curve" smooth="yes"/>
      <point x="215" y="475" type="line" smooth="yes"/>
      <point x="208" y="468"/>
      <point x="184" y="468"/>
      <point x="189" y="484" type="curve" smooth="yes"/>
      <point x="238" y="648" type="line" smooth="yes"/>
      <point x="242" y="656"/>
      <point x="249" y="661"/>
      <point x="256" y="661" type="curve" smooth="yes"/>
      <point x="345" y="661" type="line" smooth="yes"/>
      <point x="352" y="661"/>
      <point x="361" y="660"/>
    </contour>
    <contour>
      <point x="476" y="410" type="curve" smooth="yes"/>
      <point x="478" y="402"/>
      <point x="474" y="389"/>
      <point x="470" y="389" type="curve" smooth="yes"/>
      <point x="430" y="384"/>
      <point x="413" y="368"/>
      <point x="372" y="259" type="curve" smooth="yes"/>
      <point x="248" y="-75" type="line" smooth="yes"/>
      <point x="230" y="-122"/>
      <point x="218" y="-155"/>
      <point x="206" y="-182" type="curve" smooth="yes"/>
      <point x="195" y="-208"/>
      <point x="184" y="-226"/>
      <point x="170" y="-243" type="curve" smooth="yes"/>
      <point x="159" y="-257"/>
      <point x="141" y="-264"/>
      <point x="124" y="-264" type="curve" smooth="yes"/>
      <point x="99" y="-264"/>
      <point x="77" y="-243"/>
      <point x="77" y="-219" type="curve" smooth="yes"/>
      <point x="77" y="-196"/>
      <point x="95" y="-184"/>
      <point x="127" y="-176" type="curve" smooth="yes"/>
      <point x="167" y="-165"/>
      <point x="192" y="-135"/>
      <point x="217" y="-54" type="curve" smooth="yes"/>
      <point x="231" y="-8" type="line"/>
      <point x="103" y="294" type="line" smooth="yes"/>
      <point x="66" y="382"/>
      <point x="62" y="385"/>
      <point x="15" y="389" type="curve" smooth="yes"/>
      <point x="11" y="390"/>
      <point x="7" y="402"/>
      <point x="9" y="410" type="curve" smooth="yes"/>
      <point x="12" y="421"/>
      <point x="20" y="420"/>
      <point x="29" y="419" type="curve" smooth="yes"/>
      <point x="71" y="416"/>
      <point x="151" y="420"/>
      <point x="199" y="421" type="curve" smooth="yes"/>
      <point x="207" y="421"/>
      <point x="215" y="422"/>
      <point x="218" y="413" type="curve" smooth="yes"/>
      <point x="220" y="404"/>
      <point x="217" y="390"/>
      <point x="212" y="389" type="curve" smooth="yes"/>
      <point x="167" y="388"/>
      <point x="160" y="379"/>
      <point x="160" y="364" type="curve" smooth="yes"/>
      <point x="160" y="357"/>
      <point x="162" y="349"/>
      <point x="171" y="329" type="curve" smooth="yes"/>
      <point x="204" y="256"/>
      <point x="233" y="179"/>
      <point x="263" y="105" type="curve" smooth="yes"/>
      <point x="266" y="98"/>
      <point x="278" y="115"/>
      <point x="279" y="118" type="curve" smooth="yes"/>
      <point x="339" y="271" type="line" smooth="yes"/>
      <point x="343" y="281"/>
      <point x="349" y="296"/>
      <point x="354" y="312" type="curve" smooth="yes"/>
      <point x="359" y="327"/>
      <point x="363" y="343"/>
      <point x="363" y="353" type="curve" smooth="yes"/>
      <point x="363" y="378"/>
      <point x="352" y="388"/>
      <point x="302" y="389" type="curve" smooth="yes"/>
      <point x="296" y="392"/>
      <point x="292" y="417"/>
      <point x="305" y="418" type="curve" smooth="yes"/>
      <point x="307" y="419"/>
      <point x="310" y="418"/>
      <point x="313" y="418" type="curve" smooth="yes"/>
      <point x="349" y="420"/>
      <point x="426" y="421"/>
      <point x="457" y="419" type="curve" smooth="yes"/>
      <point x="465" y="419"/>
      <point x="474" y="421"/>
    </contour>
  </outline>
</glyph>
<glyph name="thorn" format="1">
  <advance width="523"/>
  <unicode hex="00FE"/>
  <outline>
    <contour>
      <point x="480" y="238" type="curve" smooth="yes"/>
      <point x="480" y="110"/>
      <point x="375" y="-1"/>
      <point x="253" y="-1" type="curve" smooth="yes"/>
      <point x="229" y="-1"/>
      <point x="205" y="3"/>
      <point x="175" y="13" type="curve" smooth="yes"/>
      <point x="166" y="16"/>
      <point x="165" y="3"/>
      <point x="165" y="-9" type="curve" smooth="yes"/>
      <point x="165" y="-111" type="line" smooth="yes"/>
      <point x="165" y="-199"/>
      <point x="174" y="-222"/>
      <point x="230" y="-218" type="curve" smooth="yes"/>
      <point x="245" y="-217" type="line" smooth="yes"/>
      <point x="258" y="-216"/>
      <point x="260" y="-219"/>
      <point x="261" y="-230" type="curve" smooth="yes"/>
      <point x="263" y="-245"/>
      <point x="267" y="-253"/>
      <point x="246" y="-252" type="curve" smooth="yes"/>
      <point x="191" y="-251"/>
      <point x="65" y="-250"/>
      <point x="17" y="-252" type="curve" smooth="yes"/>
      <point x="7" y="-252"/>
      <point x="3" y="-249"/>
      <point x="3" y="-241" type="curve" smooth="yes"/>
      <point x="4" y="-225" type="line" smooth="yes"/>
      <point x="5" y="-212"/>
      <point x="19" y="-218"/>
      <point x="27" y="-218" type="curve" smooth="yes"/>
      <point x="75" y="-217"/>
      <point x="84" y="-210"/>
      <point x="84" y="-111" type="curve" smooth="yes"/>
      <point x="84" y="541" type="line"/>
      <point x="84" y="567" type="line" smooth="yes"/>
      <point x="84" y="592"/>
      <point x="82" y="593"/>
      <point x="58" y="600" type="curve" smooth="yes"/>
      <point x="30" y="608" type="line" smooth="yes"/>
      <point x="20" y="611"/>
      <point x="19" y="621"/>
      <point x="19" y="629" type="curve" smooth="yes"/>
      <point x="19" y="634"/>
      <point x="18" y="636"/>
      <point x="23" y="639" type="curve" smooth="yes"/>
      <point x="24" y="640"/>
      <point x="26" y="641"/>
      <point x="28" y="642" type="curve" smooth="yes"/>
      <point x="137" y="709" type="line"/>
      <point x="157" y="716"/>
      <point x="165" y="715"/>
      <point x="165" y="693" type="curve" smooth="yes"/>
      <point x="165" y="409" type="line" smooth="yes"/>
      <point x="165" y="401"/>
      <point x="166" y="392"/>
      <point x="168" y="385" type="curve" smooth="yes"/>
      <point x="170" y="379"/>
      <point x="174" y="375"/>
      <point x="178" y="379" type="curve" smooth="yes"/>
      <point x="243" y="424"/>
      <point x="280" y="440"/>
      <point x="320" y="440" type="curve" smooth="yes"/>
      <point x="406" y="440"/>
      <point x="480" y="344"/>
    </contour>
    <contour>
      <point x="399" y="199" type="curve" smooth="yes"/>
      <point x="399" y="301"/>
      <point x="341" y="377"/>
      <point x="269" y="377" type="curve" smooth="yes"/>
      <point x="238" y="377"/>
      <point x="201" y="360"/>
      <point x="165" y="329" type="curve"/>
      <point x="165" y="97" type="line"/>
      <point x="201" y="63"/>
      <point x="246" y="43"/>
      <point x="282" y="43" type="curve" smooth="yes"/>
      <point x="348" y="43"/>
      <point x="399" y="108"/>
    </contour>
  </outline>
</glyph>
<glyph name="Zcaron" format="1">
  <advance width="709"/>
  <unicode hex="017D"/>
  <outline>
    <contour>
      <point x="505" y="880" type="curve" smooth="yes"/>
      <point x="408" y="709" type="line" smooth="yes"/>
      <point x="404" y="705"/>
      <point x="402" y="704"/>
      <point x="394" y="704" type="curve" smooth="yes"/>
      <point x="318" y="704" type="line" smooth="yes"/>
      <point x="307" y="704"/>
      <point x="301" y="708"/>
      <point x="301" y="712" type="curve" smooth="yes"/>
      <point x="204" y="879" type="line" smooth="yes"/>
      <point x="202" y="882"/>
      <point x="204" y="884"/>
      <point x="206" y="885" type="curve" smooth="yes"/>
      <point x="208" y="886"/>
      <point x="211" y="886"/>
      <point x="214" y="886" type="curve" smooth="yes"/>
      <point x="220" y="886"/>
      <point x="227" y="885"/>
      <point x="230" y="881" type="curve" smooth="yes"/>
      <point x="365" y="776" type="line"/>
      <point x="478" y="881" type="line" smooth="yes"/>
      <point x="481" y="883"/>
      <point x="487" y="885"/>
      <point x="493" y="885" type="curve" smooth="yes"/>
      <point x="500" y="885"/>
      <point x="506" y="883"/>
    </contour>
    <contour>
      <point x="636" y="195" type="curve" smooth="yes"/>
      <point x="634" y="145"/>
      <point x="628" y="56"/>
      <point x="623" y="10" type="curve" smooth="yes"/>
      <point x="621" y="0"/>
      <point x="599" y="-2"/>
      <point x="593" y="-2" type="curve" smooth="yes"/>
      <point x="521" y="-2"/>
      <point x="389" y="-3"/>
      <point x="275" y="-3" type="curve" smooth="yes"/>
      <point x="160" y="-3"/>
      <point x="61" y="-3"/>
      <point x="56" y="-2" type="curve" smooth="yes"/>
      <point x="47" y="-2"/>
      <point x="34" y="1"/>
      <point x="35" y="15" type="curve" smooth="yes"/>
      <point x="36" y="19"/>
      <point x="39" y="27"/>
      <point x="41" y="30" type="curve" smooth="yes"/>
      <point x="469" y="588" type="line" smooth="yes"/>
      <point x="476" y="597"/>
      <point x="459" y="602"/>
      <point x="454" y="602" type="curve" smooth="yes"/>
      <point x="240" y="602" type="line" smooth="yes"/>
      <point x="141" y="602"/>
      <point x="127" y="595"/>
      <point x="115" y="495" type="curve" smooth="yes"/>
      <point x="115" y="490"/>
      <point x="92" y="488"/>
      <point x="87" y="500" type="curve"/>
      <point x="87" y="536"/>
      <point x="88" y="606"/>
      <point x="92" y="640" type="curve" smooth="yes"/>
      <point x="94" y="647"/>
      <point x="107" y="649"/>
      <point x="114" y="650" type="curve" smooth="yes"/>
      <point x="590" y="650" type="line" smooth="yes"/>
      <point x="610" y="650"/>
      <point x="625" y="639"/>
      <point x="610" y="619" type="curve" smooth="yes"/>
      <point x="187" y="71" type="line" smooth="yes"/>
      <point x="181" y="65"/>
      <point x="172" y="48"/>
      <point x="211" y="48" type="curve" smooth="yes"/>
      <point x="465" y="48" type="line" smooth="yes"/>
      <point x="569" y="48"/>
      <point x="594" y="83"/>
      <point x="604" y="183" type="curve" smooth="yes"/>
      <point x="605" y="193" type="line"/>
      <point x="610" y="199"/>
      <point x="636" y="202"/>
    </contour>
  </outline>
</glyph>
<glyph name="dotaccent" format="1">
  <advance width="349"/>
  <unicode hex="02D9"/>
  <outline>
    <contour>
      <point x="235" y="537" type="curve" smooth="yes"/>
      <point x="235" y="504"/>
      <point x="208" y="476"/>
      <point x="175" y="476" type="curve" smooth="yes"/>
      <point x="142" y="476"/>
      <point x="115" y="504"/>
      <point x="115" y="537" type="curve" smooth="yes"/>
      <point x="115" y="569"/>
      <point x="142" y="597"/>
      <point x="175" y="597" type="curve" smooth="yes"/>
      <point x="208" y="597"/>
      <point x="235" y="570"/>
    </contour>
  </outline>
</glyph>
<glyph name="ring" format="1">
  <advance width="349"/>
  <unicode hex="02DA"/>
  <outline>
    <contour>
      <point x="274" y="577" type="curve" smooth="yes"/>
      <point x="274" y="520"/>
      <point x="228" y="474"/>
      <point x="173" y="474" type="curve" smooth="yes"/>
      <point x="116" y="474"/>
      <point x="70" y="520"/>
      <point x="70" y="577" type="curve" smooth="yes"/>
      <point x="70" y="634"/>
      <point x="116" y="680"/>
      <point x="173" y="680" type="curve" smooth="yes"/>
      <point x="228" y="680"/>
      <point x="274" y="634"/>
    </contour>
    <contour>
      <point x="227" y="577" type="curve" smooth="yes"/>
      <point x="227" y="608"/>
      <point x="202" y="633"/>
      <point x="173" y="633" type="curve" smooth="yes"/>
      <point x="142" y="633"/>
      <point x="117" y="608"/>
      <point x="117" y="577" type="curve" smooth="yes"/>
      <point x="117" y="546"/>
      <point x="142" y="521"/>
      <point x="173" y="521" type="curve" smooth="yes"/>
      <point x="202" y="521"/>
      <point x="227" y="546"/>
    </contour>
  </outline>
</glyph>
<glyph name="endash" format="1">
  <advance width="609"/>
  <unicode hex="2013"/>
  <outline>
    <contour>
      <point x="574" y="221" type="line" smooth="yes"/>
      <point x="573" y="214"/>
      <point x="567" y="212"/>
      <point x="558" y="212" type="curve" smooth="yes"/>
      <point x="346" y="214"/>
      <point x="222" y="214"/>
      <point x="48" y="212" type="curve" smooth="yes"/>
      <point x="44" y="212"/>
      <point x="38" y="219"/>
      <point x="38" y="225" type="curve" smooth="yes"/>
      <point x="39" y="260" type="line" smooth="yes"/>
      <point x="40" y="265"/>
      <point x="46" y="270"/>
      <point x="51" y="271" type="curve" smooth="yes"/>
      <point x="205" y="276"/>
      <point x="451" y="273"/>
      <point x="560" y="271" type="curve" smooth="yes"/>
      <point x="568" y="271"/>
      <point x="574" y="263"/>
      <point x="574" y="258" type="curve" smooth="yes"/>
    </contour>
  </outline>
</glyph>
<glyph name="quoteleft" format="1">
  <advance width="272"/>
  <unicode hex="2018"/>
  <outline>
    <contour>
      <point x="203" y="508" type="curve" smooth="yes"/>
      <point x="203" y="476"/>
      <point x="178" y="452"/>
      <point x="146" y="452" type="curve" smooth="yes"/>
      <point x="102" y="452"/>
      <point x="69" y="493"/>
      <point x="69" y="543" type="curve" smooth="yes"/>
      <point x="69" y="608"/>
      <point x="117" y="668"/>
      <point x="188" y="695" type="curve" smooth="yes"/>
      <point x="199" y="699"/>
      <point x="215" y="679"/>
      <point x="197" y="666" type="curve" smooth="yes"/>
      <point x="148" y="638"/>
      <point x="123" y="602"/>
      <point x="123" y="570" type="curve" smooth="yes"/>
      <point x="123" y="558"/>
      <point x="127" y="555"/>
      <point x="133" y="555" type="curve" smooth="yes"/>
      <point x="140" y="555"/>
      <point x="147" y="560"/>
      <point x="154" y="560" type="curve" smooth="yes"/>
      <point x="182" y="560"/>
      <point x="203" y="536"/>
    </contour>
  </outline>
</glyph>
<glyph name="quoteright" format="1">
  <advance width="272"/>
  <unicode hex="2019"/>
  <outline>
    <contour>
      <point x="205" y="606" type="curve" smooth="yes"/>
      <point x="205" y="546"/>
      <point x="162" y="486"/>
      <point x="99" y="456" type="curve" smooth="yes"/>
      <point x="93" y="453"/>
      <point x="82" y="449"/>
      <point x="77" y="455" type="curve" smooth="yes"/>
      <point x="71" y="462"/>
      <point x="68" y="474"/>
      <point x="77" y="480" type="curve" smooth="yes"/>
      <point x="127" y="509"/>
      <point x="152" y="543"/>
      <point x="152" y="575" type="curve" smooth="yes"/>
      <point x="152" y="583"/>
      <point x="151" y="593"/>
      <point x="141" y="591" type="curve" smooth="yes"/>
      <point x="134" y="589"/>
      <point x="127" y="587"/>
      <point x="119" y="587" type="curve" smooth="yes"/>
      <point x="91" y="587"/>
      <point x="71" y="609"/>
      <point x="71" y="638" type="curve" smooth="yes"/>
      <point x="71" y="670"/>
      <point x="97" y="694"/>
      <point x="129" y="694" type="curve" smooth="yes"/>
      <point x="173" y="694"/>
      <point x="205" y="657"/>
    </contour>
  </outline>
</glyph>
<glyph name="quotesinglbase" format="1">
  <advance width="257"/>
  <unicode hex="201A"/>
  <outline>
    <contour>
      <point x="191" y="-3" type="curve" smooth="yes"/>
      <point x="191" y="-64"/>
      <point x="148" y="-121"/>
      <point x="82" y="-147" type="curve" smooth="yes"/>
      <point x="77" y="-149"/>
      <point x="73" y="-144"/>
      <point x="71" y="-137" type="curve" smooth="yes"/>
      <point x="70" y="-130"/>
      <point x="70" y="-122"/>
      <point x="73" y="-121" type="curve" smooth="yes"/>
      <point x="120" y="-92"/>
      <point x="143" y="-61"/>
      <point x="143" y="-30" type="curve" smooth="yes"/>
      <point x="143" y="-18"/>
      <point x="139" y="-16"/>
      <point x="136" y="-16" type="curve" smooth="yes"/>
      <point x="136" y="-16"/>
      <point x="135" y="-16"/>
      <point x="133" y="-16" type="curve" smooth="yes"/>
      <point x="128" y="-17"/>
      <point x="124" y="-18"/>
      <point x="119" y="-19" type="curve" smooth="yes"/>
      <point x="117" y="-19"/>
      <point x="115" y="-19"/>
      <point x="112" y="-19" type="curve" smooth="yes"/>
      <point x="86" y="-19"/>
      <point x="67" y="2"/>
      <point x="67" y="29" type="curve" smooth="yes"/>
      <point x="67" y="59"/>
      <point x="92" y="81"/>
      <point x="122" y="81" type="curve" smooth="yes"/>
      <point x="163" y="81"/>
      <point x="191" y="44"/>
    </contour>
  </outline>
</glyph>
<glyph name="quotedblright" format="1">
  <advance width="501"/>
  <unicode hex="201D"/>
  <outline>
    <contour>
      <point x="438" y="606" type="curve" smooth="yes"/>
      <point x="438" y="546"/>
      <point x="394" y="485"/>
      <point x="329" y="455" type="curve" smooth="yes"/>
      <point x="322" y="452"/>
      <point x="311" y="448"/>
      <point x="306" y="455" type="curve" smooth="yes"/>
      <point x="300" y="462"/>
      <point x="299" y="475"/>
      <point x="307" y="480" type="curve" smooth="yes"/>
      <point x="359" y="508"/>
      <point x="384" y="543"/>
      <point x="384" y="575" type="curve" smooth="yes"/>
      <point x="384" y="589"/>
      <point x="380" y="592"/>
      <point x="374" y="591" type="curve" smooth="yes"/>
      <point x="372" y="591"/>
      <point x="370" y="591"/>
      <point x="369" y="590" type="curve" smooth="yes"/>
      <point x="362" y="589"/>
      <point x="356" y="587"/>
      <point x="350" y="587" type="curve" smooth="yes"/>
      <point x="323" y="587"/>
      <point x="302" y="609"/>
      <point x="302" y="638" type="curve" smooth="yes"/>
      <point x="302" y="670"/>
      <point x="328" y="694"/>
      <point x="361" y="694" type="curve" smooth="yes"/>
      <point x="404" y="694"/>
      <point x="438" y="657"/>
    </contour>
    <contour>
      <point x="213" y="606" type="curve" smooth="yes"/>
      <point x="213" y="546"/>
      <point x="168" y="485"/>
      <point x="103" y="455" type="curve" smooth="yes"/>
      <point x="100" y="454"/>
      <point x="87" y="449"/>
      <point x="81" y="457" type="curve" smooth="yes"/>
      <point x="76" y="464"/>
      <point x="74" y="475"/>
      <point x="82" y="480" type="curve" smooth="yes"/>
      <point x="134" y="508"/>
      <point x="159" y="543"/>
      <point x="159" y="575" type="curve" smooth="yes"/>
      <point x="159" y="588"/>
      <point x="154" y="592"/>
      <point x="151" y="592" type="curve" smooth="yes"/>
      <point x="147" y="592"/>
      <point x="142" y="590"/>
      <point x="139" y="589" type="curve" smooth="yes"/>
      <point x="134" y="588"/>
      <point x="129" y="587"/>
      <point x="125" y="587" type="curve" smooth="yes"/>
      <point x="98" y="587"/>
      <point x="77" y="609"/>
      <point x="77" y="638" type="curve" smooth="yes"/>
      <point x="77" y="670"/>
      <point x="103" y="694"/>
      <point x="136" y="694" type="curve" smooth="yes"/>
      <point x="179" y="694"/>
      <point x="213" y="657"/>
    </contour>
  </outline>
</glyph>
<glyph name="fraction" format="1">
  <advance width="242"/>
  <unicode hex="2044"/>
  <outline>
    <contour>
      <point x="342" y="691" type="line"/>
      <point x="-10" y="-204" type="line"/>
      <point x="-56" y="-204" type="line"/>
      <point x="296" y="691" type="line"/>
    </contour>
  </outline>
</glyph>
<glyph name="minus" format="1">
  <advance width="698"/>
  <unicode hex="2212"/>
  <outline>
    <contour>
      <point x="630" y="330" type="line" smooth="yes"/>
      <point x="630" y="325"/>
      <point x="630" y="321"/>
      <point x="629" y="318" type="curve" smooth="yes"/>
      <point x="629" y="314"/>
      <point x="628" y="312"/>
      <point x="626" y="310" type="curve" smooth="yes"/>
      <point x="623" y="306"/>
      <point x="616" y="305"/>
      <point x="603" y="305" type="curve" smooth="yes"/>
      <point x="469" y="309"/>
      <point x="262" y="309"/>
      <point x="105" y="306" type="curve" smooth="yes"/>
      <point x="85" y="306"/>
      <point x="71" y="306"/>
      <point x="71" y="327" type="curve" smooth="yes"/>
      <point x="71" y="353" type="line" smooth="yes"/>
      <point x="71" y="369"/>
      <point x="75" y="372"/>
      <point x="91" y="372" type="curve" smooth="yes"/>
      <point x="266" y="368"/>
      <point x="577" y="369"/>
      <point x="610" y="372" type="curve" smooth="yes"/>
      <point x="628" y="373"/>
      <point x="630" y="366"/>
      <point x="630" y="352" type="curve" smooth="yes"/>
    </contour>
  </outline>
</glyph>
<glyph name="f_i" format="1">
  <advance width="555"/>
  <unicode hex="FB01"/>
  <outline>
    <contour>
      <point x="506" y="25" type="line" smooth="yes"/>
      <point x="516" y="24"/>
      <point x="516" y="1"/>
      <point x="505" y="-4" type="curve"/>
      <point x="475" y="-2"/>
      <point x="445" y="-2"/>
      <point x="410" y="-2" type="curve" smooth="yes"/>
      <point x="378" y="-2"/>
      <point x="352" y="0"/>
      <point x="326" y="-2" type="curve" smooth="yes"/>
      <point x="318" y="-2"/>
      <point x="313" y="-5"/>
      <point x="310" y="5" type="curve" smooth="yes"/>
      <point x="303" y="27"/>
      <point x="318" y="26"/>
      <point x="335" y="28" type="curve" smooth="yes"/>
      <point x="371" y="33"/>
      <point x="372" y="41"/>
      <point x="372" y="113" type="curve" smooth="yes"/>
      <point x="372" y="286" type="line" smooth="yes"/>
      <point x="372" y="347"/>
      <point x="365" y="350"/>
      <point x="323" y="351" type="curve" smooth="yes"/>
      <point x="294" y="352"/>
      <point x="232" y="352"/>
      <point x="203" y="351" type="curve" smooth="yes"/>
      <point x="187" y="350"/>
      <point x="182" y="345"/>
      <point x="182" y="321" type="curve" smooth="yes"/>
      <point x="182" y="113" type="line" smooth="yes"/>
      <point x="182" y="41"/>
      <point x="184" y="31"/>
      <point x="218" y="28" type="curve" smooth="yes"/>
      <point x="250" y="25" type="line" smooth="yes"/>
      <point x="262" y="24"/>
      <point x="258" y="-1"/>
      <point x="248" y="-4" type="curve" smooth="yes"/>
      <point x="207" y="-2"/>
      <point x="177" y="-1"/>
      <point x="142" y="-1" type="curve" smooth="yes"/>
      <point x="109" y="-1"/>
      <point x="83" y="-2"/>
      <point x="55" y="-4" type="curve" smooth="yes"/>
      <point x="47" y="-4"/>
      <point x="43" y="-4"/>
      <point x="40" y="4" type="curve" smooth="yes"/>
      <point x="37" y="11"/>
      <point x="38" y="21"/>
      <point x="46" y="25" type="curve" smooth="yes"/>
      <point x="69" y="28" type="line" smooth="yes"/>
      <point x="104" y="33"/>
      <point x="105" y="41"/>
      <point x="105" y="113" type="curve" smooth="yes"/>
      <point x="105" y="321" type="line" smooth="yes"/>
      <point x="105" y="339"/>
      <point x="101" y="347"/>
      <point x="85" y="348" type="curve" smooth="yes"/>
      <point x="51" y="351" type="line" smooth="yes"/>
      <point x="44" y="355"/>
      <point x="40" y="369"/>
      <point x="48" y="374" type="curve" smooth="yes"/>
      <point x="54" y="380"/>
      <point x="73" y="382"/>
      <point x="91" y="392" type="curve" smooth="yes"/>
      <point x="99" y="396"/>
      <point x="105" y="403"/>
      <point x="105" y="412" type="curve" smooth="yes"/>
      <point x="105" y="469"/>
      <point x="113" y="526"/>
      <point x="136" y="580" type="curve" smooth="yes"/>
      <point x="157" y="631"/>
      <point x="218" y="715"/>
      <point x="330" y="715" type="curve" smooth="yes"/>
      <point x="398" y="715"/>
      <point x="455" y="679"/>
      <point x="455" y="636" type="curve" smooth="yes"/>
      <point x="455" y="605"/>
      <point x="428" y="594"/>
      <point x="413" y="594" type="curve" smooth="yes"/>
      <point x="399" y="594"/>
      <point x="391" y="601"/>
      <point x="386" y="609" type="curve" smooth="yes"/>
      <point x="357" y="658"/>
      <point x="319" y="675"/>
      <point x="294" y="675" type="curve" smooth="yes"/>
      <point x="217" y="675"/>
      <point x="182" y="590"/>
      <point x="182" y="436" type="curve" smooth="yes"/>
      <point x="182" y="413"/>
      <point x="180" y="396"/>
      <point x="208" y="395" type="curve" smooth="yes"/>
      <point x="240" y="394"/>
      <point x="285" y="394"/>
      <point x="311" y="395" type="curve" smooth="yes"/>
      <point x="348" y="396"/>
      <point x="400" y="400"/>
      <point x="428" y="406" type="curve" smooth="yes"/>
      <point x="437" y="409"/>
      <point x="446" y="414"/>
      <point x="452" y="404" type="curve"/>
      <point x="450" y="368"/>
      <point x="448" y="320"/>
      <point x="448" y="279" type="curve" smooth="yes"/>
      <point x="448" y="113" type="line" smooth="yes"/>
      <point x="448" y="41"/>
      <point x="450" y="33"/>
      <point x="485" y="28" type="curve" smooth="yes"/>
    </contour>
  </outline>
</glyph>
<glyph name="f_l" format="1">
  <advance width="539"/>
  <unicode hex="FB02"/>
  <outline>
    <contour>
      <point x="527" y="3" type="curve" smooth="yes"/>
      <point x="526" y="-1"/>
      <point x="525" y="-3"/>
      <point x="520" y="-3" type="curve" smooth="yes"/>
      <point x="519" y="-3"/>
      <point x="518" y="-3"/>
      <point x="516" y="-3" type="curve" smooth="yes"/>
      <point x="467" y="-1"/>
      <point x="365" y="-1"/>
      <point x="311" y="-3" type="curve" smooth="yes"/>
      <point x="310" y="-3"/>
      <point x="308" y="-3"/>
      <point x="307" y="-3" type="curve" smooth="yes"/>
      <point x="302" y="-3"/>
      <point x="300" y="-2"/>
      <point x="298" y="3" type="curve" smooth="yes"/>
      <point x="295" y="12"/>
      <point x="296" y="27"/>
      <point x="305" y="28" type="curve" smooth="yes"/>
      <point x="313" y="28" type="line" smooth="yes"/>
      <point x="375" y="28"/>
      <point x="379" y="29"/>
      <point x="379" y="133" type="curve" smooth="yes"/>
      <point x="379" y="346" type="line" smooth="yes"/>
      <point x="379" y="359"/>
      <point x="368" y="363"/>
      <point x="360" y="363" type="curve" smooth="yes"/>
      <point x="310" y="364"/>
      <point x="227" y="366"/>
      <point x="184" y="362" type="curve" smooth="yes"/>
      <point x="179" y="362"/>
      <point x="174" y="356"/>
      <point x="173" y="351" type="curve" smooth="yes"/>
      <point x="173" y="88" type="line" smooth="yes"/>
      <point x="173" y="39"/>
      <point x="184" y="28"/>
      <point x="234" y="28" type="curve" smooth="yes"/>
      <point x="237" y="29"/>
      <point x="242" y="29"/>
      <point x="244" y="28" type="curve" smooth="yes"/>
      <point x="254" y="27"/>
      <point x="255" y="-1"/>
      <point x="246" y="-3" type="curve" smooth="yes"/>
      <point x="245" y="-3"/>
      <point x="244" y="-3"/>
      <point x="243" y="-3" type="curve" smooth="yes"/>
      <point x="240" y="-3" type="line" smooth="yes"/>
      <point x="194" y="-3"/>
      <point x="96" y="1"/>
      <point x="38" y="-3" type="curve" smooth="yes"/>
      <point x="32" y="-4"/>
      <point x="27" y="-3"/>
      <point x="24" y="2" type="curve" smooth="yes"/>
      <point x="21" y="8"/>
      <point x="21" y="17"/>
      <point x="24" y="23" type="curve" smooth="yes"/>
      <point x="27" y="29"/>
      <point x="33" y="28"/>
      <point x="38" y="28" type="curve" smooth="yes"/>
      <point x="69" y="31"/>
      <point x="75" y="34"/>
      <point x="82" y="43" type="curve" smooth="yes"/>
      <point x="91" y="55"/>
      <point x="92" y="63"/>
      <point x="92" y="133" type="curve" smooth="yes"/>
      <point x="92" y="343" type="line" smooth="yes"/>
      <point x="92" y="356"/>
      <point x="84" y="360"/>
      <point x="76" y="361" type="curve" smooth="yes"/>
      <point x="30" y="361" type="line" smooth="yes"/>
      <point x="28" y="361"/>
      <point x="26" y="364"/>
      <point x="25" y="369" type="curve" smooth="yes"/>
      <point x="24" y="373"/>
      <point x="23" y="379"/>
      <point x="25" y="383" type="curve" smooth="yes"/>
      <point x="26" y="387"/>
      <point x="31" y="391"/>
      <point x="33" y="391" type="curve" smooth="yes"/>
      <point x="85" y="413" type="line" smooth="yes"/>
      <point x="89" y="416"/>
      <point x="92" y="420"/>
      <point x="92" y="425" type="curve" smooth="yes"/>
      <point x="97" y="502"/>
      <point x="117" y="582"/>
      <point x="170" y="640" type="curve" smooth="yes"/>
      <point x="214" y="689"/>
      <point x="259" y="715"/>
      <point x="319" y="715" type="curve" smooth="yes"/>
      <point x="341" y="715"/>
      <point x="361" y="710"/>
      <point x="382" y="710" type="curve" smooth="yes"/>
      <point x="401" y="710"/>
      <point x="413" y="715"/>
      <point x="428" y="734" type="curve"/>
      <point x="439" y="738"/>
      <point x="456" y="741"/>
      <point x="458" y="733" type="curve" smooth="yes"/>
      <point x="458" y="88" type="line" smooth="yes"/>
      <point x="458" y="37"/>
      <point x="460" y="28"/>
      <point x="509" y="28" type="curve" smooth="yes"/>
      <point x="514" y="30"/>
      <point x="518" y="29"/>
      <point x="522" y="28" type="curve" smooth="yes"/>
      <point x="528" y="27"/>
      <point x="530" y="12"/>
    </contour>
    <contour>
      <point x="379" y="440" type="curve" smooth="yes"/>
      <point x="379" y="628" type="line"/>
      <point x="345" y="651"/>
      <point x="307" y="666"/>
      <point x="278" y="666" type="curve" smooth="yes"/>
      <point x="250" y="666"/>
      <point x="229" y="650"/>
      <point x="213" y="628" type="curve" smooth="yes"/>
      <point x="191" y="597"/>
      <point x="173" y="532"/>
      <point x="173" y="428" type="curve" smooth="yes"/>
      <point x="173" y="417"/>
      <point x="183" y="419"/>
      <point x="191" y="418" type="curve" smooth="yes"/>
      <point x="253" y="416"/>
      <point x="321" y="418"/>
      <point x="359" y="418" type="curve" smooth="yes"/>
      <point x="369" y="418"/>
      <point x="377" y="427"/>
    </contour>
  </outline>
</glyph>
<glyph name="egrave.sc" format="1">
  <advance width="457"/>
  <outline>
    <contour>
      <point x="411" y="113" type="curve" smooth="yes"/>
      <point x="403" y="18" type="line" smooth="yes"/>
      <point x="399" y="3"/>
      <point x="392" y="-1"/>
      <point x="384" y="-3" type="curve" smooth="yes"/>
      <point x="290" y="-2"/>
      <point x="137" y="-1"/>
      <point x="42" y="-2" type="curve" smooth="yes"/>
      <point x="36" y="-3"/>
      <point x="29" y="-3"/>
      <point x="26" y="4" type="curve" smooth="yes"/>
      <point x="24" y="11"/>
      <point x="23" y="22"/>
      <point x="26" y="29" type="curve" smooth="yes"/>
      <point x="30" y="38"/>
      <point x="46" y="37"/>
      <point x="51" y="37" type="curve" smooth="yes"/>
      <point x="105" y="37"/>
      <point x="110" y="39"/>
      <point x="110" y="104" type="curve" smooth="yes"/>
      <point x="110" y="375" type="line" smooth="yes"/>
      <point x="110" y="440"/>
      <point x="105" y="441"/>
      <point x="63" y="441" type="curve" smooth="yes"/>
      <point x="54" y="441"/>
      <point x="45" y="437"/>
      <point x="40" y="446" type="curve" smooth="yes"/>
      <point x="34" y="455"/>
      <point x="34" y="476"/>
      <point x="47" y="478" type="curve" smooth="yes"/>
      <point x="140" y="479"/>
      <point x="301" y="479"/>
      <point x="365" y="478" type="curve" smooth="yes"/>
      <point x="372" y="476"/>
      <point x="376" y="475"/>
      <point x="379" y="467" type="curve" smooth="yes"/>
      <point x="383" y="445"/>
      <point x="387" y="400"/>
      <point x="385" y="367" type="curve" smooth="yes"/>
      <point x="385" y="360"/>
      <point x="371" y="358"/>
      <point x="361" y="360" type="curve" smooth="yes"/>
      <point x="355" y="361"/>
      <point x="354" y="366"/>
      <point x="353" y="372" type="curve" smooth="yes"/>
      <point x="345" y="429"/>
      <point x="337" y="433"/>
      <point x="285" y="434" type="curve" smooth="yes"/>
      <point x="204" y="434" type="line" smooth="yes"/>
      <point x="199" y="434"/>
      <point x="187" y="432"/>
      <point x="187" y="417" type="curve" smooth="yes"/>
      <point x="187" y="281" type="line" smooth="yes"/>
      <point x="187" y="272"/>
      <point x="195" y="270"/>
      <point x="202" y="270" type="curve" smooth="yes"/>
      <point x="225" y="270"/>
      <point x="270" y="268"/>
      <point x="300" y="271" type="curve" smooth="yes"/>
      <point x="321" y="273"/>
      <point x="323" y="279"/>
      <point x="327" y="311" type="curve" smooth="yes"/>
      <point x="328" y="318"/>
      <point x="328" y="319"/>
      <point x="336" y="319" type="curve" smooth="yes"/>
      <point x="346" y="321"/>
      <point x="360" y="318"/>
      <point x="359" y="311" type="curve" smooth="yes"/>
      <point x="357" y="276"/>
      <point x="359" y="199"/>
      <point x="359" y="175" type="curve"/>
      <point x="355" y="169"/>
      <point x="330" y="162"/>
      <point x="328" y="176" type="curve" smooth="yes"/>
      <point x="322" y="213"/>
      <point x="320" y="221"/>
      <point x="294" y="223" type="curve" smooth="yes"/>
      <point x="269" y="225"/>
      <point x="218" y="223"/>
      <point x="205" y="223" type="curve" smooth="yes"/>
      <point x="199" y="223"/>
      <point x="187" y="221"/>
      <point x="187" y="211" type="curve" smooth="yes"/>
      <point x="187" y="98" type="line" smooth="yes"/>
      <point x="187" y="65"/>
      <point x="184" y="45"/>
      <point x="225" y="45" type="curve" smooth="yes"/>
      <point x="287" y="45" type="line" smooth="yes"/>
      <point x="349" y="45"/>
      <point x="365" y="52"/>
      <point x="379" y="115" type="curve" smooth="yes"/>
      <point x="382" y="126"/>
      <point x="380" y="125"/>
      <point x="389" y="127" type="curve" smooth="yes"/>
      <point x="395" y="128"/>
      <point x="400" y="128"/>
      <point x="405" y="126" type="curve" smooth="yes"/>
      <point x="412" y="123"/>
      <point x="412" y="120"/>
    </contour>
    <contour>
      <point x="251" y="562" type="curve" smooth="yes"/>
      <point x="252" y="549"/>
      <point x="234" y="548"/>
      <point x="226" y="555" type="curve" smooth="yes"/>
      <point x="194" y="597"/>
      <point x="135" y="666"/>
      <point x="92" y="713" type="curve" smooth="yes"/>
      <point x="86" y="719"/>
      <point x="94" y="732"/>
      <point x="106" y="732" type="curve" smooth="yes"/>
      <point x="183" y="733" type="line" smooth="yes"/>
      <point x="192" y="733"/>
      <point x="197" y="733"/>
      <point x="202" y="725" type="curve" smooth="yes"/>
      <point x="219" y="680"/>
      <point x="241" y="605"/>
    </contour>
  </outline>
</glyph>
<glyph name="five.lining" format="1">
  <advance width="489"/>
  <outline>
    <contour>
      <point x="422" y="204" type="curve" smooth="yes"/>
      <point x="422" y="80"/>
      <point x="329" y="-18"/>
      <point x="196" y="-18" type="curve" smooth="yes"/>
      <point x="118" y="-18"/>
      <point x="55" y="8"/>
      <point x="55" y="50" type="curve" smooth="yes"/>
      <point x="55" y="72"/>
      <point x="73" y="90"/>
      <point x="95" y="90" type="curve" smooth="yes"/>
      <point x="128" y="90"/>
      <point x="157" y="55"/>
      <point x="180" y="35" type="curve" smooth="yes"/>
      <point x="193" y="24"/>
      <point x="202" y="21"/>
      <point x="218" y="21" type="curve" smooth="yes"/>
      <point x="285" y="21"/>
      <point x="334" y="93"/>
      <point x="334" y="181" type="curve" smooth="yes"/>
      <point x="334" y="269"/>
      <point x="285" y="329"/>
      <point x="206" y="329" type="curve" smooth="yes"/>
      <point x="176" y="329"/>
      <point x="148" y="321"/>
      <point x="120" y="302" type="curve" smooth="yes"/>
      <point x="115" y="299"/>
      <point x="107" y="293"/>
      <point x="100" y="298" type="curve" smooth="yes"/>
      <point x="91" y="304"/>
      <point x="90" y="307"/>
      <point x="91" y="321" type="curve" smooth="yes"/>
      <point x="112" y="603" type="line" smooth="yes"/>
      <point x="114" y="624"/>
      <point x="142" y="627"/>
      <point x="157" y="627" type="curve" smooth="yes"/>
      <point x="300" y="625" type="line" smooth="yes"/>
      <point x="327" y="625"/>
      <point x="343" y="622"/>
      <point x="353" y="634" type="curve" smooth="yes"/>
      <point x="356" y="638"/>
      <point x="362" y="640"/>
      <point x="366" y="640" type="curve" smooth="yes"/>
      <point x="377" y="640" type="line"/>
      <point x="383" y="636"/>
      <point x="386" y="632"/>
      <point x="384" y="621" type="curve" smooth="yes"/>
      <point x="376" y="565" type="line" smooth="yes"/>
      <point x="371" y="553"/>
      <point x="367" y="548"/>
      <point x="342" y="546" type="curve" smooth="yes"/>
      <point x="170" y="549" type="line" smooth="yes"/>
      <point x="163" y="547"/>
      <point x="152" y="542"/>
      <point x="149" y="531" type="curve" smooth="yes"/>
      <point x="142" y="406" type="line" smooth="yes"/>
      <point x="141" y="397"/>
      <point x="149" y="394"/>
      <point x="157" y="398" type="curve" smooth="yes"/>
      <point x="179" y="406"/>
      <point x="196" y="409"/>
      <point x="224" y="409" type="curve" smooth="yes"/>
      <point x="338" y="409"/>
      <point x="422" y="319"/>
    </contour>
  </outline>
</glyph>
<glyph name="nine.lining" format="1">
  <advance width="489"/>
  <outline>
    <contour>
      <point x="438" y="375" type="curve" smooth="yes"/>
      <point x="438" y="195"/>
      <point x="328" y="50"/>
      <point x="129" y="-13" type="curve" smooth="yes"/>
      <point x="116" y="-17"/>
      <point x="105" y="-14"/>
      <point x="98" y="-5" type="curve" smooth="yes"/>
      <point x="93" y="1"/>
      <point x="94" y="9"/>
      <point x="105" y="14" type="curve" smooth="yes"/>
      <point x="185" y="49"/>
      <point x="237" y="87"/>
      <point x="276" y="135" type="curve" smooth="yes"/>
      <point x="305" y="171"/>
      <point x="321" y="202"/>
      <point x="332" y="251" type="curve" smooth="yes"/>
      <point x="337" y="271"/>
      <point x="323" y="275"/>
      <point x="317" y="271" type="curve" smooth="yes"/>
      <point x="285" y="248"/>
      <point x="256" y="244"/>
      <point x="218" y="244" type="curve" smooth="yes"/>
      <point x="117" y="244"/>
      <point x="39" y="328"/>
      <point x="39" y="433" type="curve" smooth="yes"/>
      <point x="39" y="546"/>
      <point x="126" y="637"/>
      <point x="235" y="637" type="curve" smooth="yes"/>
      <point x="362" y="637"/>
      <point x="438" y="529"/>
    </contour>
    <contour>
      <point x="350" y="397" type="curve" smooth="yes"/>
      <point x="350" y="532"/>
      <point x="309" y="606"/>
      <point x="233" y="606" type="curve" smooth="yes"/>
      <point x="168" y="606"/>
      <point x="126" y="548"/>
      <point x="126" y="443" type="curve" smooth="yes"/>
      <point x="126" y="342"/>
      <point x="169" y="282"/>
      <point x="232" y="282" type="curve" smooth="yes"/>
      <point x="262" y="282"/>
      <point x="287" y="294"/>
      <point x="328" y="325" type="curve" smooth="yes"/>
      <point x="341" y="335"/>
      <point x="348" y="350"/>
      <point x="349" y="361" type="curve" smooth="yes"/>
      <point x="350" y="372"/>
      <point x="350" y="383"/>
    </contour>
  </outline>
</glyph>
<glyph name="o.sc" format="1">
  <advance width="577"/>
  <outline>
    <contour>
      <point x="289" y="-14" type="curve" smooth="yes"/>
      <point x="145" y="-14"/>
      <point x="40" y="94"/>
      <point x="40" y="232" type="curve" smooth="yes"/>
      <point x="40" y="380"/>
      <point x="143" y="490"/>
      <point x="290" y="490" type="curve" smooth="yes"/>
      <point x="435" y="490"/>
      <point x="536" y="383"/>
      <point x="536" y="245" type="curve" smooth="yes"/>
      <point x="536" y="97"/>
      <point x="432" y="-14"/>
    </contour>
    <contour>
      <point x="282" y="450" type="curve" smooth="yes"/>
      <point x="186" y="452"/>
      <point x="125" y="348"/>
      <point x="125" y="246" type="curve" smooth="yes"/>
      <point x="125" y="118"/>
      <point x="196" y="24"/>
      <point x="299" y="24" type="curve" smooth="yes"/>
      <point x="414" y="24"/>
      <point x="451" y="134"/>
      <point x="451" y="229" type="curve" smooth="yes"/>
      <point x="451" y="362"/>
      <point x="390" y="449"/>
    </contour>
  </outline>
</glyph>
<glyph name="oslash.sc" format="1">
  <advance width="577"/>
  <outline>
    <contour>
      <point x="521" y="467" type="curve"/>
      <point x="472" y="413" type="line"/>
      <point x="512" y="370"/>
      <point x="536" y="311"/>
      <point x="536" y="245" type="curve" smooth="yes"/>
      <point x="536" y="97"/>
      <point x="432" y="-14"/>
      <point x="289" y="-14" type="curve" smooth="yes"/>
      <point x="228" y="-14"/>
      <point x="174" y="5"/>
      <point x="132" y="38" type="curve"/>
      <point x="80" y="-19" type="line"/>
      <point x="61" y="-30"/>
      <point x="41" y="-3"/>
      <point x="49" y="10" type="curve" smooth="yes"/>
      <point x="101" y="67" type="line"/>
      <point x="62" y="111"/>
      <point x="40" y="168"/>
      <point x="40" y="232" type="curve" smooth="yes"/>
      <point x="40" y="380"/>
      <point x="143" y="490"/>
      <point x="290" y="490" type="curve" smooth="yes"/>
      <point x="348" y="490"/>
      <point x="400" y="472"/>
      <point x="440" y="442" type="curve"/>
      <point x="486" y="493" type="line" smooth="yes"/>
      <point x="499" y="508"/>
      <point x="527" y="482"/>
    </contour>
    <contour>
      <point x="451" y="229" type="curve" smooth="yes"/>
      <point x="451" y="280"/>
      <point x="442" y="325"/>
      <point x="424" y="360" type="curve"/>
      <point x="175" y="85" type="line"/>
      <point x="205" y="46"/>
      <point x="248" y="24"/>
      <point x="299" y="24" type="curve" smooth="yes"/>
      <point x="414" y="24"/>
      <point x="451" y="134"/>
    </contour>
    <contour>
      <point x="282" y="450" type="curve" smooth="yes"/>
      <point x="186" y="452"/>
      <point x="125" y="348"/>
      <point x="125" y="246" type="curve" smooth="yes"/>
      <point x="125" y="199"/>
      <point x="134" y="157"/>
      <point x="151" y="123" type="curve"/>
      <point x="400" y="398" type="line"/>
      <point x="371" y="431"/>
      <point x="331" y="449"/>
    </contour>
  </outline>
</glyph>
<glyph name="parenleft.csc" format="1">
  <advance width="298"/>
  <outline>
    <contour>
      <point x="254" y="-191" type="curve" smooth="yes"/>
      <point x="245" y="-196"/>
      <point x="238" y="-190"/>
      <point x="233" y="-184" type="curve" smooth="yes"/>
      <point x="136" y="-74"/>
      <point x="71" y="78"/>
      <point x="71" y="226" type="curve" smooth="yes"/>
      <point x="71" y="380"/>
      <point x="139" y="532"/>
      <point x="241" y="644" type="curve"/>
      <point x="261" y="659"/>
      <point x="288" y="630"/>
      <point x="276" y="611" type="curve" smooth="yes"/>
      <point x="238" y="568"/>
      <point x="196" y="492"/>
      <point x="172" y="427" type="curve" smooth="yes"/>
      <point x="148" y="364"/>
      <point x="138" y="305"/>
      <point x="138" y="226" type="curve" smooth="yes"/>
      <point x="138" y="109"/>
      <point x="160" y="27"/>
      <point x="219" y="-77" type="curve" smooth="yes"/>
      <point x="243" y="-119"/>
      <point x="250" y="-129"/>
      <point x="276" y="-160" type="curve" smooth="yes"/>
      <point x="282" y="-173"/>
      <point x="268" y="-184"/>
    </contour>
  </outline>
</glyph>
<glyph name="percent.csc" format="1">
  <advance width="487"/>
  <outline>
    <contour>
      <point x="230" y="336" type="curve" smooth="yes"/>
      <point x="229" y="272"/>
      <point x="185" y="225"/>
      <point x="128" y="225" type="curve" smooth="yes"/>
      <point x="73" y="225"/>
      <point x="26" y="271"/>
      <point x="26" y="334" type="curve" smooth="yes"/>
      <point x="26" y="399"/>
      <point x="71" y="445"/>
      <point x="127" y="445" type="curve" smooth="yes"/>
      <point x="183" y="445"/>
      <point x="231" y="401"/>
    </contour>
    <contour>
      <point x="394" y="449" type="curve" smooth="yes"/>
      <point x="120" y="-39" type="line" smooth="yes"/>
      <point x="112" y="-53"/>
      <point x="104" y="-49"/>
      <point x="93" y="-49" type="curve" smooth="yes"/>
      <point x="86" y="-49"/>
      <point x="77" y="-37"/>
      <point x="85" y="-23" type="curve" smooth="yes"/>
      <point x="358" y="461" type="line" smooth="yes"/>
      <point x="363" y="470"/>
      <point x="404" y="473"/>
    </contour>
    <contour>
      <point x="458" y="80" type="curve" smooth="yes"/>
      <point x="457" y="15"/>
      <point x="414" y="-31"/>
      <point x="357" y="-31" type="curve" smooth="yes"/>
      <point x="302" y="-31"/>
      <point x="255" y="15"/>
      <point x="255" y="77" type="curve" smooth="yes"/>
      <point x="255" y="143"/>
      <point x="299" y="189"/>
      <point x="356" y="189" type="curve" smooth="yes"/>
      <point x="412" y="189"/>
      <point x="459" y="145"/>
    </contour>
    <contour>
      <point x="181" y="336" type="curve" smooth="yes"/>
      <point x="181" y="387"/>
      <point x="159" y="411"/>
      <point x="126" y="411" type="curve" smooth="yes"/>
      <point x="97" y="411"/>
      <point x="74" y="385"/>
      <point x="74" y="334" type="curve" smooth="yes"/>
      <point x="74" y="283"/>
      <point x="97" y="260"/>
      <point x="128" y="260" type="curve" smooth="yes"/>
      <point x="160" y="260"/>
      <point x="181" y="285"/>
    </contour>
    <contour>
      <point x="409" y="80" type="curve" smooth="yes"/>
      <point x="409" y="131"/>
      <point x="387" y="155"/>
      <point x="355" y="155" type="curve" smooth="yes"/>
      <point x="325" y="155"/>
      <point x="304" y="129"/>
      <point x="304" y="79" type="curve" smooth="yes"/>
      <point x="304" y="28"/>
      <point x="326" y="4"/>
      <point x="357" y="4" type="curve" smooth="yes"/>
      <point x="388" y="4"/>
      <point x="409" y="29"/>
    </contour>
  </outline>
</glyph>
